<svg version="1.1" xmlns="http://www.w3.org/2000/svg" viewBox="0 0 894.16015625 522.92578125" width="894.16015625" height="522.92578125">
  <!-- svg-source:excalidraw -->
  
  <defs>
    <style class="style-fonts">
      @font-face {
        font-family: "Virgil";
        src: url("https://excalidraw.com/Virgil.woff2");
      }
      @font-face {
        font-family: "Cascadia";
        src: url("https://excalidraw.com/Cascadia.woff2");
      }
    </style>
    
  </defs>
  <g stroke-linecap="round" transform="translate(456.779296875 191.5859375) rotate(0 67.5 74.5)"><path d="M11.2 62.73 C11.2 62.73, 11.2 62.73, 11.2 62.73 M11.2 62.73 C11.2 62.73, 11.2 62.73, 11.2 62.73 M5.03 75.92 C28.95 49.46, 51.95 20.45, 65.39 6.49 M5.03 75.92 C21.6 56.4, 39.49 36.96, 65.39 6.49 M6.74 80.06 C29.41 50.96, 54.6 23.07, 71.69 5.34 M6.74 80.06 C23.8 59.82, 41.56 38.8, 71.69 5.34 M9.1 83.44 C24.36 65.54, 37.9 48.85, 74.05 8.72 M9.1 83.44 C33.07 58.43, 53.65 33.21, 74.05 8.72 M11.46 86.82 C27.67 70.42, 40.47 50.51, 77.07 11.34 M11.46 86.82 C36.12 58.86, 59.71 32.71, 77.07 11.34 M13.83 90.19 C34.92 64.44, 56.49 41.47, 80.09 13.97 M13.83 90.19 C31.35 69.84, 50.12 48.17, 80.09 13.97 M16.85 92.82 C30.32 75.84, 47.41 60.55, 83.11 16.59 M16.85 92.82 C33.67 72.45, 49.27 54.62, 83.11 16.59 M19.21 96.2 C33.23 79.58, 49.67 64.89, 86.13 19.22 M19.21 96.2 C41.85 68.8, 67.22 40.99, 86.13 19.22 M22.23 98.82 C44.79 72.23, 69.5 45.01, 88.49 22.6 M22.23 98.82 C38.03 80.64, 51.49 65.27, 88.49 22.6 M25.25 101.45 C48.89 75.55, 68.92 47.89, 91.51 25.22 M25.25 101.45 C51.97 72.83, 77.57 42.88, 91.51 25.22 M27.61 104.83 C47.51 84.63, 66.87 63.6, 93.87 28.6 M27.61 104.83 C52.51 74.85, 78.19 45.24, 93.87 28.6 M30.63 107.45 C49.52 88.97, 65.71 65.6, 96.23 31.98 M30.63 107.45 C57.8 76.75, 82.64 48.01, 96.23 31.98 M32.99 110.83 C58.83 82.71, 82.26 53.83, 99.25 34.6 M32.99 110.83 C47.45 94.02, 61.15 78.1, 99.25 34.6 M36.01 113.45 C54.13 94.78, 71.91 71.85, 101.61 37.98 M36.01 113.45 C54.66 93.04, 72.65 69.53, 101.61 37.98 M38.37 116.83 C61.53 92.25, 84.43 64.56, 104.63 40.61 M38.37 116.83 C56.24 96.41, 72.99 78.4, 104.63 40.61 M41.39 119.46 C62.75 93.03, 85.31 67.13, 107 43.98 M41.39 119.46 C66.49 89.96, 94.32 58.57, 107 43.98 M44.41 122.08 C68.91 97.54, 88.88 70.89, 110.02 46.61 M44.41 122.08 C58.23 106.2, 72.07 91.16, 110.02 46.61 M46.77 125.46 C68.74 99.59, 89.36 76.7, 112.38 49.99 M46.77 125.46 C70.92 96.49, 94.64 69.16, 112.38 49.99 M49.79 128.08 C76.11 100.13, 100.87 69.96, 115.4 52.61 M49.79 128.08 C63.51 111.79, 77.93 94.59, 115.4 52.61 M52.15 131.46 C74 105.23, 95.75 83.37, 117.76 55.99 M52.15 131.46 C69.48 112.63, 86.93 91.82, 117.76 55.99 M55.17 134.09 C76.51 105.94, 100.05 81.14, 120.78 58.62 M55.17 134.09 C68.99 117.14, 84.17 99.59, 120.78 58.62 M57.54 137.47 C85.13 105.63, 110.14 77.02, 123.14 61.99 M57.54 137.47 C72.13 120.41, 87.73 101.25, 123.14 61.99 M60.55 140.09 C73.44 123.3, 88.72 104.28, 126.16 64.62 M60.55 140.09 C74.85 124.36, 87.38 108.94, 126.16 64.62 M64.23 141.96 C79.9 124.79, 93.44 108.11, 128.52 68 M64.23 141.96 C81.27 121.68, 98.77 103.17, 128.52 68 M67.25 144.58 C91.91 116.76, 114.06 92.35, 130.23 72.13 M67.25 144.58 C87.35 121.46, 107.42 98.59, 130.23 72.13 M84.7 130.6 C101.68 112.15, 116.88 95.96, 131.94 76.27 M84.7 130.6 C95.7 117.58, 108.66 103.39, 131.94 76.27" stroke="#b2f2bb" stroke-width="0.5" fill="none"></path><path d="M85 18.75 M85 18.75 C92.91 28.14, 104.46 41.92, 118 56.25 M85 18.75 C95.65 30.76, 108.45 43.97, 118 56.25 M118 56.25 C133.44 73.57, 136.96 75.1, 118 93.75 M118 56.25 C136.07 74.05, 134.48 74.37, 118 93.75 M118 93.75 C111.5 102.26, 101.33 112, 85 130.25 M118 93.75 C109.64 105.19, 99.37 114.22, 85 130.25 M85 130.25 C67.95 150.24, 66.56 147.48, 51 130.25 M85 130.25 C67.1 148.24, 66.85 148.34, 51 130.25 M51 130.25 C40.52 121.28, 32.34 109.74, 17 93.75 M51 130.25 C43.21 122.39, 36.65 116.07, 17 93.75 M17 93.75 C1.61 75.24, 1.36 76.83, 17 56.25 M17 93.75 C-1.02 75.02, 0.91 76.65, 17 56.25 M17 56.25 C23.53 48.11, 34.57 37.44, 51 18.75 M17 56.25 C25.41 45.86, 36.12 35.71, 51 18.75 M51 18.75 C67.27 -0.35, 67.91 0.63, 85 18.75 M51 18.75 C69.39 2.02, 67.82 2.02, 85 18.75" stroke="#1e1e1e" stroke-width="1" fill="none"></path></g><g transform="translate(498.0413131713867 246.3359375) rotate(0 26.48798370361328 20)"><text x="26.48798370361328" y="0" font-family="Virgil, Segoe UI Emoji" font-size="16px" fill="#1e1e1e" text-anchor="middle" style="white-space: pre;" direction="ltr" dominant-baseline="text-before-edge">micro-</text><text x="26.48798370361328" y="20" font-family="Virgil, Segoe UI Emoji" font-size="16px" fill="#1e1e1e" text-anchor="middle" style="white-space: pre;" direction="ltr" dominant-baseline="text-before-edge">service</text></g><g stroke-linecap="round" transform="translate(164.3984375 46.734375) rotate(0 359.880859375 233.095703125)"><path d="M32 0 M32 0 C271.43 -0.38, 511.16 -1.03, 687.76 0 M32 0 C225.58 1.97, 419.1 2.18, 687.76 0 M687.76 0 C709.55 -1.35, 718.13 11.42, 719.76 32 M687.76 0 C707.69 -1.82, 721.66 11.68, 719.76 32 M719.76 32 C721.31 126.87, 721.02 222.05, 719.76 434.19 M719.76 32 C717.67 126.34, 717.64 220.84, 719.76 434.19 M719.76 434.19 C719.62 456.36, 708.64 464.3, 687.76 466.19 M719.76 434.19 C719.84 456.62, 709.94 468.42, 687.76 466.19 M687.76 466.19 C432.06 468, 177.98 468.24, 32 466.19 M687.76 466.19 C524.95 465.65, 361.71 466.04, 32 466.19 M32 466.19 C12.63 464.63, 0.66 454.16, 0 434.19 M32 466.19 C9.01 466.9, 1.56 453.45, 0 434.19 M0 434.19 C2.22 336.64, 1.48 237.96, 0 32 M0 434.19 C-2.06 297.43, -1.75 160.72, 0 32 M0 32 C-0.77 11.63, 11.59 0.5, 32 0 M0 32 C-0.12 10.12, 12.19 1.21, 32 0" stroke="#1e1e1e" stroke-width="1" fill="none"></path></g><g transform="translate(392.9617004394531 10) rotate(0 129.21994018554688 17.5)"><text x="129.21994018554688" y="0" font-family="Virgil, Segoe UI Emoji" font-size="28px" fill="#1e1e1e" text-anchor="middle" style="white-space: pre;" direction="ltr" dominant-baseline="text-before-edge">Container-Platform</text></g><g stroke-linecap="round" transform="translate(187.03125 426.3515625) rotate(0 337.248046875 33.837890625)"><path d="M4.5 3.91 C4.5 3.91, 4.5 3.91, 4.5 3.91 M4.5 3.91 C4.5 3.91, 4.5 3.91, 4.5 3.91 M3.59 11.07 C6.25 9.04, 8.3 4.98, 10.8 2.77 M3.59 11.07 C4.89 9.13, 6.72 7.23, 10.8 2.77 M2.01 18.97 C8.39 13.86, 11.25 6.58, 17.76 0.86 M2.01 18.97 C5.5 14.62, 8.85 10.4, 17.76 0.86 M2.41 24.62 C9.58 15.11, 17.94 8.46, 23.4 0.47 M2.41 24.62 C8.09 18.11, 11.48 13.6, 23.4 0.47 M2.15 31.02 C14.34 18.58, 22.17 5.15, 28.39 0.83 M2.15 31.02 C9.61 21.18, 16.61 13.35, 28.39 0.83 M2.54 36.66 C12.54 24.14, 26.51 8.18, 34.03 0.43 M2.54 36.66 C9.31 27.76, 16.43 20.9, 34.03 0.43 M2.93 42.3 C12.7 33.63, 21.26 23.7, 39.02 0.79 M2.93 42.3 C12.25 30.17, 21.96 18.75, 39.02 0.79 M2.67 48.7 C18.2 30.59, 33.75 10.93, 44.01 1.15 M2.67 48.7 C14.69 36.26, 24.34 23.17, 44.01 1.15 M3.07 54.34 C16.48 37.95, 31.15 19.41, 49.65 0.76 M3.07 54.34 C14.07 41.84, 24.68 30.53, 49.65 0.76 M3.46 59.99 C23.18 38.7, 43.68 15.61, 54.64 1.12 M3.46 59.99 C21.58 39.81, 40.59 17.3, 54.64 1.12 M5.83 63.36 C19.17 49.25, 36.32 31.64, 60.28 0.72 M5.83 63.36 C18.95 46.27, 33.38 30.31, 60.28 0.72 M8.19 66.74 C31.49 40.42, 53.94 15.02, 65.27 1.08 M8.19 66.74 C25.93 46.25, 43.24 27.7, 65.27 1.08 M12.52 67.86 C28.1 48.44, 45.32 28.89, 70.91 0.69 M12.52 67.86 C24.66 51.73, 39.05 35, 70.91 0.69 M16.19 69.73 C33.37 51.9, 46.88 32.71, 75.9 1.05 M16.19 69.73 C39.92 43.09, 64.7 16.03, 75.9 1.05 M21.18 70.09 C37.02 51.65, 53.75 32.13, 81.54 0.65 M21.18 70.09 C38.05 50.12, 55.63 31.18, 81.54 0.65 M26.82 69.69 C39.82 56.25, 52.29 37.19, 86.53 1.01 M26.82 69.69 C49.68 43.95, 70.36 19.97, 86.53 1.01 M31.81 70.05 C43.61 52.62, 57.54 39.63, 92.17 0.62 M31.81 70.05 C49.83 49.74, 66.2 30.63, 92.17 0.62 M37.45 69.66 C57.17 45.28, 81.05 21.04, 97.16 0.98 M37.45 69.66 C51.87 52.8, 66.23 36.57, 97.16 0.98 M42.44 70.02 C65.75 44.66, 85.4 17.7, 102.8 0.59 M42.44 70.02 C65.4 42.75, 90.09 17.04, 102.8 0.59 M47.43 70.38 C64.54 49.26, 82.95 29.21, 107.79 0.95 M47.43 70.38 C63.79 53.08, 78.47 35.13, 107.79 0.95 M53.07 69.98 C75.13 45.04, 100.94 16.94, 113.43 0.55 M53.07 69.98 C71.35 49.84, 90.37 28.13, 113.43 0.55 M58.06 70.34 C72.08 55.03, 82.81 43.14, 118.42 0.91 M58.06 70.34 C79.97 45.09, 102.27 18.6, 118.42 0.91 M63.7 69.95 C79.47 50.67, 95.74 32.78, 124.06 0.52 M63.7 69.95 C76.7 55.42, 89.84 39.84, 124.06 0.52 M68.69 70.31 C86.88 50.49, 106.13 28, 129.05 0.88 M68.69 70.31 C91.49 45.19, 111.85 21.23, 129.05 0.88 M74.33 69.92 C98.01 41.47, 118.9 17.89, 134.69 0.48 M74.33 69.92 C88.28 53.16, 102.29 36.59, 134.69 0.48 M79.32 70.28 C103.39 43.39, 126.15 17.35, 139.68 0.84 M79.32 70.28 C96.86 51.55, 112.94 32.13, 139.68 0.84 M84.96 69.88 C98.94 52.14, 115.83 32.45, 144.66 1.2 M84.96 69.88 C107.52 44.42, 128.93 18.94, 144.66 1.2 M89.95 70.24 C109.16 45.52, 132.11 24.33, 150.31 0.81 M89.95 70.24 C102.16 55.11, 117.05 40.93, 150.31 0.81 M95.59 69.85 C111.74 52.33, 123.9 37.46, 155.29 1.17 M95.59 69.85 C118.31 44.86, 139.26 17.95, 155.29 1.17 M100.58 70.21 C121.37 46.73, 139.85 24.85, 160.94 0.77 M100.58 70.21 C123.12 44.23, 145.49 17.5, 160.94 0.77 M106.22 69.81 C126.57 46.59, 148.26 20.39, 165.92 1.13 M106.22 69.81 C121.63 52.5, 136.45 34.23, 165.92 1.13 M111.21 70.17 C128.75 48.24, 147.5 25.57, 171.57 0.74 M111.21 70.17 C134.66 44.16, 156.75 17.97, 171.57 0.74 M116.85 69.78 C131.96 50.98, 146.63 33.44, 176.55 1.1 M116.85 69.78 C139.57 42.94, 162 17.48, 176.55 1.1 M121.84 70.14 C136.58 51.62, 154.59 32.03, 182.2 0.7 M121.84 70.14 C140.88 48.18, 158.78 27.53, 182.2 0.7 M127.48 69.74 C145.53 49.62, 165.47 26.83, 187.18 1.06 M127.48 69.74 C140.16 54.85, 152.77 41.47, 187.18 1.06 M132.47 70.1 C153.64 44.84, 175.09 19.81, 192.83 0.67 M132.47 70.1 C151.9 48.37, 169.78 25.94, 192.83 0.67 M138.11 69.71 C159.03 46.96, 179.38 22.37, 197.81 1.03 M138.11 69.71 C157.5 48.07, 176.51 25.9, 197.81 1.03 M143.1 70.07 C158.27 53.51, 169.14 38.29, 203.46 0.64 M143.1 70.07 C158.28 52.03, 172.38 36.69, 203.46 0.64 M148.09 70.43 C170.44 44.65, 193.17 16.18, 208.44 1 M148.09 70.43 C169.21 43.57, 192.19 18.32, 208.44 1 M153.73 70.03 C168.7 53.53, 183.93 33.16, 214.09 0.6 M153.73 70.03 C175.2 48.25, 194.18 25.11, 214.09 0.6 M158.72 70.39 C183.57 42.2, 206.66 14.91, 219.07 0.96 M158.72 70.39 C181.92 43.44, 206.07 15.94, 219.07 0.96 M164.36 70 C182.09 47.67, 202.2 25.12, 224.72 0.57 M164.36 70 C184.81 45.63, 207.7 20.42, 224.72 0.57 M169.35 70.36 C193.05 44.62, 215.02 20.99, 229.7 0.93 M169.35 70.36 C184.99 51.82, 200.99 33.38, 229.7 0.93 M174.99 69.96 C185.68 57.75, 199.6 43.47, 235.35 0.53 M174.99 69.96 C191.36 51.69, 207.81 32.66, 235.35 0.53 M179.98 70.33 C202.54 44.72, 224.07 18.96, 240.33 0.89 M179.98 70.33 C192.38 56.25, 205.43 40.3, 240.33 0.89 M185.62 69.93 C199.21 54.34, 213.18 37.19, 245.32 1.25 M185.62 69.93 C208.73 44.55, 231.03 17.65, 245.32 1.25 M190.61 70.29 C210.35 45.16, 230.13 24.16, 250.96 0.86 M190.61 70.29 C211.47 45.63, 230.44 21.93, 250.96 0.86 M196.25 69.9 C211.73 55.18, 224.39 39.16, 255.95 1.22 M196.25 69.9 C216.6 45.15, 238.36 20.55, 255.95 1.22 M201.24 70.26 C216.8 52.55, 233.33 33.91, 261.59 0.82 M201.24 70.26 C222.1 47.11, 240.48 24.7, 261.59 0.82 M206.88 69.86 C222.71 50.64, 241.55 28.2, 266.58 1.18 M206.88 69.86 C221.19 53.13, 234.93 36.96, 266.58 1.18 M211.87 70.22 C236.99 42.39, 260.57 15.6, 272.22 0.79 M211.87 70.22 C228.99 49.56, 246.24 29.29, 272.22 0.79 M217.51 69.83 C236.96 46.95, 257.38 25.95, 277.21 1.15 M217.51 69.83 C229.5 55.03, 242.94 41.15, 277.21 1.15 M222.5 70.19 C238.33 51.22, 252.62 35.25, 282.85 0.75 M222.5 70.19 C240.21 47.55, 258.89 25.23, 282.85 0.75 M228.14 69.79 C244.85 49.92, 262.96 32.31, 287.84 1.11 M228.14 69.79 C241 54.74, 253.27 41.13, 287.84 1.11 M233.13 70.15 C248.65 54.82, 258.81 37.65, 293.48 0.72 M233.13 70.15 C253.89 46.2, 272.8 22.83, 293.48 0.72 M238.77 69.76 C253.74 53.9, 265.17 39.42, 298.47 1.08 M238.77 69.76 C261.11 43.24, 284.87 15.96, 298.47 1.08 M243.76 70.12 C266.82 44.69, 289.26 21.09, 304.11 0.68 M243.76 70.12 C259.36 51.51, 276.63 30.44, 304.11 0.68 M248.74 70.48 C270.85 43.72, 291.81 20.23, 309.1 1.04 M248.74 70.48 C272.11 44.3, 294.08 17.34, 309.1 1.04 M254.39 70.08 C277.08 42.85, 303.18 13.23, 314.74 0.65 M254.39 70.08 C270.93 49.1, 289.31 28.43, 314.74 0.65 M259.37 70.44 C271.04 57.55, 284.53 40.65, 319.73 1.01 M259.37 70.44 C275.2 53.29, 289.39 35.79, 319.73 1.01 M265.02 70.05 C282.97 50.95, 296.99 33.55, 325.37 0.62 M265.02 70.05 C285.41 47.35, 303.32 27.02, 325.37 0.62 M270 70.41 C289.7 45.86, 311.18 23.5, 330.36 0.98 M270 70.41 C293.73 43.22, 316.54 17.35, 330.36 0.98 M275.65 70.01 C290.81 53.97, 305.86 33.99, 336 0.58 M275.65 70.01 C294.98 47.31, 315.69 23.4, 336 0.58 M280.63 70.37 C302 47.05, 325.67 18.67, 340.99 0.94 M280.63 70.37 C301.18 46.94, 321.08 25.52, 340.99 0.94 M286.28 69.98 C299.53 55.74, 315.28 39.16, 346.63 0.55 M286.28 69.98 C305.32 49.74, 322.1 27.64, 346.63 0.55 M291.26 70.34 C306.21 50.53, 322.08 33.79, 351.62 0.91 M291.26 70.34 C304.22 54.98, 316.03 40.46, 351.62 0.91 M296.91 69.95 C321.09 43.29, 343.45 18.36, 356.61 1.27 M296.91 69.95 C310.56 55.04, 323.71 39.91, 356.61 1.27 M301.89 70.31 C316.48 53.67, 333.22 36.1, 362.25 0.87 M301.89 70.31 C322.39 48.37, 341.55 24.73, 362.25 0.87 M307.54 69.91 C327.51 46.74, 347.09 22.76, 367.24 1.23 M307.54 69.91 C323.28 51.74, 339.74 31.37, 367.24 1.23 M312.52 70.27 C333.7 46.1, 359.44 17.54, 372.88 0.84 M312.52 70.27 C329.19 51.91, 345.65 30.97, 372.88 0.84 M318.17 69.88 C331.41 57.65, 342.74 41.15, 377.87 1.2 M318.17 69.88 C335.84 50.03, 353.9 29.28, 377.87 1.2 M323.15 70.24 C336.98 53.92, 354.04 35.74, 383.51 0.8 M323.15 70.24 C341.93 47.95, 360.53 27.46, 383.51 0.8 M328.8 69.84 C346.24 49.25, 365.73 24.1, 388.5 1.16 M328.8 69.84 C344.59 51.79, 361.17 31.79, 388.5 1.16 M333.78 70.2 C356.89 44.82, 374.89 20.98, 394.14 0.77 M333.78 70.2 C355.37 44.45, 375.92 20.65, 394.14 0.77 M339.43 69.81 C360.31 44.14, 382.3 21.71, 399.13 1.13 M339.43 69.81 C355.36 51.63, 371.15 34.14, 399.13 1.13 M344.41 70.17 C363.16 47.93, 385.57 21.99, 404.77 0.73 M344.41 70.17 C365.59 46.14, 386.97 21.52, 404.77 0.73 M350.06 69.77 C370.44 45.82, 392.88 23.47, 409.76 1.09 M350.06 69.77 C366.57 50.21, 385.22 30.75, 409.76 1.09 M355.04 70.13 C375.4 48.57, 392.58 26.48, 415.4 0.7 M355.04 70.13 C376.58 45.6, 398.99 19.7, 415.4 0.7 M360.03 70.49 C378.29 51.69, 394.86 29.51, 420.39 1.06 M360.03 70.49 C372.3 55.68, 385.75 41.45, 420.39 1.06 M365.67 70.1 C386.25 44.33, 410.24 19.93, 426.03 0.67 M365.67 70.1 C380.14 51.67, 397.17 34.69, 426.03 0.67 M370.66 70.46 C394.28 43.27, 415.6 16.96, 431.02 1.03 M370.66 70.46 C386.07 50.88, 403.2 32.9, 431.02 1.03 M376.3 70.06 C397.86 44.26, 423.2 15.71, 436.66 0.63 M376.3 70.06 C390.74 54.76, 403.62 38.46, 436.66 0.63 M381.29 70.42 C399.44 48.44, 417.44 29.26, 441.65 0.99 M381.29 70.42 C405.41 43.96, 427.7 16.45, 441.65 0.99 M386.93 70.03 C408.14 45.67, 426.71 24.95, 447.29 0.6 M386.93 70.03 C401.22 52.74, 416.95 36.12, 447.29 0.6 M391.92 70.39 C403.81 55.5, 417.51 40.77, 452.28 0.96 M391.92 70.39 C405.43 57.69, 415.79 43.36, 452.28 0.96 M397.57 70 C415.11 48.21, 436.82 26, 457.27 1.32 M397.57 70 C411.57 53.4, 424.85 37.48, 457.27 1.32 M402.55 70.36 C421.69 48.72, 441.07 24.95, 462.91 0.92 M402.55 70.36 C415.66 53.96, 431.92 36.76, 462.91 0.92 M408.2 69.96 C429.07 48.16, 445.29 24.56, 467.9 1.28 M408.2 69.96 C425.37 48.91, 443.27 30.19, 467.9 1.28 M413.18 70.32 C429.02 51.2, 444.64 33.69, 473.54 0.89 M413.18 70.32 C436.77 44.02, 458.62 18, 473.54 0.89 M418.83 69.93 C435.95 47.26, 455.74 27, 478.53 1.25 M418.83 69.93 C435.05 53.46, 448.76 36.78, 478.53 1.25 M423.81 70.29 C439.36 54.58, 454.43 34.82, 484.17 0.85 M423.81 70.29 C445.49 45.29, 469.57 18.77, 484.17 0.85 M429.46 69.89 C441.66 51.71, 458.81 37.4, 489.16 1.21 M429.46 69.89 C451.62 45.16, 470.61 21.81, 489.16 1.21 M434.44 70.25 C448.04 56.36, 460.13 37.87, 494.8 0.82 M434.44 70.25 C452.5 47.89, 471.68 26.87, 494.8 0.82 M440.09 69.86 C461.62 44.74, 479.45 21.73, 499.79 1.18 M440.09 69.86 C459.33 48.81, 479.7 26.65, 499.79 1.18 M445.07 70.22 C463.87 48.78, 476.87 30.22, 505.43 0.78 M445.07 70.22 C466.77 45.05, 489.35 19.5, 505.43 0.78 M450.72 69.82 C475.01 41.32, 497.32 14.66, 510.42 1.14 M450.72 69.82 C470.36 47, 490.84 22.69, 510.42 1.14 M455.7 70.18 C476.2 48.71, 494.05 23.79, 516.06 0.75 M455.7 70.18 C471.71 52.62, 486.4 35.47, 516.06 0.75 M460.69 70.54 C475.59 51.8, 491.66 32.61, 521.05 1.11 M460.69 70.54 C476.86 52.62, 493.22 33.82, 521.05 1.11 M466.33 70.15 C490.51 44.99, 513.08 17.55, 526.69 0.72 M466.33 70.15 C489.7 44.71, 513.02 18.44, 526.69 0.72 M471.32 70.51 C492.75 46.61, 515.56 20.9, 531.68 1.08 M471.32 70.51 C493.01 44.95, 515.69 19.07, 531.68 1.08 M476.96 70.11 C493.99 48.67, 510.9 28.58, 537.32 0.68 M476.96 70.11 C493.4 51.43, 508.53 32.85, 537.32 0.68 M481.95 70.47 C500.01 46.24, 519.64 24.05, 542.31 1.04 M481.95 70.47 C498 52.14, 512.65 35.92, 542.31 1.04 M487.59 70.08 C508.91 44.19, 531.51 18.66, 547.95 0.65 M487.59 70.08 C509.45 46.07, 529.69 21.02, 547.95 0.65 M492.58 70.44 C508.59 51.62, 522.95 37.03, 552.94 1.01 M492.58 70.44 C512.23 49.49, 529.95 27.45, 552.94 1.01 M498.22 70.04 C513.67 52.05, 524.47 39.39, 557.92 1.37 M498.22 70.04 C519.65 43.1, 543.13 17.63, 557.92 1.37 M503.21 70.41 C516.55 56.83, 528.21 38.54, 563.57 0.97 M503.21 70.41 C520.35 52.85, 535.62 33.65, 563.57 0.97 M508.85 70.01 C525.93 47.1, 547.2 27.78, 568.55 1.33 M508.85 70.01 C531.69 44.17, 555.33 16.05, 568.55 1.33 M513.84 70.37 C531.1 49.83, 550.16 26.64, 574.2 0.94 M513.84 70.37 C527.83 55.12, 540.8 39.5, 574.2 0.94 M519.48 69.98 C536.93 48.41, 555.92 26.96, 579.18 1.3 M519.48 69.98 C540.99 45.81, 562.92 20.6, 579.18 1.3 M524.47 70.34 C539.52 55.54, 552.28 38.67, 584.83 0.9 M524.47 70.34 C539.87 52.91, 554.45 36.38, 584.83 0.9 M530.11 69.94 C544.7 55.9, 557.67 38.06, 589.81 1.26 M530.11 69.94 C552.03 44.26, 574.99 19.31, 589.81 1.26 M535.1 70.3 C555.68 45.87, 575.77 26.8, 595.46 0.87 M535.1 70.3 C556.29 46.83, 578.39 21.41, 595.46 0.87 M540.74 69.91 C557.11 51.66, 575.09 32.71, 600.44 1.23 M540.74 69.91 C553.97 54.71, 566.51 40.11, 600.44 1.23 M545.73 70.27 C566.85 48.77, 583.79 27.46, 606.09 0.83 M545.73 70.27 C565.18 49.88, 582.68 28.69, 606.09 0.83 M551.37 69.87 C563.57 52.68, 576.36 37.76, 611.07 1.19 M551.37 69.87 C573.89 44.3, 595.35 17.99, 611.07 1.19 M556.36 70.23 C578.83 46.29, 601.05 20.89, 616.72 0.8 M556.36 70.23 C572.84 52.89, 587.94 34.1, 616.72 0.8 M561.35 70.59 C585.5 43.11, 607.59 15.8, 621.7 1.16 M561.35 70.59 C578.05 51.41, 594.18 32.82, 621.7 1.16 M566.99 70.2 C580.22 53.81, 591.81 38.99, 627.35 0.76 M566.99 70.2 C586.63 48, 605.97 25.52, 627.35 0.76 M571.98 70.56 C585.81 54.6, 599.6 41.72, 632.33 1.12 M571.98 70.56 C585.82 55.46, 597.13 41.57, 632.33 1.12 M577.62 70.16 C591.51 52.94, 607.2 35.74, 637.98 0.73 M577.62 70.16 C599.15 44.45, 621.87 19.54, 637.98 0.73 M582.61 70.52 C593.36 54.24, 607.81 42.02, 642.96 1.09 M582.61 70.52 C598.1 52.7, 613.74 36.14, 642.96 1.09 M588.25 70.13 C608.08 47.7, 625.95 27.7, 648.61 0.7 M588.25 70.13 C612.74 43.68, 634.72 15.78, 648.61 0.7 M593.24 70.49 C612.06 45.83, 634.19 24.78, 653.6 1.06 M593.24 70.49 C612.26 48.72, 630.91 28.24, 653.6 1.06 M598.88 70.09 C620.61 45.58, 640.74 22.82, 658.58 1.42 M598.88 70.09 C622.8 42.26, 646.52 15, 658.58 1.42 M603.87 70.45 C614.31 54.97, 626.74 41.85, 663.57 1.78 M603.87 70.45 C620.69 52.94, 635.51 34.8, 663.57 1.78 M609.51 70.06 C623.21 57.1, 632.8 40.09, 667.24 3.65 M609.51 70.06 C628.12 48.2, 647.01 27.88, 667.24 3.65 M614.5 70.42 C634.75 46.79, 655.36 24.83, 671.57 4.76 M614.5 70.42 C627.31 55.75, 641.1 38.22, 671.57 4.76 M620.14 70.03 C636.28 50.7, 655.29 29.96, 673.28 8.89 M620.14 70.03 C635.1 53.24, 651.48 34.96, 673.28 8.89 M625.13 70.39 C637.6 55.97, 654.13 36.92, 676.3 11.52 M625.13 70.39 C642.14 49.34, 661.34 29.23, 676.3 11.52 M630.77 69.99 C647.5 52.65, 662.74 32.97, 676.04 17.92 M630.77 69.99 C645.19 52.84, 661.53 34.25, 676.04 17.92 M635.76 70.35 C646.45 59.57, 655.79 46.15, 676.43 23.56 M635.76 70.35 C650.38 52.71, 665.91 37.34, 676.43 23.56 M641.4 69.96 C653.62 57.74, 666.38 43.22, 676.17 29.96 M641.4 69.96 C653.93 57.11, 665.56 42.97, 676.17 29.96 M646.39 70.32 C655.27 60.87, 664.29 47.75, 676.57 35.6 M646.39 70.32 C657.41 56.19, 670.25 42.46, 676.57 35.6 M652.03 69.92 C661.53 60.2, 670.06 47.51, 676.31 42 M652.03 69.92 C657.73 63.03, 663.45 57.24, 676.31 42 M658.33 68.77 C660.61 63.37, 665.18 59.6, 676.7 47.64 M658.33 68.77 C662.68 64.69, 666.23 58.75, 676.7 47.64 M665.29 66.87 C669.18 64.16, 672.05 57.7, 675.13 55.55 M665.29 66.87 C667.16 63.97, 669.43 61.07, 675.13 55.55" stroke="#ffec99" stroke-width="0.5" fill="none"></path><path d="M16.92 0 M16.92 0 C146.06 -2.21, 276.69 -1.62, 657.58 0 M16.92 0 C269.68 1.93, 522.08 1.96, 657.58 0 M657.58 0 C666.88 2, 674.93 6.04, 674.5 16.92 M657.58 0 C669.95 -0.61, 674.73 7.9, 674.5 16.92 M674.5 16.92 C675.3 30.9, 674.16 43.45, 674.5 50.76 M674.5 16.92 C674.13 27.09, 673.29 38.19, 674.5 50.76 M674.5 50.76 C675.19 63.82, 669.86 66.1, 657.58 67.68 M674.5 50.76 C676.78 60.9, 670.92 67.27, 657.58 67.68 M657.58 67.68 C428.68 69.2, 197.76 68.34, 16.92 67.68 M657.58 67.68 C500.44 69.24, 343.87 69.38, 16.92 67.68 M16.92 67.68 C6.07 66.68, -1.16 61.48, 0 50.76 M16.92 67.68 C6.5 68.97, 2.01 62.68, 0 50.76 M0 50.76 C0.9 37.34, 1.82 24.87, 0 16.92 M0 50.76 C0.63 38.22, -0.57 24.55, 0 16.92 M0 16.92 C-1.04 5.21, 6.65 -1.9, 16.92 0 M0 16.92 C-1.22 6.67, 5.34 2.21, 16.92 0" stroke="#1e1e1e" stroke-width="1" fill="none"></path></g><g transform="translate(462.40936279296875 447.689453125) rotate(0 61.86993408203125 12.5)"><text x="61.86993408203125" y="0" font-family="Virgil, Segoe UI Emoji" font-size="20px" fill="#1e1e1e" text-anchor="middle" style="white-space: pre;" direction="ltr" dominant-baseline="text-before-edge">Observability</text></g><g stroke-linecap="round" transform="translate(364.341796875 53.20703125) rotate(0 159.9375 32.08984375)"><path d="M4.27 3.71 C4.27 3.71, 4.27 3.71, 4.27 3.71 M4.27 3.71 C4.27 3.71, 4.27 3.71, 4.27 3.71 M3.35 10.87 C4.99 8.05, 7.02 4.85, 10.57 2.56 M3.35 10.87 C5.83 7.63, 8.37 5.3, 10.57 2.56 M2.44 18.02 C7.14 14.95, 7.98 10.42, 17.53 0.66 M2.44 18.02 C6.54 11.78, 13.02 6.43, 17.53 0.66 M2.83 23.66 C9.7 14.98, 16.39 6.67, 22.51 1.02 M2.83 23.66 C8.94 16.26, 14.91 9.05, 22.51 1.02 M2.57 30.06 C9.6 24.03, 16.52 13.98, 27.5 1.38 M2.57 30.06 C8.51 22.94, 15.61 15.53, 27.5 1.38 M2.96 35.7 C10.13 29.51, 17.03 21.85, 33.14 0.98 M2.96 35.7 C12.12 25.8, 21.19 13.77, 33.14 0.98 M2.7 42.1 C14.2 32.05, 20.42 20.22, 38.13 1.34 M2.7 42.1 C14.71 27.71, 27.15 13.51, 38.13 1.34 M3.1 47.74 C13.92 33.15, 22.92 21.44, 43.77 0.95 M3.1 47.74 C15.09 34.4, 26.72 21.24, 43.77 0.95 M1.52 55.65 C12.97 43.33, 28.53 26.7, 48.76 1.31 M1.52 55.65 C19.06 36.27, 35.63 15.93, 48.76 1.31 M3.89 59.03 C14.45 44.12, 27.19 31.42, 54.4 0.92 M3.89 59.03 C18.99 42.02, 32.54 26.08, 54.4 0.92 M6.25 62.41 C19.48 45.91, 32.04 34.57, 59.39 1.28 M6.25 62.41 C17.65 49.32, 29.93 35.21, 59.39 1.28 M9.92 64.28 C32.75 39.85, 52.26 16.25, 65.03 0.88 M9.92 64.28 C21.14 50.71, 33.62 38.69, 65.03 0.88 M14.25 65.39 C36.5 41.22, 58.81 16.73, 70.02 1.24 M14.25 65.39 C32.4 43.17, 52.64 20.3, 70.02 1.24 M19.24 65.75 C36.46 48.41, 51.6 32.13, 75.66 0.85 M19.24 65.75 C31.5 52.33, 42.97 39.22, 75.66 0.85 M24.88 65.36 C35.41 53.79, 47.89 40.34, 80.65 1.21 M24.88 65.36 C38.13 49.72, 50.49 34.06, 80.65 1.21 M29.87 65.72 C52.85 42.19, 71.88 14.04, 86.29 0.81 M29.87 65.72 C45.95 48.28, 63.14 29.21, 86.29 0.81 M35.51 65.32 C47.39 49.26, 59.92 35.41, 91.28 1.17 M35.51 65.32 C56.07 42.96, 74.93 21.16, 91.28 1.17 M40.5 65.68 C56.83 49.13, 72.27 27.53, 96.92 0.78 M40.5 65.68 C61.85 41.5, 82 18.74, 96.92 0.78 M46.14 65.29 C60.59 49.19, 74.62 31.51, 101.91 1.14 M46.14 65.29 C57.73 52.85, 68.25 39.72, 101.91 1.14 M51.13 65.65 C70.42 45.04, 86.68 23.97, 107.55 0.74 M51.13 65.65 C68.88 44.28, 87.61 23.34, 107.55 0.74 M56.77 65.25 C78.97 38.73, 100.46 15.15, 112.54 1.1 M56.77 65.25 C72.92 47.17, 88.09 28.5, 112.54 1.1 M61.76 65.61 C77.74 47.31, 89.68 30.32, 117.53 1.46 M61.76 65.61 C74.58 51.96, 85.49 39.04, 117.53 1.46 M67.4 65.22 C87.61 41.3, 108.1 16.41, 123.17 1.07 M67.4 65.22 C86.98 44.32, 105.94 20.79, 123.17 1.07 M72.39 65.58 C87.05 48.6, 102.03 27.61, 128.16 1.43 M72.39 65.58 C86.85 49.61, 101.32 31.99, 128.16 1.43 M77.38 65.94 C98.14 40.74, 119.05 17.95, 133.8 1.03 M77.38 65.94 C91.87 49.25, 106.55 32.41, 133.8 1.03 M83.02 65.54 C106.86 38.25, 129.52 14, 138.79 1.39 M83.02 65.54 C93.43 52.74, 104.24 39.32, 138.79 1.39 M88.01 65.91 C101.78 48.02, 118.71 27.81, 144.43 1 M88.01 65.91 C100.02 50.86, 112.62 37.55, 144.43 1 M93.65 65.51 C106.13 51.11, 115.28 39.88, 149.42 1.36 M93.65 65.51 C106.41 51.89, 118.36 39.11, 149.42 1.36 M98.64 65.87 C111.18 52.77, 123.68 36.99, 155.06 0.97 M98.64 65.87 C118.65 44.38, 137.67 20.9, 155.06 0.97 M104.28 65.48 C122.9 46.06, 139.86 22.41, 160.05 1.33 M104.28 65.48 C124.24 42.74, 142.68 20.8, 160.05 1.33 M109.27 65.84 C130.98 42.92, 149.78 18.64, 165.69 0.93 M109.27 65.84 C121.59 51.61, 134.68 37.5, 165.69 0.93 M114.91 65.44 C128.12 50.58, 140.82 37.64, 170.68 1.29 M114.91 65.44 C131.46 46.73, 148.09 29.02, 170.68 1.29 M119.9 65.8 C131.88 51.89, 143.49 37.44, 176.32 0.9 M119.9 65.8 C143.04 40.79, 164.72 16.96, 176.32 0.9 M125.54 65.41 C144.53 45.77, 163.83 22, 181.31 1.26 M125.54 65.41 C138.24 49.72, 151.11 34.57, 181.31 1.26 M130.53 65.77 C147.29 47.58, 161.9 27.22, 186.95 0.86 M130.53 65.77 C143.54 49.69, 158.42 32.86, 186.95 0.86 M136.17 65.37 C154.12 45.43, 172.17 25.21, 191.94 1.22 M136.17 65.37 C157.49 40.97, 179.11 17.45, 191.94 1.22 M141.16 65.73 C158.14 45.65, 178.27 23.59, 197.58 0.83 M141.16 65.73 C153.28 52.79, 163.8 39.57, 197.58 0.83 M146.8 65.34 C159.91 47.05, 177.07 29.92, 202.57 1.19 M146.8 65.34 C158.66 49.83, 173.09 36.44, 202.57 1.19 M151.79 65.7 C163.36 51.07, 179.11 35.24, 207.55 1.55 M151.79 65.7 C166.46 50.33, 181.08 33.98, 207.55 1.55 M157.43 65.3 C171.32 49.25, 187.14 33.25, 213.2 1.15 M157.43 65.3 C175.56 43.8, 194.24 24.1, 213.2 1.15 M162.42 65.66 C178.87 48.43, 192.77 30.11, 218.18 1.51 M162.42 65.66 C183.75 39.47, 206.65 14.43, 218.18 1.51 M167.41 66.02 C180.88 50.08, 195.67 35.24, 223.83 1.12 M167.41 66.02 C182.5 48.49, 198.42 28.46, 223.83 1.12 M173.05 65.63 C189.96 47.94, 202.12 28.74, 228.81 1.48 M173.05 65.63 C187.6 47.61, 202.91 30.19, 228.81 1.48 M178.04 65.99 C193.63 47.93, 210.17 29.26, 234.46 1.08 M178.04 65.99 C197.87 42.09, 218.56 19.99, 234.46 1.08 M183.68 65.59 C199.17 50.09, 212.49 34.92, 239.44 1.44 M183.68 65.59 C202.01 44.62, 219.87 24.53, 239.44 1.44 M188.67 65.95 C209.96 39.99, 231.36 18.74, 245.09 1.05 M188.67 65.95 C206.32 47.42, 222.51 27.26, 245.09 1.05 M194.31 65.56 C209.95 44.43, 229.45 25.24, 250.08 1.41 M194.31 65.56 C204.95 52.77, 217.81 39.04, 250.08 1.41 M199.3 65.92 C212.53 49.74, 225.75 35.89, 255.72 1.02 M199.3 65.92 C215.51 48.01, 229.58 31.61, 255.72 1.02 M204.94 65.53 C218.63 48.4, 230.95 35.92, 260.71 1.38 M204.94 65.53 C225.11 43.2, 243.65 19.83, 260.71 1.38 M209.93 65.89 C223.37 47.01, 237.66 31.15, 266.35 0.98 M209.93 65.89 C231.11 41.25, 251.56 18.51, 266.35 0.98 M215.57 65.49 C231.44 49.77, 246.48 31.48, 271.34 1.34 M215.57 65.49 C230.56 48.49, 244.82 31.22, 271.34 1.34 M220.56 65.85 C240.33 42.56, 263.66 15.22, 276.98 0.95 M220.56 65.85 C236.19 49.93, 249.2 32.6, 276.98 0.95 M226.2 65.46 C243.53 47.03, 257.95 31, 281.97 1.31 M226.2 65.46 C247.92 39.67, 270.42 14.84, 281.97 1.31 M231.19 65.82 C244.05 52.17, 261.14 32.59, 287.61 0.91 M231.19 65.82 C250.37 41.66, 271.4 19.67, 287.61 0.91 M236.83 65.42 C252.19 48.9, 264.76 31.42, 292.6 1.27 M236.83 65.42 C251.39 48.57, 266.22 31.86, 292.6 1.27 M241.82 65.78 C254.81 49.67, 267.1 39.42, 297.58 1.63 M241.82 65.78 C257.25 49.57, 271.86 30.99, 297.58 1.63 M247.46 65.39 C259.35 52.08, 268.74 39.78, 303.23 1.24 M247.46 65.39 C266.13 42.6, 286.05 19.86, 303.23 1.24 M252.45 65.75 C270.83 44.66, 291.12 19.73, 308.87 0.84 M252.45 65.75 C270.96 44.84, 287.11 25.37, 308.87 0.84 M257.43 66.11 C269.58 52.4, 285.56 34.11, 312.54 2.71 M257.43 66.11 C278.53 41.94, 301.02 17.42, 312.54 2.71 M263.08 65.71 C275.22 48.45, 290.34 36.55, 316.22 4.58 M263.08 65.71 C275.95 51.06, 286.49 38.88, 316.22 4.58 M268.06 66.07 C284.67 50.47, 297.76 29.24, 318.58 7.96 M268.06 66.07 C282.24 49.92, 297.51 32.95, 318.58 7.96 M273.71 65.68 C284.34 53.05, 291.66 43.12, 320.94 11.34 M273.71 65.68 C285.48 53.07, 295.86 38.55, 320.94 11.34 M278.69 66.04 C288.38 54.06, 300.51 44.94, 321.34 16.98 M278.69 66.04 C295.96 47.8, 311.35 26.65, 321.34 16.98 M284.34 65.64 C293.12 55.32, 302.02 46.45, 321.73 22.63 M284.34 65.64 C292.75 56, 300.6 45.38, 321.73 22.63 M289.32 66 C299.45 54.07, 308.58 44.45, 321.47 29.02 M289.32 66 C297.99 57.44, 305.73 47.52, 321.47 29.02 M294.97 65.61 C301.69 57.7, 309.48 47.97, 321.87 34.67 M294.97 65.61 C304.37 54.52, 313.35 43.99, 321.87 34.67 M299.95 65.97 C305.01 60.56, 309.88 56.5, 321.6 41.06 M299.95 65.97 C304.96 61.01, 310.04 55.31, 321.6 41.06 M305.6 65.58 C311.84 59.16, 318.66 53.8, 322 46.71 M305.6 65.58 C312.41 58.79, 317.8 52.88, 322 46.71 M311.9 64.43 C314.49 61.28, 316.75 59.25, 321.74 53.11 M311.9 64.43 C314.64 61.52, 316.44 58.47, 321.74 53.11" stroke="#ffec99" stroke-width="0.5" fill="none"></path><path d="M16.04 0 M16.04 0 C80.71 -0.33, 143.96 -2.15, 303.83 0 M16.04 0 C124.58 -0.43, 232.33 -0.49, 303.83 0 M303.83 0 C313.73 -0.96, 318.29 6.22, 319.88 16.04 M303.83 0 C315.23 -1.34, 319.3 6.91, 319.88 16.04 M319.88 16.04 C318.99 28.78, 318.58 41.94, 319.88 48.13 M319.88 16.04 C320.15 27.91, 319.41 38.16, 319.88 48.13 M319.88 48.13 C318.86 57.08, 315 64.54, 303.83 64.18 M319.88 48.13 C318.3 58.47, 316.07 64.52, 303.83 64.18 M303.83 64.18 C230.11 63.57, 155.6 63.89, 16.04 64.18 M303.83 64.18 C244.41 64.68, 186.84 65.93, 16.04 64.18 M16.04 64.18 C5.44 66.17, -1.98 57.78, 0 48.13 M16.04 64.18 C5.44 63.78, -1.91 59.87, 0 48.13 M0 48.13 C-0.94 37.7, -0.74 31.28, 0 16.04 M0 48.13 C-0.21 39.37, -0.25 29.54, 0 16.04 M0 16.04 C1.67 3.76, 4.04 1.34, 16.04 0 M0 16.04 C0.55 7.32, 4.35 0.13, 16.04 0" stroke="#1e1e1e" stroke-width="1" fill="none"></path></g><g transform="translate(478.1193313598633 72.796875) rotate(0 46.15996551513672 12.5)"><text x="46.15996551513672" y="0" font-family="Virgil, Segoe UI Emoji" font-size="20px" fill="#1e1e1e" text-anchor="middle" style="white-space: pre;" direction="ltr" dominant-baseline="text-before-edge">RabbitMQ</text></g><g stroke-linecap="round" transform="translate(10 237.193359375) rotate(0 31.224609375 28.892578125)"><path d="M10.69 7.97 C10.69 7.97, 10.69 7.97, 10.69 7.97 M10.69 7.97 C10.69 7.97, 10.69 7.97, 10.69 7.97 M2.67 23.68 C8.09 15.37, 13.65 8.42, 21.34 2.95 M1.65 24.22 C8.94 16.05, 15.41 9.08, 19.11 4.17 M2.85 29.43 C10 22.33, 16.54 10.51, 26.26 -0.4 M3.19 29.29 C10 20.3, 19.49 9.79, 27.09 1.21 M1.94 33.69 C8.89 28.28, 15.28 21.32, 33 -0.02 M2.76 35.07 C12.2 25.29, 20.4 14.64, 32.73 0.89 M4.93 40.81 C18.9 23.92, 31.3 10.77, 33.95 4.83 M5.23 39.08 C15.16 26.54, 27.86 12.45, 35.91 3.84 M3.7 45.38 C13.28 33.03, 25.83 24.3, 40.38 6.32 M4.94 45.69 C17.92 30.24, 30.53 15.32, 39.53 3.69 M7.06 46.38 C21.7 33.62, 36.49 15.65, 45.29 6.24 M8.07 46.47 C21.47 30.62, 36.91 15.06, 43.6 6.49 M11.17 51.71 C22.18 37.91, 31.76 25.67, 50.15 5.93 M12.28 49.97 C23.71 36.57, 34.62 22.66, 48.3 6.84 M12.72 52.03 C25.64 42.27, 33.38 30.76, 53.71 10.21 M14.23 51.73 C23.05 40.84, 33.13 31.87, 52.08 9.05 M18.56 52.99 C28.93 43.17, 35.95 32.93, 54.88 10.31 M18.45 55.77 C32.83 39.02, 46.94 22.49, 54.79 12.31 M19.83 57.88 C31.28 48.6, 38.48 38.69, 56.1 16.33 M21.76 57.49 C31.49 46.34, 40.53 33.58, 56.35 16.32 M24.08 60.89 C33.14 50.51, 40.41 41.91, 61.58 16.91 M24.7 60.05 C33.15 50.4, 40.68 39.83, 59.25 19.21 M30.74 59.72 C41.44 45.88, 51.58 36.36, 62.05 23.15 M29.21 59.29 C38.04 49.53, 47 40.68, 62.65 22.7 M34.69 58.58 C42.7 51.99, 46.31 43.94, 64.3 24.1 M35.57 59.89 C44.35 50.04, 52.81 40.06, 64.09 23.74 M42.28 59.6 C46.54 51.25, 53.38 44.77, 63.36 32.45 M40.65 59.04 C49.63 49.11, 58.02 40.31, 63.05 33.5" stroke="#a5d8ff" stroke-width="0.5" fill="none"></path><path d="M29.73 -0.26 C36.1 -0.63, 45.47 2.86, 50.96 6.79 C56.45 10.72, 61.23 17.33, 62.68 23.33 C64.12 29.33, 62.88 37.31, 59.63 42.8 C56.38 48.28, 49.56 53.81, 43.18 56.22 C36.79 58.64, 27.7 59.16, 21.33 57.26 C14.96 55.37, 8.54 50.38, 4.98 44.87 C1.41 39.35, -1.07 30.38, -0.07 24.18 C0.92 17.98, 5.22 11.72, 10.96 7.65 C16.7 3.58, 29.69 0.81, 34.37 -0.23 C39.06 -1.26, 38.93 1.05, 39.06 1.44 M24.49 -0.05 C30.22 -1.88, 37.27 0.28, 43.19 2.91 C49.12 5.54, 57.09 10.34, 60.05 15.73 C63.01 21.11, 62.88 28.85, 60.95 35.22 C59.02 41.59, 53.63 50.38, 48.47 53.95 C43.32 57.53, 36.38 57.26, 30 56.67 C23.62 56.07, 15.01 54.73, 10.2 50.39 C5.4 46.06, 2.15 37.02, 1.2 30.67 C0.25 24.33, 0.75 17.5, 4.49 12.31 C8.22 7.11, 20.29 1.36, 23.63 -0.48 C26.96 -2.32, 24.47 0.43, 24.49 1.27" stroke="#1e1e1e" stroke-width="1" fill="none"></path></g><g transform="translate(18.464706420898438 201.27734375) rotate(0 22.339981079101562 12.5)"><text x="22.339981079101562" y="0" font-family="Virgil, Segoe UI Emoji" font-size="20px" fill="#1e1e1e" text-anchor="middle" style="white-space: pre;" direction="ltr" dominant-baseline="text-before-edge">User</text></g><g stroke-linecap="round"><g transform="translate(77.2306889274538 265.9628598228308) rotate(0 190.63366364900463 0.12307767716916374)"><path d="M1.08 -0.64 C64.58 -0.61, 317.95 0.5, 381.08 0.56 M0.19 1.63 C63.56 1.26, 316.69 -1.24, 380.39 -1.39" stroke="#1e1e1e" stroke-width="1" fill="none"></path></g><g transform="translate(77.2306889274538 265.9628598228308) rotate(0 190.63366364900463 0.12307767716916374)"><path d="M351.2 9.87 C361.45 4.37, 368.7 3.83, 379.51 -1 M352.92 8.67 C360.04 5.5, 365.82 4.17, 379.75 -2.16" stroke="#1e1e1e" stroke-width="1" fill="none"></path></g><g transform="translate(77.2306889274538 265.9628598228308) rotate(0 190.63366364900463 0.12307767716916374)"><path d="M351.06 -10.65 C361.42 -9.84, 368.71 -4.05, 379.51 -1 M352.79 -11.85 C359.99 -9.79, 365.8 -5.88, 379.75 -2.16" stroke="#1e1e1e" stroke-width="1" fill="none"></path></g></g><mask></mask><g stroke-linecap="round"><g transform="translate(524.9472010101781 339.548594501664) rotate(0 -1.066790520304437 42.05669075367365)"><path d="M0.51 -0.96 C0.1 12.78, -1.46 69.64, -1.97 83.6 M-0.69 1.14 C-1.25 15.59, -2.2 71.33, -2.64 85.08" stroke="#1e1e1e" stroke-width="1" fill="none"></path></g><g transform="translate(524.9472010101781 339.548594501664) rotate(0 -1.066790520304437 42.05669075367365)"><path d="M-13.83 57.53 C-8.86 66.21, -6.93 77.47, -3.03 84.21 M-11.35 56.35 C-9.41 63.1, -6.81 71.6, -3.51 85.94" stroke="#1e1e1e" stroke-width="1" fill="none"></path></g><g transform="translate(524.9472010101781 339.548594501664) rotate(0 -1.066790520304437 42.05669075367365)"><path d="M6.68 58.02 C4.65 66.62, -0.42 77.72, -3.03 84.21 M9.17 56.83 C6 63.3, 3.49 71.68, -3.51 85.94" stroke="#1e1e1e" stroke-width="1" fill="none"></path></g></g><mask></mask><g stroke-linecap="round"><g transform="translate(524.9431578657325 196) rotate(0 -0.6638609907325304 -37.41279678583146)"><path d="M0.24 0.66 C0.17 -11.52, -0.16 -61.38, -0.35 -73.69 M-1.09 -0.03 C-1.34 -12.51, -1.84 -63, -1.39 -75.49" stroke="#1e1e1e" stroke-width="1" fill="none"></path></g><g transform="translate(524.9431578657325 196) rotate(0 -0.6638609907325304 -37.41279678583146)"><path d="M9.72 -47.5 C6.72 -57.07, 4.48 -65.77, 0.35 -76.91 M7.97 -47.83 C5.72 -55.64, 2.29 -62.97, -1.95 -74.76" stroke="#1e1e1e" stroke-width="1" fill="none"></path></g><g transform="translate(524.9431578657325 196) rotate(0 -0.6638609907325304 -37.41279678583146)"><path d="M-10.8 -47.68 C-7.55 -57.24, -3.52 -65.88, 0.35 -76.91 M-12.56 -48.01 C-9.09 -55.6, -6.82 -62.88, -1.95 -74.76" stroke="#1e1e1e" stroke-width="1" fill="none"></path></g></g><mask></mask><g transform="translate(210.6978530883789 242.11328125) rotate(0 45.809959411621094 12.5)"><text x="45.809959411621094" y="0" font-family="Virgil, Segoe UI Emoji" font-size="20px" fill="#1e1e1e" text-anchor="middle" style="white-space: pre;" direction="ltr" dominant-baseline="text-before-edge">Rest-Call</text></g><g transform="translate(533.4684906005859 155.10546875) rotate(0 63.17994689941406 12.5)"><text x="63.17994689941406" y="0" font-family="Virgil, Segoe UI Emoji" font-size="20px" fill="#1e1e1e" text-anchor="middle" style="white-space: pre;" direction="ltr" dominant-baseline="text-before-edge">Consume API</text></g><g transform="translate(534.1971206665039 365.8671875) rotate(0 107.7599105834961 12.5)"><text x="107.7599105834961" y="0" font-family="Virgil, Segoe UI Emoji" font-size="20px" fill="#1e1e1e" text-anchor="middle" style="white-space: pre;" direction="ltr" dominant-baseline="text-before-edge">Logs, Metrics, Traces</text></g></svg>