<svg version="1.1" xmlns="http://www.w3.org/2000/svg" viewBox="0 0 1185.496122589361 831.8682584728381" width="1185.496122589361" height="831.8682584728381">
  <!-- svg-source:excalidraw -->
  
  <defs>
    <style class="style-fonts">
      @font-face {
        font-family: "Virgil";
        src: url("https://excalidraw.com/Virgil.woff2");
      }
      @font-face {
        font-family: "Cascadia";
        src: url("https://excalidraw.com/Cascadia.woff2");
      }
    </style>
    
  </defs>
  <g stroke-linecap="round" transform="translate(82.61120115345375 130.54383357097458) rotate(0 68.34741029654577 310.9152240298945)"><path d="M7.86 8.16 C7.86 8.16, 7.86 8.16, 7.86 8.16 M7.86 8.16 C7.86 8.16, 7.86 8.16, 7.86 8.16 M4.85 36.01 C12.24 24.38, 23.72 13.7, 34.37 2.05 M4.85 36.01 C15.64 24.21, 24.92 12.84, 34.37 2.05 M4.46 60.85 C22.37 38.79, 45.28 17.35, 55.63 1.98 M4.46 60.85 C22.27 40.96, 39.15 22.25, 55.63 1.98 M4.72 84.93 C34.3 53.93, 59.38 20.48, 76.89 1.91 M4.72 84.93 C28.75 55.23, 54.98 26.56, 76.89 1.91 M4.99 109.01 C42.09 66.18, 77.73 24.86, 98.15 1.85 M4.99 109.01 C30.51 78.16, 57.55 47.9, 98.15 1.85 M4.6 133.85 C39.32 90.72, 76.39 51.13, 118.76 2.53 M4.6 133.85 C33.91 101.22, 62.25 67.23, 118.76 2.53 M4.87 157.93 C42.3 117.85, 75.27 74.5, 132.14 11.52 M4.87 157.93 C43.32 113.71, 81.99 69.05, 132.14 11.52 M5.13 182.01 C39.97 140.91, 78.17 101.39, 139.63 27.3 M5.13 182.01 C49.74 130.18, 93.82 80.36, 139.63 27.3 M4.74 206.85 C45.83 158.76, 89.33 111.52, 139.24 52.14 M4.74 206.85 C53.03 151.93, 101.39 96.16, 139.24 52.14 M5.01 230.93 C37.21 196.02, 69.32 156.45, 139.5 76.22 M5.01 230.93 C44.79 183.16, 87.45 136.01, 139.5 76.22 M4.62 255.77 C52.33 196.44, 102.24 142.92, 139.77 100.3 M4.62 255.77 C42.8 211.74, 79.33 169.72, 139.77 100.3 M4.89 279.85 C38.65 240.06, 70.01 201.27, 139.38 125.13 M4.89 279.85 C41.11 238.13, 76.79 196.28, 139.38 125.13 M5.15 303.93 C38.49 267.14, 69.58 227.33, 139.64 149.22 M5.15 303.93 C45.27 256.81, 86.31 210.26, 139.64 149.22 M4.76 328.77 C56.73 269.46, 108.82 207.84, 139.91 173.3 M4.76 328.77 C50.43 276.22, 95.64 224.54, 139.91 173.3 M5.03 352.85 C59.01 291.49, 111.43 229.5, 139.52 198.13 M5.03 352.85 C53.84 296.23, 102.99 240.51, 139.52 198.13 M5.3 376.93 C48.84 324.62, 93.76 277.06, 139.79 222.22 M5.3 376.93 C55.12 320.48, 104.86 264.28, 139.79 222.22 M4.91 401.77 C56.07 343.15, 109.53 285.76, 140.05 246.3 M4.91 401.77 C55.24 341.92, 106.34 281.61, 140.05 246.3 M5.17 425.85 C58.14 363.16, 110.63 303.15, 139.66 271.13 M5.17 425.85 C42.05 385.42, 79.43 343.24, 139.66 271.13 M5.44 449.93 C33.69 419.59, 60.06 387.98, 139.93 295.22 M5.44 449.93 C55.06 389.71, 108.1 331.41, 139.93 295.22 M5.05 474.77 C49.46 421.97, 95.84 368.37, 139.54 320.05 M5.05 474.77 C47.16 426.02, 89.42 378.57, 139.54 320.05 M5.31 498.85 C60.02 438.9, 113 376.53, 139.81 344.13 M5.31 498.85 C57.55 439.91, 109.36 380.14, 139.81 344.13 M4.93 523.69 C53.5 466.82, 101.52 413.53, 140.07 368.22 M4.93 523.69 C58.74 462.59, 112.22 401.28, 140.07 368.22 M5.19 547.77 C45.28 498.05, 90.4 450.24, 139.68 393.05 M5.19 547.77 C46.86 503.2, 85.38 456, 139.68 393.05 M5.46 571.85 C35.72 538.15, 66.89 503.3, 139.95 417.13 M5.46 571.85 C54.93 515.33, 103.63 460.37, 139.95 417.13 M3.1 598.95 C38.9 561.31, 71.43 520.56, 140.22 441.22 M3.1 598.95 C34.42 562.38, 66.24 527.63, 140.22 441.22 M9.93 615.48 C41.93 581.33, 68.1 547.69, 139.83 466.05 M9.93 615.48 C49.96 571.85, 89.07 526.54, 139.83 466.05 M25.28 622.21 C57.42 581.15, 95.39 542.03, 140.09 490.13 M25.28 622.21 C69.2 570.38, 112.07 521.42, 140.09 490.13 M46.54 622.14 C81.71 581.49, 116.97 539.33, 139.7 514.97 M46.54 622.14 C70.33 595.21, 95.02 566.4, 139.7 514.97 M67.8 622.07 C94.54 593.89, 117.86 566.8, 139.97 539.05 M67.8 622.07 C93.09 593, 119.6 562.7, 139.97 539.05 M89.06 622 C104.04 606.64, 115.71 591.82, 140.24 563.13 M89.06 622 C105.69 603.46, 120.35 584.58, 140.24 563.13 M110.32 621.93 C118.42 612.75, 124.74 606.16, 137.88 590.23 M110.32 621.93 C117.49 614.82, 123.76 605.87, 137.88 590.23" stroke="#e9ecef" stroke-width="2" fill="none"></path><path d="M32 0 M32 0 C54.01 -1.05, 77.04 0.68, 104.69 0 M32 0 C54.39 1.16, 74.83 -0.06, 104.69 0 M104.69 0 C127.79 -1.24, 137.83 10.29, 136.69 32 M104.69 0 C124.77 -0.7, 134.72 11.5, 136.69 32 M136.69 32 C137.74 148.76, 137.42 265.4, 136.69 589.83 M136.69 32 C137.62 221.42, 138.26 410.4, 136.69 589.83 M136.69 589.83 C135.09 610.61, 124.52 623, 104.69 621.83 M136.69 589.83 C135.57 609.07, 124.7 619.83, 104.69 621.83 M104.69 621.83 C83.26 623.12, 63.24 620.02, 32 621.83 M104.69 621.83 C86.5 622.45, 68.52 620.83, 32 621.83 M32 621.83 C10.31 622.42, 0.69 610.63, 0 589.83 M32 621.83 C10.66 621.61, -1.84 612.54, 0 589.83 M0 589.83 C0.6 414.22, -0.77 237.78, 0 32 M0 589.83 C1.06 381.53, 1.02 173.38, 0 32 M0 32 C-1.35 10.02, 10.55 1.19, 32 0 M0 32 C0.52 10.68, 10.05 -0.09, 32 0" stroke="#1e1e1e" stroke-width="4" fill="none"></path></g><g transform="translate(106.5226296995113 388.9590576008691) rotate(0 44.43598175048828 52.5)"><text x="44.43598175048828" y="0" font-family="Virgil, Segoe UI Emoji" font-size="28px" fill="#1e1e1e" text-anchor="middle" style="white-space: pre;" direction="ltr" dominant-baseline="text-before-edge">web</text><text x="44.43598175048828" y="35" font-family="Virgil, Segoe UI Emoji" font-size="28px" fill="#1e1e1e" text-anchor="middle" style="white-space: pre;" direction="ltr" dominant-baseline="text-before-edge">frame-</text><text x="44.43598175048828" y="70" font-family="Virgil, Segoe UI Emoji" font-size="28px" fill="#1e1e1e" text-anchor="middle" style="white-space: pre;" direction="ltr" dominant-baseline="text-before-edge">work</text></g><g stroke-linecap="round" transform="translate(266.8545657539763 125.56853163974665) rotate(0 326.65415861221635 315.8905259611222)"><path d="M7.86 8.16 C7.86 8.16, 7.86 8.16, 7.86 8.16 M7.86 8.16 C7.86 8.16, 7.86 8.16, 7.86 8.16 M4.85 36.01 C15.09 26.35, 27.39 12.48, 34.37 2.05 M4.85 36.01 C11.7 26.67, 19.18 18.52, 34.37 2.05 M4.46 60.85 C24.99 39.24, 41.72 17.21, 55.63 1.98 M4.46 60.85 C19.54 44.69, 32.43 28.51, 55.63 1.98 M4.72 84.93 C20.31 66.01, 38.21 45.92, 76.89 1.91 M4.72 84.93 C22.31 63.36, 38.82 43.14, 76.89 1.91 M4.99 109.01 C26.79 83.88, 46.86 60.3, 98.15 1.85 M4.99 109.01 C32.7 77.64, 61.23 43.14, 98.15 1.85 M4.6 133.85 C50.72 81.8, 93.17 31.8, 119.41 1.78 M4.6 133.85 C49.54 83.08, 93.18 32.53, 119.41 1.78 M4.87 157.93 C40.82 112.99, 80.86 70.62, 140.67 1.71 M4.87 157.93 C44.97 112.15, 83.49 67.05, 140.67 1.71 M4.48 182.77 C48.78 132.41, 93.94 76.31, 161.28 2.39 M4.48 182.77 C57.04 122.76, 109.11 61.89, 161.28 2.39 M4.74 206.85 C71.64 128.41, 139.4 51.16, 182.54 2.32 M4.74 206.85 C72.01 130.11, 139.41 52.61, 182.54 2.32 M5.01 230.93 C70.86 157.16, 134.3 81.14, 203.8 2.26 M5.01 230.93 C50.04 181.59, 93.87 130.56, 203.8 2.26 M4.62 255.77 C71.21 180.28, 139.33 103.69, 225.06 2.19 M4.62 255.77 C71.99 179.02, 138.97 101.21, 225.06 2.19 M4.89 279.85 C94.19 174.45, 185.92 69.75, 246.32 2.12 M4.89 279.85 C70.66 203.14, 137.04 127.27, 246.32 2.12 M4.5 304.69 C59.21 242.72, 112.59 181.01, 267.58 2.05 M4.5 304.69 C78.22 218.33, 152.69 132.75, 267.58 2.05 M4.76 328.77 C113.88 201.46, 223.29 76.3, 288.84 1.98 M4.76 328.77 C108.83 209.54, 212.42 90.42, 288.84 1.98 M5.03 352.85 C107 234.96, 208.13 118.34, 310.1 1.91 M5.03 352.85 C100.96 241.87, 196.67 131.95, 310.1 1.91 M4.64 377.69 C83.23 287.37, 162.58 197.84, 331.36 1.84 M4.64 377.69 C99.99 269.88, 193.83 161.69, 331.36 1.84 M4.91 401.77 C124.58 265.18, 243.45 129.2, 352.62 1.77 M4.91 401.77 C98.68 295.35, 191.81 187.33, 352.62 1.77 M4.52 426.6 C105.19 309.03, 208.66 190.38, 373.88 1.7 M4.52 426.6 C103.64 310.55, 203.92 194.9, 373.88 1.7 M4.78 450.69 C150.15 284.09, 292.9 118.68, 394.48 2.39 M4.78 450.69 C82.73 357.88, 162.31 266, 394.48 2.39 M5.05 474.77 C160.33 298.55, 313.78 121.28, 415.74 2.32 M5.05 474.77 C116.57 345.23, 228.54 216.35, 415.74 2.32 M4.66 499.6 C160.36 323.07, 314.68 146.25, 437 2.25 M4.66 499.6 C115.49 374.19, 225.24 248.17, 437 2.25 M4.93 523.69 C121.03 391.94, 236.17 259.52, 458.26 2.18 M4.93 523.69 C132.39 379.22, 259.05 233.42, 458.26 2.18 M4.54 548.52 C163.88 362, 325.46 178.65, 479.52 2.11 M4.54 548.52 C162.65 369.21, 319.33 189.86, 479.52 2.11 M4.8 572.6 C196.19 351.71, 387.62 132.05, 500.78 2.04 M4.8 572.6 C106.13 453.2, 208.18 335.45, 500.78 2.04 M1.13 601.21 C180.65 398.35, 358.35 192.77, 522.04 1.98 M1.13 601.21 C116.72 464.02, 234.64 328.56, 522.04 1.98 M7.3 618.5 C158.29 440.83, 310.96 264.18, 543.3 1.91 M7.3 618.5 C219.62 373.33, 433.34 126.83, 543.3 1.91 M18.72 629.76 C179.5 445.18, 339.76 260.39, 564.56 1.84 M18.72 629.76 C192.89 431.12, 366.59 231.31, 564.56 1.84 M35.39 634.97 C153.62 499.54, 270.08 365.4, 585.82 1.77 M35.39 634.97 C219.26 421.01, 404.1 208.53, 585.82 1.77 M56.65 634.9 C228.57 437.94, 401.62 239.89, 607.08 1.7 M56.65 634.9 C197.06 470.36, 338.96 307.58, 607.08 1.7 M77.91 634.83 C227.25 462.81, 375.57 291.81, 626.38 3.89 M77.91 634.83 C252.41 433.68, 426.8 232.48, 626.38 3.89 M99.17 634.76 C215.38 500.81, 333.26 366.31, 643.04 9.11 M99.17 634.76 C251.83 461.92, 401.68 288.65, 643.04 9.11 M120.43 634.69 C288.81 441.9, 455.17 250.08, 654.46 20.36 M120.43 634.69 C325.13 399.67, 530.39 162.79, 654.46 20.36 M141.69 634.62 C253.59 509.03, 363.92 383.35, 659.98 38.4 M141.69 634.62 C291.69 463.57, 441.16 291.31, 659.98 38.4 M162.95 634.56 C279.2 501.45, 394.12 368.66, 660.24 62.49 M162.95 634.56 C359.28 404.7, 557.76 176.93, 660.24 62.49 M184.21 634.49 C282.8 518.69, 381.84 404.23, 660.51 86.57 M184.21 634.49 C369.36 425.59, 552.14 214.06, 660.51 86.57 M204.81 635.17 C329.08 490.91, 452.74 349.2, 660.12 111.4 M204.81 635.17 C365.26 448.28, 527.21 262.93, 660.12 111.4 M226.07 635.1 C359.32 482.35, 490.95 329.66, 660.39 135.49 M226.07 635.1 C372.17 466.64, 518.85 297.87, 660.39 135.49 M247.34 635.03 C380.57 483.86, 510.4 333.66, 660 160.32 M247.34 635.03 C359.99 503.89, 474.06 372.4, 660 160.32 M268.6 634.97 C387.07 498.9, 504.45 364.44, 660.26 184.4 M268.6 634.97 C387.06 500.92, 504.26 367.01, 660.26 184.4 M289.86 634.9 C362.72 548.99, 436.42 462.79, 660.53 208.49 M289.86 634.9 C408.95 499.37, 526.12 364.08, 660.53 208.49 M311.12 634.83 C443.35 480.96, 577.5 327.82, 660.14 233.32 M311.12 634.83 C416.32 513.82, 520.91 394.46, 660.14 233.32 M332.38 634.76 C463.16 484.67, 593.85 334.27, 660.41 257.4 M332.38 634.76 C419.47 535.97, 504.53 437.01, 660.41 257.4 M353.64 634.69 C426.79 549.41, 502.77 462.5, 660.02 282.24 M353.64 634.69 C461.48 511.09, 568.66 388.08, 660.02 282.24 M374.9 634.62 C469.36 524.74, 566.01 415.35, 660.28 306.32 M374.9 634.62 C437.99 562.19, 500.75 489.6, 660.28 306.32 M396.16 634.55 C492.48 523.63, 589.69 413.18, 660.55 330.4 M396.16 634.55 C485.89 531.77, 575.43 428.34, 660.55 330.4 M417.42 634.48 C485.65 556.75, 553.24 477.69, 660.16 355.24 M417.42 634.48 C501.92 540.08, 583.99 444.92, 660.16 355.24 M438.02 635.17 C507.93 552.52, 581.53 469.92, 660.42 379.32 M438.02 635.17 C511.82 550.04, 587.96 463.13, 660.42 379.32 M459.28 635.1 C507.3 578.29, 554.34 523.31, 660.03 404.16 M459.28 635.1 C518.4 567.1, 576.63 500.52, 660.03 404.16 M480.54 635.03 C531.6 577.18, 584.54 514.24, 660.3 428.24 M480.54 635.03 C534.44 571.67, 588.61 510.75, 660.3 428.24 M501.8 634.96 C542.82 585.28, 588.34 534.7, 660.57 452.32 M501.8 634.96 C561.21 566.82, 620.98 497.06, 660.57 452.32 M523.06 634.89 C569.25 581.06, 617.92 526.48, 660.18 477.16 M523.06 634.89 C569.72 579.28, 617.44 524.58, 660.18 477.16 M544.32 634.82 C591.23 582.81, 636.49 532.36, 660.44 501.24 M544.32 634.82 C571.36 605.28, 598.6 573.87, 660.44 501.24 M565.58 634.75 C598.03 600.45, 629.2 562.41, 660.05 526.08 M565.58 634.75 C592.68 601, 621.3 568.95, 660.05 526.08 M586.84 634.69 C604.86 614.86, 620.26 594.61, 660.32 550.16 M586.84 634.69 C609.18 608.9, 631.92 582.8, 660.32 550.16 M608.1 634.62 C618.71 620.9, 628.86 607.3, 660.59 574.24 M608.1 634.62 C626.49 614.96, 643.28 593.29, 660.59 574.24 M627.39 636.81 C633.98 631.56, 640.51 621.51, 656.92 602.85 M627.39 636.81 C632.8 629.12, 638.65 622.19, 656.92 602.85" stroke="#a5d8ff" stroke-width="2" fill="none"></path><path d="M32 0 M32 0 C248.47 1.59, 464.7 2.35, 621.31 0 M32 0 C227.66 1.98, 423.6 2.44, 621.31 0 M621.31 0 C643.31 -1.33, 652.24 9.5, 653.31 32 M621.31 0 C642.41 -1.65, 653.14 11.62, 653.31 32 M653.31 32 C653.53 241.8, 652.62 452.42, 653.31 599.78 M653.31 32 C653.73 164.42, 653.85 296.55, 653.31 599.78 M653.31 599.78 C651.41 622.57, 640.97 630.19, 621.31 631.78 M653.31 599.78 C651.41 620.13, 640.62 632.72, 621.31 631.78 M621.31 631.78 C447.27 633.15, 274.36 633.57, 32 631.78 M621.31 631.78 C451.73 629.68, 282.61 629.86, 32 631.78 M32 631.78 C10.77 631.56, -1.98 621.67, 0 599.78 M32 631.78 C11.64 630.97, -1.36 620.78, 0 599.78 M0 599.78 C-1.04 484.12, -0.81 369.24, 0 32 M0 599.78 C-0.68 421.63, -0.7 242.87, 0 32 M0 32 C-1.54 10.62, 9.36 0.66, 32 0 M0 32 C0.46 11.76, 11.49 1.58, 32 0" stroke="#1e1e1e" stroke-width="4" fill="none"></path></g><g transform="translate(517.7967568979311 423.9590576008686) rotate(0 75.71196746826172 17.5)"><text x="75.71196746826172" y="0" font-family="Virgil, Segoe UI Emoji" font-size="28px" fill="#1e1e1e" text-anchor="middle" style="white-space: pre;" direction="ltr" dominant-baseline="text-before-edge">replay logic</text></g><g stroke-linecap="round" transform="translate(967.501023666774 130.54383357097458) rotate(0 68.34741029654583 310.9152240298945)"><path d="M7.86 8.16 C7.86 8.16, 7.86 8.16, 7.86 8.16 M7.86 8.16 C7.86 8.16, 7.86 8.16, 7.86 8.16 M4.85 36.01 C14.47 24.61, 23.55 15.56, 34.37 2.05 M4.85 36.01 C14.67 25.81, 23.22 13.85, 34.37 2.05 M4.46 60.85 C14.04 47.56, 27.39 34.39, 55.63 1.98 M4.46 60.85 C23.82 39.76, 41.38 18.46, 55.63 1.98 M4.72 84.93 C27.78 57.72, 49.91 31.96, 76.89 1.91 M4.72 84.93 C27.81 57.58, 52.13 30.93, 76.89 1.91 M4.99 109.01 C37.55 72.06, 66.88 38.78, 98.15 1.85 M4.99 109.01 C28.69 83.45, 51.61 55.43, 98.15 1.85 M4.6 133.85 C40.16 94.27, 73.67 51.31, 118.76 2.53 M4.6 133.85 C47.52 82.12, 93.79 31, 118.76 2.53 M4.87 157.93 C34.43 123.57, 65.18 89.22, 132.14 11.52 M4.87 157.93 C38.33 119.33, 70.34 80.88, 132.14 11.52 M5.13 182.01 C58.74 121.23, 113.11 59.7, 139.63 27.3 M5.13 182.01 C40.21 141.39, 74.88 100.12, 139.63 27.3 M4.74 206.85 C42.52 166.82, 77.15 124.51, 139.24 52.14 M4.74 206.85 C46.74 157.95, 89.06 108.87, 139.24 52.14 M5.01 230.93 C42.13 190.81, 79.22 146.41, 139.5 76.22 M5.01 230.93 C52.24 177.03, 96.11 125.7, 139.5 76.22 M4.62 255.77 C35.52 216.89, 69.69 179.59, 139.77 100.3 M4.62 255.77 C57.52 194.13, 110.63 133.2, 139.77 100.3 M4.89 279.85 C52.1 226.15, 101.25 168.46, 139.38 125.13 M4.89 279.85 C34.4 245.86, 64.66 211.82, 139.38 125.13 M5.15 303.93 C44.58 258.41, 84.81 213.69, 139.64 149.22 M5.15 303.93 C57.46 244.07, 109.3 183.26, 139.64 149.22 M4.76 328.77 C40.51 288.82, 74.07 251.73, 139.91 173.3 M4.76 328.77 C56.86 270.6, 110.22 210.61, 139.91 173.3 M5.03 352.85 C55.08 293.79, 108.88 231.36, 139.52 198.13 M5.03 352.85 C35.24 320.3, 62.59 288.07, 139.52 198.13 M5.3 376.93 C38.29 336.91, 68.98 300.23, 139.79 222.22 M5.3 376.93 C42.21 333.18, 78.04 291.14, 139.79 222.22 M4.91 401.77 C45.82 358.04, 84.24 312.36, 140.05 246.3 M4.91 401.77 C50.12 350.8, 95.76 300.77, 140.05 246.3 M5.17 425.85 C36.22 388.74, 68.15 353.05, 139.66 271.13 M5.17 425.85 C35.19 392.6, 65.59 358.53, 139.66 271.13 M5.44 449.93 C54.09 395.64, 102.44 338.71, 139.93 295.22 M5.44 449.93 C35.76 416.34, 66.17 382.2, 139.93 295.22 M5.05 474.77 C31.1 442.08, 58.53 410.28, 139.54 320.05 M5.05 474.77 C49.84 422.63, 96.04 370.21, 139.54 320.05 M5.31 498.85 C48.94 449.37, 90.01 400.59, 139.81 344.13 M5.31 498.85 C46.44 452.8, 86.63 406.92, 139.81 344.13 M4.93 523.69 C49.92 470.8, 95.52 420.11, 140.07 368.22 M4.93 523.69 C35.18 491.09, 64.7 456.31, 140.07 368.22 M5.19 547.77 C50.2 493.2, 95.01 443.22, 139.68 393.05 M5.19 547.77 C31.5 517.16, 60.09 485.89, 139.68 393.05 M5.46 571.85 C46.24 522.85, 89.66 475.91, 139.95 417.13 M5.46 571.85 C35.04 534.63, 65.48 499.86, 139.95 417.13 M3.1 598.95 C49.82 546.8, 94.62 494.93, 140.22 441.22 M3.1 598.95 C44.75 548.01, 89.1 499.82, 140.22 441.22 M9.93 615.48 C61.91 553.91, 116.97 493.41, 139.83 466.05 M9.93 615.48 C38.16 581.25, 64.68 549.29, 139.83 466.05 M25.28 622.21 C51.39 590.82, 79.83 557.28, 140.09 490.13 M25.28 622.21 C51.63 594.23, 77.99 562.72, 140.09 490.13 M46.54 622.14 C79.92 582.02, 113.65 542.12, 139.7 514.97 M46.54 622.14 C67.41 598.9, 88.87 575.36, 139.7 514.97 M67.8 622.07 C82.36 605.49, 97.95 587.47, 139.97 539.05 M67.8 622.07 C88.32 598.68, 108.41 576.99, 139.97 539.05 M89.06 622 C110.87 597.23, 128.56 576.91, 140.24 563.13 M89.06 622 C106.1 601.49, 123.25 582.89, 140.24 563.13 M110.32 621.93 C117.93 609.75, 128.68 598.26, 137.88 590.23 M110.32 621.93 C117.07 615.65, 122.34 608.67, 137.88 590.23" stroke="#e9ecef" stroke-width="2" fill="none"></path><path d="M32 0 M32 0 C54.7 1.97, 78 -0.28, 104.69 0 M32 0 C51.98 -0.63, 70.69 -0.09, 104.69 0 M104.69 0 C127.4 -0.83, 136.96 12.25, 136.69 32 M104.69 0 C126.34 -1.74, 137.23 11.97, 136.69 32 M136.69 32 C136.01 229.76, 135.91 425.93, 136.69 589.83 M136.69 32 C138.34 153.61, 138.71 276.19, 136.69 589.83 M136.69 589.83 C137.03 613.1, 126.09 620.33, 104.69 621.83 M136.69 589.83 C136.02 612.74, 123.85 622.82, 104.69 621.83 M104.69 621.83 C77.9 622.27, 51.55 623.95, 32 621.83 M104.69 621.83 C86.51 621.33, 66.28 622.18, 32 621.83 M32 621.83 C9.28 623.31, -0.5 610.1, 0 589.83 M32 621.83 C9.32 619.64, -0.43 611.98, 0 589.83 M0 589.83 C1.61 418.19, 1.07 246.45, 0 32 M0 589.83 C-1.1 403.27, -1.1 217.62, 0 32 M0 32 C-0.64 8.88, 9.43 -1.77, 32 0 M0 32 C-0.83 11.16, 10.59 0.3, 32 0" stroke="#1e1e1e" stroke-width="4" fill="none"></path></g><g transform="translate(986.0644526400777 388.9590576008691) rotate(0 49.78398132324219 52.5)"><text x="49.78398132324219" y="0" font-family="Virgil, Segoe UI Emoji" font-size="28px" fill="#1e1e1e" text-anchor="middle" style="white-space: pre;" direction="ltr" dominant-baseline="text-before-edge">Rabbit-</text><text x="49.78398132324219" y="35" font-family="Virgil, Segoe UI Emoji" font-size="28px" fill="#1e1e1e" text-anchor="middle" style="white-space: pre;" direction="ltr" dominant-baseline="text-before-edge">MQ</text><text x="49.78398132324219" y="70" font-family="Virgil, Segoe UI Emoji" font-size="28px" fill="#1e1e1e" text-anchor="middle" style="white-space: pre;" direction="ltr" dominant-baseline="text-before-edge">client</text></g><g stroke-linecap="round" transform="translate(10 60.67714227798206) rotate(0 582.7480612946805 380.595558097428)"><path d="M32 0 M32 0 C326.38 3.28, 620.72 3.3, 1133.5 0 M32 0 C254.81 -2.2, 478.11 -2.63, 1133.5 0 M1133.5 0 C1156.33 1.03, 1166.57 12.53, 1165.5 32 M1133.5 0 C1153.92 1.39, 1164.35 9.99, 1165.5 32 M1165.5 32 C1164.36 255.56, 1164.33 479.97, 1165.5 729.19 M1165.5 32 C1163.57 286.42, 1163.35 540.67, 1165.5 729.19 M1165.5 729.19 C1164.13 752.47, 1153.02 760.96, 1133.5 761.19 M1165.5 729.19 C1166.85 752.75, 1155.46 759.64, 1133.5 761.19 M1133.5 761.19 C902.18 759.36, 670.23 760.21, 32 761.19 M1133.5 761.19 C852.54 763.54, 571.34 763.07, 32 761.19 M32 761.19 C11.24 761.84, -1.09 750.39, 0 729.19 M32 761.19 C10.16 760.18, 0.07 749.13, 0 729.19 M0 729.19 C-2.57 487.18, -2.26 244.33, 0 32 M0 729.19 C2.33 463.1, 2.64 197.02, 0 32 M0 32 C1.63 10.42, 12.45 0.46, 32 0 M0 32 C0.88 10.93, 12.21 -0.13, 32 0" stroke="#1971c2" stroke-width="4" fill="none"></path></g><g transform="translate(480.6501151276884 10) rotate(0 112.09794616699219 17.5)"><text x="112.09794616699219" y="0" font-family="Virgil, Segoe UI Emoji" font-size="28px" fill="#1971c2" text-anchor="middle" style="white-space: pre;" direction="ltr" dominant-baseline="text-before-edge">docker container</text></g></svg>