<svg version="1.1" xmlns="http://www.w3.org/2000/svg" viewBox="0 0 872.701171875 454.57421875" width="872.701171875" height="454.57421875">
  <!-- svg-source:excalidraw -->
  
  <defs>
    <style class="style-fonts">
      @font-face {
        font-family: "Virgil";
        src: url("https://excalidraw.com/Virgil.woff2");
      }
      @font-face {
        font-family: "Cascadia";
        src: url("https://excalidraw.com/Cascadia.woff2");
      }
    </style>
    
  </defs>
  <g stroke-linecap="round" transform="translate(10 53.2099609375) rotate(0 31.224609375 28.892578125)"><path d="M4.87 14.84 C4.87 14.84, 4.87 14.84, 4.87 14.84 M4.87 14.84 C4.87 14.84, 4.87 14.84, 4.87 14.84 M2.46 23.91 C7.33 16.43, 14.62 11.19, 20.38 0.44 M3.51 23.01 C10.15 15.27, 17.34 8.32, 20.24 1.85 M3.23 29.15 C7.41 26.04, 12.3 16.64, 25.98 6.84 M1.11 30.98 C10.72 20.25, 18.33 10.97, 24.46 5 M1.43 35.05 C9.02 29.4, 15.12 22.05, 27.69 3.24 M3.1 36.35 C9.95 26.03, 19.05 17.88, 28.72 5.17 M5.7 41.15 C14.35 26.5, 28.76 12.57, 35.65 2.97 M3.82 39.26 C14.82 28.23, 25.94 16.41, 35.65 4.8 M5.7 44.54 C17.93 32.51, 29.11 18.25, 42.65 4.03 M7.33 42.75 C14.68 33.25, 23.5 26, 42.59 1.94 M8.14 45.29 C24.25 30.88, 36.09 14.68, 47.22 6.55 M8.34 46.27 C18.85 36.9, 26.84 27.41, 45.49 3.99 M11.02 50.52 C26.33 35.38, 38.36 20.02, 48.08 9.06 M11.16 50.01 C25.25 35.04, 38.39 19.02, 48.15 8.06 M16.32 51.53 C25.07 38.6, 36.91 27.49, 51.83 9.16 M15.28 52.22 C28.69 36.78, 42.44 19.63, 50.74 9.9 M16.86 55.23 C31.88 39.65, 46.85 22.27, 54.35 11.4 M19.02 54.77 C31.79 39.69, 43.38 23.79, 54.01 11.95 M20.44 57.96 C33.03 44.46, 46.6 28.79, 58.29 16.2 M22.45 55.22 C35.45 39.78, 48.38 24.74, 57.57 14.42 M27.23 57.9 C36.93 43.45, 49.59 30.08, 59.15 19.38 M25.66 57.35 C38.68 42.86, 52.11 27.96, 58.85 19.04 M29.26 61.66 C38.68 52.21, 42.64 44.28, 60.72 26.36 M29 60.03 C38.48 51.31, 47.36 40.72, 59.26 25.42 M35.22 61.43 C44.48 47.74, 55.57 33.51, 62.56 27.23 M32.73 60.46 C42.54 52.52, 50.89 42.94, 62.57 28.34 M40.54 58.57 C50.83 48.89, 57.92 38.95, 63.54 35.45 M41.88 58.03 C46.82 51.82, 52.81 44.97, 63.18 32.61" stroke="#a5d8ff" stroke-width="0.5" fill="none"></path><path d="M41.72 2.29 C47.81 4.11, 54.18 9.51, 57.71 14.74 C61.23 19.97, 63.88 27.78, 62.89 33.66 C61.91 39.55, 57.18 45.88, 51.77 50.06 C46.37 54.24, 37.16 58.77, 30.46 58.77 C23.76 58.77, 16.47 54.03, 11.55 50.05 C6.64 46.06, 2.11 40.66, 0.94 34.84 C-0.22 29.03, 1.18 20.62, 4.58 15.17 C7.98 9.72, 14.35 4, 21.34 2.13 C28.33 0.26, 41.31 2.92, 46.54 3.95 C51.76 4.98, 52.73 7.71, 52.7 8.31 M21.98 1.2 C27.93 -0.75, 36.8 0.59, 42.89 3.09 C48.99 5.59, 55.59 10.8, 58.54 16.21 C61.48 21.63, 61.96 29.51, 60.57 35.59 C59.18 41.67, 55.38 48.87, 50.21 52.67 C45.04 56.48, 36.13 59.08, 29.54 58.41 C22.95 57.74, 15.77 52.86, 10.67 48.67 C5.57 44.47, -0.35 39.36, -1.05 33.25 C-1.76 27.14, 2.51 17.09, 6.42 12 C10.33 6.91, 19.63 4.35, 22.42 2.72 C25.22 1.08, 22.92 2.11, 23.19 2.19" stroke="#1e1e1e" stroke-width="1" fill="none"></path></g><g transform="translate(18.464706420898438 69.8017578125) rotate(0 22.339981079101562 12.5)"><text x="22.339981079101562" y="0" font-family="Virgil, Segoe UI Emoji" font-size="20px" fill="#1e1e1e" text-anchor="middle" style="white-space: pre;" direction="ltr" dominant-baseline="text-before-edge">User</text></g><g transform="translate(85.64703369140625 54.2578125) rotate(0 94.22991943359375 12.5)"><text x="94.22991943359375" y="0" font-family="Virgil, Segoe UI Emoji" font-size="20px" fill="#1e1e1e" text-anchor="middle" style="white-space: pre;" direction="ltr" dominant-baseline="text-before-edge">HTTP request {id}</text></g><g stroke-linecap="round"><g transform="translate(81.73150807812573 86.08430678133527) rotate(0 115.15738663492732 -0.7054775620362648)"><path d="M0.08 -0.18 C38.87 -0.2, 193.35 -1.14, 231.66 -1.18 M-1.34 -1.32 C37.46 -1.11, 192.15 -0.44, 231.09 -0.09" stroke="#e03131" stroke-width="1" fill="none"></path></g><g transform="translate(81.73150807812573 86.08430678133527) rotate(0 115.15738663492732 -0.7054775620362648)"><path d="M202.53 11.22 C207.39 6.26, 214.46 3.94, 229.42 0.31 M202.69 10.13 C213.14 5.26, 223.15 1.43, 231.16 0.61" stroke="#e03131" stroke-width="1" fill="none"></path></g><g transform="translate(81.73150807812573 86.08430678133527) rotate(0 115.15738663492732 -0.7054775620362648)"><path d="M202.66 -9.3 C207.3 -10.01, 214.34 -8.07, 229.42 0.31 M202.83 -10.39 C213.41 -7.49, 223.37 -3.55, 231.16 0.61" stroke="#e03131" stroke-width="1" fill="none"></path></g></g><mask></mask><g stroke-linecap="round" transform="translate(312.908203125 10) rotate(0 67.5 74.5)"><path d="M11.2 62.73 C11.2 62.73, 11.2 62.73, 11.2 62.73 M11.2 62.73 C11.2 62.73, 11.2 62.73, 11.2 62.73 M5.03 75.92 C23.29 53.58, 41.89 30.97, 65.39 6.49 M5.03 75.92 C24.84 54.77, 41.98 33.22, 65.39 6.49 M6.74 80.06 C22.21 60.45, 40.19 40.96, 71.69 5.34 M6.74 80.06 C28.71 54.36, 51.03 29.07, 71.69 5.34 M9.1 83.44 C25.83 64.39, 38.82 46.76, 74.05 8.72 M9.1 83.44 C33.34 55.38, 56.76 26.28, 74.05 8.72 M11.46 86.82 C36.19 57.74, 60.86 28.33, 77.07 11.34 M11.46 86.82 C29.24 64.97, 47.94 44.05, 77.07 11.34 M13.83 90.19 C31.91 66.94, 52.61 48.49, 80.09 13.97 M13.83 90.19 C27.28 74.17, 40.47 59.57, 80.09 13.97 M16.85 92.82 C38.94 67.86, 59.28 42.56, 83.11 16.59 M16.85 92.82 C40.34 66.49, 64.38 38.34, 83.11 16.59 M19.21 96.2 C35.15 77.56, 54.71 57.88, 86.13 19.22 M19.21 96.2 C39.04 73.6, 58.76 48.41, 86.13 19.22 M22.23 98.82 C49.22 73.11, 73.36 41.38, 88.49 22.6 M22.23 98.82 C44.78 74.64, 66.18 48.26, 88.49 22.6 M25.25 101.45 C43.47 79.23, 64.09 59.06, 91.51 25.22 M25.25 101.45 C47.19 76.92, 68.85 52.08, 91.51 25.22 M27.61 104.83 C46.18 86.73, 60.91 67.76, 93.87 28.6 M27.61 104.83 C54.47 74.56, 80.84 44.62, 93.87 28.6 M30.63 107.45 C56.39 78.31, 83.82 47.99, 96.23 31.98 M30.63 107.45 C48.29 86.76, 66.06 65.77, 96.23 31.98 M32.99 110.83 C50.38 89.93, 67.28 72.48, 99.25 34.6 M32.99 110.83 C58.85 79.79, 84.38 51.26, 99.25 34.6 M36.01 113.45 C57.29 88.36, 83.62 59.82, 101.61 37.98 M36.01 113.45 C53.79 92.21, 70.63 71.66, 101.61 37.98 M38.37 116.83 C59.26 90.48, 82.85 64.63, 104.63 40.61 M38.37 116.83 C65.83 86.35, 90.23 57.16, 104.63 40.61 M41.39 119.46 C68.39 87.83, 95.14 58.6, 107 43.98 M41.39 119.46 C65.84 89.26, 92.16 60.81, 107 43.98 M44.41 122.08 C60.4 108.22, 73.3 90.06, 110.02 46.61 M44.41 122.08 C66.24 97.37, 86.96 73.77, 110.02 46.61 M46.77 125.46 C65.45 102.09, 85.54 82.14, 112.38 49.99 M46.77 125.46 C64.96 106.8, 81.69 86.68, 112.38 49.99 M49.79 128.08 C65.44 111.12, 79.21 93.88, 115.4 52.61 M49.79 128.08 C71.01 102.63, 92.82 77.17, 115.4 52.61 M52.15 131.46 C74.64 104.23, 95.8 79.48, 117.76 55.99 M52.15 131.46 C65 115.61, 79.19 99.68, 117.76 55.99 M55.17 134.09 C76.42 110.69, 99.2 84.97, 120.78 58.62 M55.17 134.09 C72.25 116.52, 87.89 97.02, 120.78 58.62 M57.54 137.47 C76.46 114.46, 95.05 93.86, 123.14 61.99 M57.54 137.47 C81.12 109.9, 103.92 84.21, 123.14 61.99 M60.55 140.09 C82.19 115.37, 100.42 93.34, 126.16 64.62 M60.55 140.09 C79.56 118.69, 95.89 97.73, 126.16 64.62 M64.23 141.96 C79.21 123.96, 94.2 106.47, 128.52 68 M64.23 141.96 C84.96 117.24, 106.04 94.24, 128.52 68 M67.25 144.58 C86.71 121.67, 105.18 101.06, 130.23 72.13 M67.25 144.58 C86.96 122.15, 107.59 100.12, 130.23 72.13 M84.7 130.6 C95.48 120.36, 102.06 106.65, 131.94 76.27 M84.7 130.6 C97.93 114.67, 112.11 97.78, 131.94 76.27" stroke="#b2f2bb" stroke-width="0.5" fill="none"></path><path d="M85 18.75 M85 18.75 C95.57 30.04, 107.45 43.82, 118 56.25 M85 18.75 C94.25 29.74, 103.14 39.3, 118 56.25 M118 56.25 C134.75 76.64, 135.99 74.62, 118 93.75 M118 56.25 C136.48 75.54, 132.92 77.26, 118 93.75 M118 93.75 C109.92 103.45, 102.7 113.25, 85 130.25 M118 93.75 C106.34 106.63, 95.96 119.17, 85 130.25 M85 130.25 C67.18 149.87, 66.85 147.82, 51 130.25 M85 130.25 C70.05 147.62, 68.32 149.44, 51 130.25 M51 130.25 C39.32 117.6, 28.78 109.15, 17 93.75 M51 130.25 C40.89 120.55, 32.39 110.16, 17 93.75 M17 93.75 C1.68 75.96, 0.86 74.67, 17 56.25 M17 93.75 C-1.25 75.4, 1.78 74.69, 17 56.25 M17 56.25 C28.25 43.58, 36.03 34.9, 51 18.75 M17 56.25 C26.08 46.13, 36.23 36.66, 51 18.75 M51 18.75 C68.18 1.87, 69.91 0.24, 85 18.75 M51 18.75 C66.2 -1.85, 67.37 1.87, 85 18.75" stroke="#1e1e1e" stroke-width="1" fill="none"></path></g><g transform="translate(354.1702194213867 64.75) rotate(0 26.48798370361328 20)"><text x="26.48798370361328" y="0" font-family="Virgil, Segoe UI Emoji" font-size="16px" fill="#1e1e1e" text-anchor="middle" style="white-space: pre;" direction="ltr" dominant-baseline="text-before-edge">micro-</text><text x="26.48798370361328" y="20" font-family="Virgil, Segoe UI Emoji" font-size="16px" fill="#1e1e1e" text-anchor="middle" style="white-space: pre;" direction="ltr" dominant-baseline="text-before-edge">service</text></g><g stroke-linecap="round" transform="translate(728.650390625 15.21875) rotate(0 67.025390625 66.65625)"><path d="M7.86 8.16 C7.86 8.16, 7.86 8.16, 7.86 8.16 M7.86 8.16 C7.86 8.16, 7.86 8.16, 7.86 8.16 M3.66 19.09 C7.75 12.83, 13.28 7.28, 18.1 2.48 M3.66 19.09 C9.35 12.94, 14.35 7.7, 18.1 2.48 M2.75 26.24 C6.01 22.05, 11.58 16.39, 24.4 1.33 M2.75 26.24 C8.03 19.06, 15.41 11.62, 24.4 1.33 M2.48 32.64 C8.79 23.83, 16.76 15.7, 30.7 0.18 M2.48 32.64 C9.74 23.84, 17.48 14.92, 30.7 0.18 M2.88 38.28 C12 30.1, 16.1 21.16, 34.37 2.05 M2.88 38.28 C11.05 29.66, 18.74 20.74, 34.37 2.05 M2.62 44.68 C12.63 34.39, 21.24 23.98, 39.36 2.41 M2.62 44.68 C11.8 35.2, 21.28 24.05, 39.36 2.41 M2.36 51.07 C16.68 37.16, 28.47 21.19, 45 2.02 M2.36 51.07 C19.84 31.68, 36.35 12.31, 45 2.02 M2.75 56.72 C14.46 42.19, 30.13 24.01, 49.99 2.38 M2.75 56.72 C19.59 35.99, 38.57 14.91, 49.99 2.38 M2.49 63.11 C18.92 44.66, 33.05 27.97, 55.63 1.98 M2.49 63.11 C20.11 42.4, 36.9 21.78, 55.63 1.98 M2.23 69.51 C23.04 44.27, 43.86 19.35, 60.62 2.34 M2.23 69.51 C21.19 46.46, 41.14 22.88, 60.62 2.34 M2.62 75.16 C18.68 55.65, 34.28 38.33, 66.26 1.95 M2.62 75.16 C27.59 46.97, 50.96 18.18, 66.26 1.95 M2.36 81.55 C19.5 61.83, 40.43 39.04, 71.25 2.31 M2.36 81.55 C16.65 65.64, 31.98 48.82, 71.25 2.31 M2.1 87.95 C25.09 63.93, 45.75 38.9, 76.23 2.67 M2.1 87.95 C30.56 56, 57.08 24.1, 76.23 2.67 M2.49 93.59 C25.22 67.42, 45.99 38.51, 81.88 2.27 M2.49 93.59 C25.96 66.22, 50.16 39.89, 81.88 2.27 M0.92 101.5 C32.26 62.76, 67.95 27.12, 86.86 2.63 M0.92 101.5 C35.11 63.73, 69.69 22.88, 86.86 2.63 M1.32 107.14 C27.82 77.66, 54.88 47.49, 92.51 2.24 M1.32 107.14 C29.05 75.53, 57.25 45.45, 92.51 2.24 M2.37 112.03 C35.17 74.8, 65.21 37.71, 97.49 2.6 M2.37 112.03 C30.48 77.9, 60.96 42.4, 97.49 2.6 M3.42 116.92 C28.85 86.06, 55.57 55.48, 103.14 2.21 M3.42 116.92 C35.23 78.89, 70.2 40.76, 103.14 2.21 M5.12 121.06 C40.87 76.93, 80.52 34.9, 109.44 1.06 M5.12 121.06 C33.87 90.47, 62.61 56.89, 109.44 1.06 M7.49 124.43 C45.53 81.39, 82.86 38.08, 113.77 2.17 M7.49 124.43 C43.33 83.92, 77.9 43.16, 113.77 2.17 M10.51 127.06 C48.54 85.05, 84.18 40, 118.1 3.29 M10.51 127.06 C43.09 88.51, 76.24 51.55, 118.1 3.29 M13.52 129.68 C35.52 104.17, 56.94 77.06, 121.77 5.16 M13.52 129.68 C37.23 102.04, 61.61 74.74, 121.77 5.16 M17.86 130.8 C42.29 104.32, 62.72 79.51, 124.79 7.78 M17.86 130.8 C38.97 106.51, 61.95 82.01, 124.79 7.78 M21.53 132.67 C46.43 101.48, 77.64 71.07, 127.81 10.4 M21.53 132.67 C58.02 90.16, 96.78 47.15, 127.81 10.4 M25.86 133.78 C60.19 97.11, 94.3 56.26, 130.83 13.03 M25.86 133.78 C47.81 106, 72.61 79.43, 130.83 13.03 M30.85 134.14 C57.57 102.85, 83.93 76.41, 132.54 17.16 M30.85 134.14 C60.46 101.09, 88.69 68.58, 132.54 17.16 M36.49 133.75 C63.58 104.89, 87.55 73.46, 134.9 20.54 M36.49 133.75 C73.42 92.96, 107.73 51.4, 134.9 20.54 M41.48 134.11 C71.35 104.2, 99.64 68.6, 135.95 25.43 M41.48 134.11 C74.48 93.8, 109.92 54.4, 135.95 25.43 M47.12 133.71 C73.32 103.09, 97.06 75.52, 135.03 32.58 M47.12 133.71 C73.66 104.43, 98.95 72.55, 135.03 32.58 M52.11 134.07 C70.57 112.66, 89.68 93.5, 134.77 38.98 M52.11 134.07 C82.56 98.59, 114.85 63.39, 134.77 38.98 M57.1 134.43 C79.64 108.7, 101.26 83.34, 134.51 45.38 M57.1 134.43 C76 112.77, 93.86 90.44, 134.51 45.38 M62.74 134.04 C89.14 100.9, 120.27 69.05, 134.9 51.02 M62.74 134.04 C83.95 108.86, 104.55 85.44, 134.9 51.02 M67.73 134.4 C92.72 104.55, 116.31 78.81, 134.64 57.42 M67.73 134.4 C88.78 111.07, 108.49 88.13, 134.64 57.42 M73.37 134 C96.23 107.22, 115.81 86.62, 134.38 63.82 M73.37 134 C91.75 112.95, 111.98 89.68, 134.38 63.82 M78.36 134.36 C93.96 113.87, 110.24 95.52, 134.78 69.46 M78.36 134.36 C94.62 114.13, 113.09 93.61, 134.78 69.46 M84 133.97 C99.09 115.79, 116.01 97.28, 134.51 75.86 M84 133.97 C95.59 119.72, 108.73 105.71, 134.51 75.86 M88.99 134.33 C99.75 119.77, 114.06 106.3, 134.25 82.25 M88.99 134.33 C106.73 115.49, 122.96 95.95, 134.25 82.25 M93.97 134.69 C108.89 117.34, 120.6 101.84, 134.65 87.9 M93.97 134.69 C106.14 120.44, 116.86 108.42, 134.65 87.9 M99.62 134.29 C111.85 118.94, 120.44 107.41, 134.39 94.3 M99.62 134.29 C111.08 119.72, 124.16 105.46, 134.39 94.3 M103.95 135.41 C112.56 124.57, 125.19 111.3, 134.78 99.94 M103.95 135.41 C112.43 127.38, 119.26 118.4, 134.78 99.94 M110.25 134.26 C118.64 125.29, 128.43 113.49, 134.52 106.34 M110.25 134.26 C119.71 123.59, 129.46 111.99, 134.52 106.34 M117.2 132.36 C124.56 125.3, 131.54 116.44, 135.57 111.22 M117.2 132.36 C123.8 124.96, 130.99 116.14, 135.57 111.22" stroke="#ffec99" stroke-width="0.5" fill="none"></path><path d="M32 0 M32 0 C54.55 2.13, 77.43 1.39, 102.05 0 M32 0 C55.63 0.71, 78.4 0.1, 102.05 0 M102.05 0 C122.49 -0.09, 132.74 9.18, 134.05 32 M102.05 0 C123.51 1.61, 134.86 10.82, 134.05 32 M134.05 32 C135.16 50.5, 132.99 68.63, 134.05 101.31 M134.05 32 C134.17 48.9, 132.64 68.01, 134.05 101.31 M134.05 101.31 C133.53 124.07, 122.85 132.18, 102.05 133.31 M134.05 101.31 C133.44 123.17, 125.41 132.46, 102.05 133.31 M102.05 133.31 C82.66 132.76, 59.25 135.13, 32 133.31 M102.05 133.31 C73.29 132.82, 46.04 132.9, 32 133.31 M32 133.31 C10.23 135.03, 1.92 121.26, 0 101.31 M32 133.31 C12.53 134.7, 1.44 121.12, 0 101.31 M0 101.31 C-1.26 76.31, -0.3 52.08, 0 32 M0 101.31 C1.03 85.1, 1.54 68.14, 0 32 M0 32 C-1.13 11.21, 12.45 0.25, 32 0 M0 32 C-0.41 12.66, 9.18 1.06, 32 0" stroke="#1e1e1e" stroke-width="1" fill="none"></path></g><g transform="translate(749.5158157348633 69.375) rotate(0 46.15996551513672 12.5)"><text x="46.15996551513672" y="0" font-family="Virgil, Segoe UI Emoji" font-size="20px" fill="#1e1e1e" text-anchor="middle" style="white-space: pre;" direction="ltr" dominant-baseline="text-before-edge">RabbitMQ</text></g><g stroke-linecap="round"><g transform="translate(449.1784818143241 85.39156604720017) rotate(0 137.56265076687873 1.5197986147989582)"><path d="M0.53 -0.78 C46.42 -0.03, 230.08 2.96, 275.78 3.82 M-0.65 1.43 C45.11 1.85, 229.49 1.67, 275.24 1.83" stroke="#e03131" stroke-width="1" fill="none"></path></g><g transform="translate(449.1784818143241 85.39156604720017) rotate(0 137.56265076687873 1.5197986147989582)"><path d="M245.74 13.36 C257.02 8.03, 267.37 4.09, 275.54 2.61 M247.06 12.59 C256.27 9.56, 266.26 6.18, 274.66 2.21" stroke="#e03131" stroke-width="1" fill="none"></path></g><g transform="translate(449.1784818143241 85.39156604720017) rotate(0 137.56265076687873 1.5197986147989582)"><path d="M245.76 -7.16 C256.92 -5.58, 267.27 -2.61, 275.54 2.61 M247.08 -7.93 C256.16 -4.16, 266.14 -0.75, 274.66 2.21" stroke="#e03131" stroke-width="1" fill="none"></path></g></g><mask></mask><g transform="translate(473.8939208984375 59.4921875) rotate(0 106.2799072265625 12.5)"><text x="106.2799072265625" y="0" font-family="Virgil, Segoe UI Emoji" font-size="20px" fill="#1e1e1e" text-anchor="middle" style="white-space: pre;" direction="ltr" dominant-baseline="text-before-edge">enqueue {id} message</text></g><g stroke-linecap="round"><g transform="translate(786.3880317929631 150.8125) rotate(0 -199.90921083958642 49.230899103354204)"><path d="M0.54 0.23 C-31.32 16.77, -124.74 98.15, -191.4 99.15 C-258.05 100.16, -364.89 21.57, -399.4 6.25 M-0.63 -0.7 C-32.58 15.47, -125.34 95.82, -191.97 97.17 C-258.59 98.51, -366.05 22.73, -400.36 7.37" stroke="#1971c2" stroke-width="1" fill="none"></path></g><g transform="translate(786.3880317929631 150.8125) rotate(0 -199.90921083958642 49.230899103354204)"><path d="M-370.36 13.3 C-378.7 10.26, -388.18 10.55, -399.34 8.24 M-371.47 12.47 C-381.16 10.92, -392.53 9.61, -400.2 6.62" stroke="#1971c2" stroke-width="1" fill="none"></path></g><g transform="translate(786.3880317929631 150.8125) rotate(0 -199.90921083958642 49.230899103354204)"><path d="M-380.33 31.24 C-385.82 23.06, -392.48 18.26, -399.34 8.24 M-381.43 30.41 C-387.56 22.21, -395.24 14.27, -400.2 6.62" stroke="#1971c2" stroke-width="1" fill="none"></path></g></g><mask></mask><g transform="translate(509.65059661865234 266.63671875) rotate(0 66.65995025634766 12.5)"><text x="66.65995025634766" y="0" font-family="Virgil, Segoe UI Emoji" font-size="20px" fill="#1e1e1e" text-anchor="middle" style="white-space: pre;" direction="ltr" dominant-baseline="text-before-edge">Return new id</text></g><g stroke-linecap="round"><g transform="translate(372.416015625 157.21484375) rotate(0 -159.470421473952 24.467340314541673)"><path d="M-0.25 0.53 C-26.67 14.78, -105.48 90.62, -158.8 84.54 C-212.12 78.46, -293.22 -15.75, -320.15 -35.95 M1.83 -0.24 C-24.21 13.78, -102.85 88.74, -156.61 82.96 C-210.38 77.19, -293.52 -15.02, -320.77 -34.87" stroke="#1971c2" stroke-width="1" fill="none"></path></g><g transform="translate(372.416015625 157.21484375) rotate(0 -159.470421473952 24.467340314541673)"><path d="M-292 -25.5 C-298.79 -26.47, -308.99 -29.91, -322.69 -34.57 M-292.05 -23.44 C-301.23 -26.87, -308.56 -29.27, -319.78 -34.49" stroke="#1971c2" stroke-width="1" fill="none"></path></g><g transform="translate(372.416015625 157.21484375) rotate(0 -159.470421473952 24.467340314541673)"><path d="M-305.62 -10.15 C-308.51 -15.35, -314.94 -23.04, -322.69 -34.57 M-305.68 -8.09 C-311.18 -15.71, -314.79 -22.31, -319.78 -34.49" stroke="#1971c2" stroke-width="1" fill="none"></path></g></g><mask></mask><g transform="translate(83.92063903808594 259.63671875) rotate(0 95.38990783691406 12.5)"><text x="95.38990783691406" y="0" font-family="Virgil, Segoe UI Emoji" font-size="20px" fill="#1e1e1e" text-anchor="middle" style="white-space: pre;" direction="ltr" dominant-baseline="text-before-edge">Aggregate response</text></g><g stroke-linecap="round"><g transform="translate(27.021484375 401.0234375) rotate(0 31.65746149419806 0.49378852857182665)"><path d="M0.6 0.55 C10.88 0.43, 51.33 0.05, 61.76 -0.22 M-0.55 -0.2 C10.08 -0.19, 53.34 1.22, 63.86 1.21" stroke="#1971c2" stroke-width="1" fill="none"></path></g><g transform="translate(27.021484375 401.0234375) rotate(0 31.65746149419806 0.49378852857182665)"><path d="M36.42 9.01 C43.73 8.29, 50.98 4.54, 62.8 1.08 M36.27 10.57 C44.9 8.81, 53.49 4.45, 63.87 1.62" stroke="#1971c2" stroke-width="1" fill="none"></path></g><g transform="translate(27.021484375 401.0234375) rotate(0 31.65746149419806 0.49378852857182665)"><path d="M36.78 -11.5 C44.08 -5.97, 51.21 -3.47, 62.8 1.08 M36.63 -9.95 C45.17 -4.93, 53.64 -2.51, 63.87 1.62" stroke="#1971c2" stroke-width="1" fill="none"></path></g></g><mask></mask><g transform="translate(15.135124206542969 419.57421875) rotate(0 41.81995391845703 12.5)"><text x="41.81995391845703" y="0" font-family="Virgil, Segoe UI Emoji" font-size="20px" fill="#1971c2" text-anchor="middle" style="white-space: pre;" direction="ltr" dominant-baseline="text-before-edge">Out-flow</text></g><g stroke-linecap="round"><g transform="translate(31.494140625 334.84523546360447) rotate(0 30.93750624135137 -0.04087817572201402)"><path d="M-1.06 -0.97 C9.26 -0.68, 52.1 0.5, 62.94 0.59 M0.58 1.14 C10.66 1.17, 51.47 -1.15, 61.99 -1.22" stroke="#e03131" stroke-width="1" fill="none"></path></g><g transform="translate(31.494140625 334.84523546360447) rotate(0 30.93750624135137 -0.04087817572201402)"><path d="M32.56 10.01 C45.92 7.66, 54.92 0.82, 63.4 -0.22 M35.04 10.95 C41.8 7.02, 52.03 3.55, 61.45 -1.83" stroke="#e03131" stroke-width="1" fill="none"></path></g><g transform="translate(31.494140625 334.84523546360447) rotate(0 30.93750624135137 -0.04087817572201402)"><path d="M31.85 -10.5 C45.29 -4.99, 54.56 -3.97, 63.4 -0.22 M34.34 -9.56 C41.33 -7.23, 51.77 -4.44, 61.45 -1.83" stroke="#e03131" stroke-width="1" fill="none"></path></g></g><mask></mask><g transform="translate(28.07776641845703 353.39601671360447) rotate(0 33.34996795654297 12.5)"><text x="33.34996795654297" y="0" font-family="Virgil, Segoe UI Emoji" font-size="20px" fill="#e03131" text-anchor="middle" style="white-space: pre;" direction="ltr" dominant-baseline="text-before-edge">In-flow</text></g></svg>