<svg xmlns="http://www.w3.org/2000/svg" xmlns:xlink="http://www.w3.org/1999/xlink" xmlns:lucid="lucid" width="1775" height="1041"><g transform="translate(-368 -2352)" lucid:page-tab-id="0_0"><path d="M755.04 2522.5v10m0 10.02v20.02m0 10v20.03m0 10v20.03m0 10v20.03m0 10v20.03m0 10.02v20.02m0 10v20.03m0 10v20.03m0 10v20.03m0 10v20.02m0 10v20.03m0 10v20.03m0 10v20.03m0 10.02v20.02m0 10v20.03m0 10.02v20m0 10.02v20.02m0 10v20.03m0 10v20.03m0 10v20.03m0 10v20.03m0 10v20.03m0 10v20.02m0 10v20.03m0 10v20.03m0 10v20.03m0 10.02v10.02" stroke="#333" fill="none"/><path d="M755.54 2522.5h-1v-.5h1z" stroke="#333" stroke-width=".05" fill="#333"/><path d="M755.04 3333.32v.52" stroke="#333" fill="none"/><path d="M736.1 2597.73a8 8 0 0 1 8-8h24a8 8 0 0 1 8 8v693.55a8 8 0 0 1-8 8h-24a8 8 0 0 1-8-8z" stroke="#f2f2f2" fill="#ced4db"/><path d="M1189.34 2522.5v10.12m0 10.13V2563m0 10.12v20.25m0 10.12v20.24m0 10.12v20.25m0 10.14v20.24m0 10.13v20.26m0 10.12v20.25m0 10.12v20.25m0 10.12v20.25m0 10.13v20.24m0 10.13v20.25m0 10.12v20.25m0 10.1v20.26m0 10.12v20.25m0 10.12v20.25m0 10.13v20.24m0 10.13v20.25m0 10.12v20.25m0 10.12v20.25m0 10.1v20.26m0 10.13v20.23m0 10.13v20.24m0 10.13v20.25m0 10.12v20.25m0 10.12v20.25m0 10.13v20.24m0 10.12v10.12" stroke="#333" fill="none"/><path d="M1189.84 2522.5h-1v-.5h1z" stroke="#333" stroke-width=".05" fill="#333"/><path d="M1189.34 3342.53v.5" stroke="#333" fill="none"/><path d="M1169.34 2657.4a8 8 0 0 1 8-8h24a8 8 0 0 1 8 8v633.88a8 8 0 0 1-8 8h-24a8 8 0 0 1-8-8z" stroke="#f2f2f2" fill="#ced4db"/><path d="M2019.26 2522.5v9.75m0 9.75v19.5m0 9.76v19.5m0 9.75v19.5m0 9.76v19.5m0 9.76v19.5m0 9.75v19.5m0 9.76v19.5m0 9.75v19.5m0 9.75v19.5m0 9.76v19.5m0 9.74v19.5m0 9.75v19.5m0 9.75v19.5m0 9.75v19.5m0 9.75v19.5m0 9.76v19.5m0 9.76v19.5m0 9.76v19.5m0 9.75v19.5m0 9.75v19.5m0 9.76v19.5m0 9.75v19.5m0 9.75v19.5m0 9.76v19.5m0 9.75v19.5m0 9.74v19.5m0 9.76v19.5m0 9.75v9.75" stroke="#333" fill="none"/><path d="M2019.76 2522.5h-1v-.5h1z" stroke="#333" stroke-width=".05" fill="#333"/><path d="M2019.26 3341.6v.5" stroke="#333" fill="none"/><path d="M1998.2 2748a8 8 0 0 1 8-8h24a8 8 0 0 1 8 8v564a8 8 0 0 1-8 8h-24a8 8 0 0 1-8-8z" stroke="#f2f2f2" fill="#ced4db"/><path d="M660 2408a8 8 0 0 1 8-8h174.08a8 8 0 0 1 8 8v106a8 8 0 0 1-8 8H668a8 8 0 0 1-8-8z" stroke="#000" stroke-opacity="0" fill="#ffaf28"/><use xlink:href="#a" transform="matrix(1,0,0,1,668,2408) translate(42.141975308641975 56.55555555555555)"/><use xlink:href="#b" transform="matrix(1,0,0,1,668,2408) translate(76.6604938271605 56.55555555555555)"/><path d="M1094.3 2408a8 8 0 0 1 8-8h174.07a8 8 0 0 1 8 8v106a8 8 0 0 1-8 8H1102.3a8 8 0 0 1-8-8z" stroke="#000" stroke-opacity="0" fill="#ffcc78"/><use xlink:href="#c" transform="matrix(1,0,0,1,1102.2981381369075,2408) translate(41.203703703703695 56.55555555555555)"/><path d="M1924.22 2408a8 8 0 0 1 8-8h174.08a8 8 0 0 1 8 8v106a8 8 0 0 1-8 8h-174.08a8 8 0 0 1-8-8z" stroke="#000" stroke-opacity="0" fill="#ffe6be"/><use xlink:href="#d" transform="matrix(1,0,0,1,1932.2228829191477,2408) translate(47.57407407407407 56.55555555555555)"/><path d="M459.75 2457.42c0 10.9-8.84 19.75-19.75 19.75-10.9 0-19.75-8.85-19.75-19.75s8.84-19.75 19.75-19.75c10.9 0 19.75 8.84 19.75 19.75z" stroke="#333" fill="#fff"/><path d="M440 2477.17v47.3a27.6 27.6 0 0 0 4.28 14.76l35.72 56.44m-40-63.2l-40 63.2m0-98.75h80" stroke="#333" fill="none"/><path d="M400 2445.67a8 8 0 0 1 8-8h64a8 8 0 0 1 8 8v164a8 8 0 0 1-8 8h-64a8 8 0 0 1-8-8z" fill="none"/><use xlink:href="#e" transform="matrix(1,0,0,1,320,2595.6655519423593) translate(99.28395061728395 14.555555555555555)"/><path d="M440.5 2533.4l.45.04.45.1.42.18.4.24.34.3.3.34.23.4.16.4.1.45.05.46v9.95m0 9.94v19.88m0 9.94v19.88m0 9.94v19.9m0 9.93v19.88m0 9.94v19.88m0 9.94v19.88m0 9.95v19.88m0 9.94v19.9m0 9.93v19.88m0 9.94v19.9m0 9.93v19.88m0 9.95v19.88m0 9.94v19.9m0 9.93v19.88m0 9.95v19.9m0 9.93v19.88m0 9.95v19.9m0 9.93v19.88m0 9.96v19.88m0 9.94v19.9m0 9.93v19.9m0 9.93v19.9m0 9.93v19.88m0 9.95v19.87m0 9.94v19.9m0 9.94v19.88m0 9.94v9.95M440.5 2533.4H437M443.4 3341.6v.5M443.9 2675.67h275.33M443.92 2675.67h-.5" stroke="#333" fill="none"/><path d="M734 2675.67l-14.27 4.63v-9.27z" stroke="#333" fill="#333"/><use xlink:href="#f" transform="matrix(1,0,0,1,476.4970734564264,2679.665699217861) translate(0.0049999999999954525 14.222222222222223)"/><use xlink:href="#g" transform="matrix(1,0,0,1,476.4970734564264,2679.665699217861) translate(53.28895061728395 14.222222222222223)"/><use xlink:href="#h" transform="matrix(1,0,0,1,476.4970734564264,2679.665699217861) translate(220.10376543209884 14.222222222222223)"/><path d="M777.1 2894h375.35" stroke="#333" fill="none"/><path d="M777.12 2894.5h-.5v-1h.5z" stroke="#333" stroke-width=".05" fill="#333"/><path d="M1167.22 2894l-14.27 4.64v-9.28z" stroke="#333" fill="#333"/><use xlink:href="#i" transform="matrix(1,0,0,1,866.130766066579,2898.000141625886) translate(0.0049999999999954525 14.222222222222223)"/><use xlink:href="#j" transform="matrix(1,0,0,1,866.130766066579,2898.000141625886) translate(64.15314814814815 14.222222222222223)"/><use xlink:href="#k" transform="matrix(1,0,0,1,866.130766066579,2898.000141625886) translate(93.78277777777778 14.222222222222223)"/><use xlink:href="#l" transform="matrix(1,0,0,1,866.130766066579,2898.000141625886) translate(141.14080246913582 14.222222222222223)"/><path d="M1210.34 3036.5h770.96" stroke="#333" fill="none"/><path d="M1210.35 3037h-.5v-1h.5z" stroke="#333" stroke-width=".05" fill="#333"/><path d="M1996.07 3036.5l-14.27 4.63v-9.27z" stroke="#333" fill="#333"/><use xlink:href="#m" transform="matrix(1,0,0,1,1421.3810809489153,3040.4961036727154) translate(0.0049999999999954525 14.222222222222223)"/><use xlink:href="#j" transform="matrix(1,0,0,1,1421.3810809489153,3040.4961036727154) translate(64.05438271604939 14.222222222222223)"/><use xlink:href="#l" transform="matrix(1,0,0,1,1421.3810809489153,3040.4961036727154) translate(93.68401234567902 14.222222222222223)"/><path d="M1997.2 3094.5H1226.2" stroke="#333" fill="none"/><path d="M1997.7 3095h-.53v-1h.52z" stroke="#333" stroke-width=".05" fill="#333"/><path d="M1211.45 3094.5l14.27-4.64v9.28z" stroke="#333" fill="#333"/><use xlink:href="#n" transform="matrix(1,0,0,1,1425.5709915396478,3098.5000026136045) translate(0.0049999999999954525 14.222222222222223)"/><use xlink:href="#o" transform="matrix(1,0,0,1,1425.5709915396478,3098.5000026136045) translate(51.26425925925926 14.222222222222223)"/><use xlink:href="#p" transform="matrix(1,0,0,1,1425.5709915396478,3098.5000026136045) translate(80.8938888888889 14.222222222222223)"/><path d="M735.1 3259.45H459.8" stroke="#333" fill="none"/><path d="M735.6 3259.95h-.5v-1h.5z" stroke="#333" stroke-width=".05" fill="#333"/><path d="M445.03 3259.45l14.26-4.63v9.27z" stroke="#333" fill="#333"/><use xlink:href="#q" transform="matrix(1,0,0,1,491.8551420804966,3263.4522124176983) translate(0.0049999999999954525 14.222222222222223)"/><use xlink:href="#r" transform="matrix(1,0,0,1,491.8551420804966,3263.4522124176983) translate(77.98030864197531 14.222222222222223)"/><use xlink:href="#s" transform="matrix(1,0,0,1,491.8551420804966,3263.4522124176983) translate(114.42475308641977 14.222222222222223)"/><use xlink:href="#t" transform="matrix(1,0,0,1,491.8551420804966,3263.4522124176983) translate(144.05438271604942 14.222222222222223)"/><use xlink:href="#u" transform="matrix(1,0,0,1,491.8551420804966,3263.4522124176983) translate(181.5358641975309 14.222222222222223)"/><path d="M1210.34 3145.3h770.96" stroke="#333" fill="none"/><path d="M1210.35 3145.8h-.5v-1h.5z" stroke="#333" stroke-width=".05" fill="#333"/><path d="M1996.07 3145.3l-14.27 4.63v-9.27z" stroke="#333" fill="#333"/><use xlink:href="#v" transform="matrix(1,0,0,1,1437.6868281355419,3149.2989433074345) translate(0.0049999999999954525 14.222222222222223)"/><use xlink:href="#w" transform="matrix(1,0,0,1,1437.6868281355419,3149.2989433074345) translate(61.1408024691358 14.222222222222223)"/><path d="M1168.34 3201.57H793" stroke="#3a414a" fill="none"/><path d="M1168.84 3202.07h-.52v-1h.52z" stroke="#3a414a" stroke-width=".05" fill="#3a414a"/><path d="M778.23 3201.57l14.27-4.63v9.27z" stroke="#3a414a" fill="#3a414a"/><use xlink:href="#x" transform="matrix(1,0,0,1,920.8234928591938,3205.573632578089) translate(0.005000000000002558 14.4)"/><use xlink:href="#y" transform="matrix(1,0,0,1,920.8234928591938,3205.573632578089) translate(51.905 14.4)"/><use xlink:href="#z" transform="matrix(1,0,0,1,920.8234928591938,3205.573632578089) translate(89.85499999999999 14.4)"/><path d="M1604.3 2522.5v9.75m0 9.75v19.5m0 9.76v19.5m0 9.75v19.5m0 9.76v19.5m0 9.76v19.5m0 9.75v19.5m0 9.76v19.5m0 9.75v19.5m0 9.75v19.5m0 9.76v19.5m0 9.74v19.5m0 9.75v19.5m0 9.75v19.5m0 9.75v19.5m0 9.75v19.5m0 9.76v19.5m0 9.76v19.5m0 9.76v19.5m0 9.75v19.5m0 9.75v19.5m0 9.76v19.5m0 9.75v19.5m0 9.75v19.5m0 9.76v19.5m0 9.75v19.5m0 9.74v19.5m0 9.76v19.5m0 9.75v9.75" stroke="#333" fill="none"/><path d="M1604.8 2522.5h-1v-.5h1z" stroke="#333" stroke-width=".05" fill="#333"/><path d="M1604.3 3341.6v.5" stroke="#333" fill="none"/><path d="M1509.26 2408a8 8 0 0 1 8-8h174.08a8 8 0 0 1 8 8v106a8 8 0 0 1-8 8h-174.08a8 8 0 0 1-8-8z" stroke="#000" stroke-opacity="0" fill="#ffcc78"/><use xlink:href="#A" transform="matrix(1,0,0,1,1517.2605105280277,2408) translate(23.84567901234567 56.55555555555555)"/><use xlink:href="#B" transform="matrix(1,0,0,1,1517.2605105280277,2408) translate(122.51234567901236 56.55555555555555)"/><path d="M1583.63 2728a8 8 0 0 1 8-8h24a8 8 0 0 1 8 8v104a8 8 0 0 1-8 8h-24a8 8 0 0 1-8-8z" stroke="#f2f2f2" fill="#ced4db"/><path d="M1316.5 2760.5h-106.16v-1h106.17zm250.25 0h-90.3v-1h90.3z" stroke="#3a414a" stroke-width=".05" fill="#3a414a"/><path d="M1210.35 2760.5h-.5v-1h.5z" fill="#3a414a"/><path d="M1210.37 2760.53h-.56v-1.06h.57zm-.5-1v.94h.45v-.94z" stroke="#3a414a" stroke-width=".05" fill="#3a414a"/><path d="M1581.52 2760l-14.27 4.64v-9.28z" fill="#3a414a"/><path d="M1583.13 2760l-16.38 5.32v-10.64zm-15.38 3.95l12.15-3.95-12.15-3.95z" stroke="#3a414a" stroke-width=".05" fill="#3a414a"/><use xlink:href="#C" transform="matrix(1,0,0,1,1316.5097997482562,2749.2000000000016) translate(0.0049999999999954525 14.4)"/><use xlink:href="#D" transform="matrix(1,0,0,1,1316.5097997482562,2749.2000000000016) translate(30.004999999999995 14.4)"/><use xlink:href="#E" transform="matrix(1,0,0,1,1316.5097997482562,2749.2000000000016) translate(85.005 14.4)"/><path d="M1330.16 2768a8 8 0 0 1 8-8h144a8 8 0 0 1 8 8v44a8 8 0 0 1-8 8h-144a8 8 0 0 1-8-8z" stroke="#000" stroke-opacity="0" fill="#fff" fill-opacity="0"/><g><use xlink:href="#F" transform="matrix(1,0,0,1,1335.1643266114565,2765) translate(5.85 17.525)"/><use xlink:href="#G" transform="matrix(1,0,0,1,1335.1643266114565,2765) translate(18 17.525)"/><use xlink:href="#H" transform="matrix(1,0,0,1,1335.1643266114565,2765) translate(73 17.525)"/><use xlink:href="#F" transform="matrix(1,0,0,1,1335.1643266114565,2765) translate(5.85 39.125)"/><use xlink:href="#I" transform="matrix(1,0,0,1,1335.1643266114565,2765) translate(18 39.125)"/><use xlink:href="#J" transform="matrix(1,0,0,1,1335.1643266114565,2765) translate(95.95 39.125)"/></g><path d="M1582.63 2820h-356.4" stroke="#3a414a" fill="none"/><path d="M1583.13 2820.5h-.5v-1h.5z" stroke="#3a414a" stroke-width=".05" fill="#3a414a"/><path d="M1211.45 2820l14.27-4.64v9.28z" stroke="#3a414a" fill="#3a414a"/><g><use xlink:href="#x" transform="matrix(1,0,0,1,1309.5598333271107,2824.000000000001) translate(0.0049999999999954525 14.4)"/><use xlink:href="#K" transform="matrix(1,0,0,1,1309.5598333271107,2824.000000000001) translate(51.904999999999994 14.4)"/><use xlink:href="#J" transform="matrix(1,0,0,1,1309.5598333271107,2824.000000000001) translate(129.855 14.4)"/></g><path d="M1981.3 2759.5v1h-110.66v-1zm-356.17 1v-1h126.55v1z" stroke="#3a414a" stroke-width=".05" fill="#3a414a"/><path d="M1625.15 2760.5h-.52v-1h.52z" stroke="#3a414a" stroke-width=".05" fill="#3a414a"/><path d="M1996.07 2760l-14.27 4.64v-9.28z" fill="#3a414a"/><path d="M1997.7 2760l-16.4 5.32v-10.64zm-15.4 3.95l12.15-3.95-12.15-3.95z" stroke="#3a414a" stroke-width=".05" fill="#3a414a"/><g><use xlink:href="#L" transform="matrix(1,0,0,1,1751.685398036279,2749.2000000005046) translate(0.005000000000002558 14.4)"/><use xlink:href="#E" transform="matrix(1,0,0,1,1751.685398036279,2749.2000000005046) translate(44.005 14.4)"/></g><path d="M1811.16 2789.2h186.03v1H1641v-1z" stroke="#3a414a" stroke-width=".05" fill="#3a414a"/><path d="M1997.7 2790.2h-.53v-1h.52z" fill="#3a414a"/><path d="M1997.7 2790.24h-.55v-1.05h.56zm-.5-1v.95h.46v-.96z" stroke="#3a414a" stroke-width=".05" fill="#3a414a"/><path d="M1640.52 2794.35l-14.27-4.64 14.27-4.62z" fill="#3a414a"/><path d="M1641.02 2795.03l-16.38-5.32 16.38-5.3zm-13.15-5.32l12.15 3.96v-7.9z" stroke="#3a414a" stroke-width=".05" fill="#3a414a"/><g><use xlink:href="#x" transform="matrix(1,0,0,1,1713.3104145566283,2793.711138522562) translate(0.0049999999999954525 14.4)"/><use xlink:href="#D" transform="matrix(1,0,0,1,1713.3104145566283,2793.711138522562) translate(51.904999999999994 14.4)"/><use xlink:href="#M" transform="matrix(1,0,0,1,1713.3104145566283,2793.711138522562) translate(106.905 14.4)"/></g><defs><path fill="#333" d="M66-151c12-25 30-51 66-40l-6 26C45-176 58-65 38 0H6l36-190h30" id="N"/><path fill="#333" d="M111-194c62-3 86 47 72 106H45c-7 38 6 69 45 68 27-1 43-14 53-32l24 11C152-15 129 4 87 4 38 3 12-23 12-71c0-70 32-119 99-123zm44 81c14-66-71-72-95-28-4 8-8 17-11 28h106" id="O"/><path fill="#333" d="M55-144c13 50 104 24 104 88C159 21 15 23 1-39l26-10c6 40 102 42 102-4-13-50-104-23-104-87 0-71 143-71 148-8l-29 4c-5-35-85-37-89 0" id="P"/><path fill="#333" d="M51-54c-9 22 5 41 31 30L79-1C43 14 10-4 19-52l22-115H19l5-23h22l19-43h21l-9 43h35l-4 23H73" id="Q"/><g id="a"><use transform="matrix(0.04938271604938272,0,0,0.04938271604938272,0,0)" xlink:href="#N"/><use transform="matrix(0.04938271604938272,0,0,0.04938271604938272,5.8765432098765435,0)" xlink:href="#O"/><use transform="matrix(0.04938271604938272,0,0,0.04938271604938272,15.753086419753087,0)" xlink:href="#P"/><use transform="matrix(0.04938271604938272,0,0,0.04938271604938272,24.641975308641978,0)" xlink:href="#Q"/><path fill="#333" d="M-.9 1.23h36.3v1.3H-.9z"/></g><path fill="#333" d="M89 0H52L20-190h33L74-25l89-165h34" id="R"/><path fill="#333" d="M50-231l6-30h32l-6 30H50zM6 0l37-190h31L37 0H6" id="S"/><path fill="#333" d="M44-68c0 29 11 47 38 47 30 0 42-19 51-41l28 9C148-21 126 4 82 4 31 4 10-29 12-85c3-77 74-140 146-93 12 8 15 23 18 40l-31 5c-1-22-13-36-36-36-52 0-65 49-65 101" id="T"/><g id="b"><use transform="matrix(0.04938271604938272,0,0,0.04938271604938272,0,0)" xlink:href="#P"/><use transform="matrix(0.04938271604938272,0,0,0.04938271604938272,8.88888888888889,0)" xlink:href="#O"/><use transform="matrix(0.04938271604938272,0,0,0.04938271604938272,18.765432098765434,0)" xlink:href="#N"/><use transform="matrix(0.04938271604938272,0,0,0.04938271604938272,24.641975308641978,0)" xlink:href="#R"/><use transform="matrix(0.04938271604938272,0,0,0.04938271604938272,33.53086419753087,0)" xlink:href="#S"/><use transform="matrix(0.04938271604938272,0,0,0.04938271604938272,37.4320987654321,0)" xlink:href="#T"/><use transform="matrix(0.04938271604938272,0,0,0.04938271604938272,46.32098765432099,0)" xlink:href="#O"/><path fill="#333" d="M-.9 1.23h58v1.3h-58z"/></g><path fill="#333" d="M67-162c32-53 139-36 121 50C175-51 163 2 97 4 68 4 52-11 42-31 38 6 28 39 22 75H-9l50-265h29c-1 10 0 20-3 28zm89 36c0-26-10-43-35-43-54 0-67 50-69 103-1 29 14 45 42 46 53 0 62-58 62-106" id="U"/><path fill="#333" d="M6 0l50-261h32L37 0H6" id="V"/><path fill="#333" d="M165-48c-4 18 1 34 23 27l-3 20c-29 8-62 0-52-35h-2C116-14 99 4 63 4 30 4 8-16 8-49c0-68 71-67 138-67 10-26 0-56-31-54-26 1-42 9-47 31l-32-5c8-67 160-71 144 15-5 28-9 54-15 81zM42-50c3 52 80 24 89-6 7-12 7-24 11-38-47 1-103-4-100 44" id="W"/><path fill="#333" d="M198-190L69 30C53 58 25 83-20 72c4-11-1-27 19-22 33-1 43-29 59-52L20-190h32L79-34l84-156h35" id="X"/><path fill="#333" d="M18-82l6-28h88l-6 28H18" id="Y"/><g id="c"><use transform="matrix(0.04938271604938272,0,0,0.04938271604938272,0,0)" xlink:href="#N"/><use transform="matrix(0.04938271604938272,0,0,0.04938271604938272,5.8765432098765435,0)" xlink:href="#O"/><use transform="matrix(0.04938271604938272,0,0,0.04938271604938272,15.753086419753087,0)" xlink:href="#U"/><use transform="matrix(0.04938271604938272,0,0,0.04938271604938272,25.629629629629633,0)" xlink:href="#V"/><use transform="matrix(0.04938271604938272,0,0,0.04938271604938272,29.530864197530867,0)" xlink:href="#W"/><use transform="matrix(0.04938271604938272,0,0,0.04938271604938272,39.40740740740741,0)" xlink:href="#X"/><use transform="matrix(0.04938271604938272,0,0,0.04938271604938272,48.296296296296305,0)" xlink:href="#Y"/><use transform="matrix(0.04938271604938272,0,0,0.04938271604938272,54.17283950617284,0)" xlink:href="#V"/><use transform="matrix(0.04938271604938272,0,0,0.04938271604938272,58.074074074074076,0)" xlink:href="#W"/><use transform="matrix(0.04938271604938272,0,0,0.04938271604938272,67.95061728395063,0)" xlink:href="#X"/><use transform="matrix(0.04938271604938272,0,0,0.04938271604938272,76.83950617283952,0)" xlink:href="#O"/><use transform="matrix(0.04938271604938272,0,0,0.04938271604938272,86.71604938271606,0)" xlink:href="#N"/><path fill="#333" d="M-.9 1.23H93.5v1.3H-.9z"/></g><path fill="#333" d="M249-183c0 48-29 72-75 77L221 0h-36l-43-103H65L45 0H11l48-248c83 2 190-17 190 65zm-34 3c0-55-74-39-127-41l-18 92c63-1 145 13 145-51" id="Z"/><path fill="#333" d="M68-162c25-46 127-43 121 31C183-60 169 1 98 4 69 5 53-11 43-31L36 0H5l52-261h31zm88 36c2-27-9-43-34-43-55 0-70 51-70 103 0 29 15 45 43 46 52 0 58-58 61-106" id="aa"/><path fill="#333" d="M222 0l43-216c-8 16-17 34-26 49L143 0h-22L81-216 41 0H11l48-248h42l38 208 116-208h45L252 0h-30" id="ab"/><path fill="#333" d="M24-61C-1-165 59-251 163-251c67 1 105 36 105 101 0 88-46 140-124 152 2 33 24 47 60 39l-3 23c-50 15-89-11-89-61-46-3-79-26-88-64zm210-73c6-55-18-91-72-90-77 1-111 51-111 125 0 49 24 75 73 75 72 0 103-45 110-110" id="ac"/><g id="d"><use transform="matrix(0.04938271604938272,0,0,0.04938271604938272,0,0)" xlink:href="#Z"/><use transform="matrix(0.04938271604938272,0,0,0.04938271604938272,12.790123456790125,0)" xlink:href="#W"/><use transform="matrix(0.04938271604938272,0,0,0.04938271604938272,22.66666666666667,0)" xlink:href="#aa"/><use transform="matrix(0.04938271604938272,0,0,0.04938271604938272,32.543209876543216,0)" xlink:href="#aa"/><use transform="matrix(0.04938271604938272,0,0,0.04938271604938272,42.41975308641976,0)" xlink:href="#S"/><use transform="matrix(0.04938271604938272,0,0,0.04938271604938272,46.320987654320994,0)" xlink:href="#Q"/><use transform="matrix(0.04938271604938272,0,0,0.04938271604938272,51.25925925925927,0)" xlink:href="#ab"/><use transform="matrix(0.04938271604938272,0,0,0.04938271604938272,66.0246913580247,0)" xlink:href="#ac"/><path fill="#333" d="M-.9 1.23h81.64v1.3H-.9z"/></g><path fill="#333" d="M187 0l-14-72H61L19 0h-37l149-248h38L221 0h-34zm-19-99l-22-123L76-99h92" id="ad"/><path fill="#333" d="M30-147c31-64 166-65 159 27C183-49 158 1 86 4 9 8 1-88 30-147zM88-20c53 0 68-48 68-100 0-31-11-51-44-50-52 1-68 46-68 97 0 32 13 53 44 53" id="ae"/><g id="e"><use transform="matrix(0.04938271604938272,0,0,0.04938271604938272,0,0)" xlink:href="#ad"/><use transform="matrix(0.04938271604938272,0,0,0.04938271604938272,11.851851851851853,0)" xlink:href="#T"/><use transform="matrix(0.04938271604938272,0,0,0.04938271604938272,20.74074074074074,0)" xlink:href="#Q"/><use transform="matrix(0.04938271604938272,0,0,0.04938271604938272,25.679012345679016,0)" xlink:href="#ae"/><use transform="matrix(0.04938271604938272,0,0,0.04938271604938272,35.55555555555556,0)" xlink:href="#N"/></g><path fill="#333" d="M238-179c0 84-86 86-175 82L45 0H11l48-248c82 0 179-12 179 69zm-34 1c0-53-64-42-116-43l-19 98c63 0 135 9 135-55" id="af"/><path fill="#333" d="M20-101c0-91 52-143 145-150 126-9 127 168 53 223-23 17-55 32-93 32C57 4 20-33 20-101zm216-33c5-57-18-91-73-90-77 1-110 51-110 125 0 49 23 75 73 75 72-1 104-45 110-110" id="ag"/><path fill="#333" d="M194-120c59 52 2 134-86 124-53-6-90-18-98-63l31-7c8 30 29 43 70 43 46 0 84-17 71-62-32-43-135-20-137-98-3-89 178-90 191-16l-30 9c-8-48-127-53-127 5 0 53 81 35 115 65" id="ah"/><path fill="#333" d="M151-220L108 0H75l42-220H32l6-28h203l-5 28h-85" id="ai"/><g id="f"><use transform="matrix(0.04938271604938272,0,0,0.04938271604938272,0,0)" xlink:href="#af"/><use transform="matrix(0.04938271604938272,0,0,0.04938271604938272,11.851851851851853,0)" xlink:href="#ag"/><use transform="matrix(0.04938271604938272,0,0,0.04938271604938272,25.679012345679016,0)" xlink:href="#ah"/><use transform="matrix(0.04938271604938272,0,0,0.04938271604938272,37.53086419753087,0)" xlink:href="#ai"/></g><path fill="#333" d="M54 8c-6 25-1 50 32 44l-5 23C4 86 23 3 35-54c0-20-11-27-31-28l4-22c93-3 3-173 138-157l-4 23c-85-8-22 124-103 145C80-84 62-28 54 8" id="aj"/><path fill="#333" d="M133-28C103 26-5 8 13-77c13-62 24-115 90-117 29-1 46 15 56 35 2-12 6-24 8-34h31L144 75h-31zM45-64c-2 27 10 43 35 43 54-1 69-50 69-103 0-29-15-46-42-46-53-1-58 58-62 106" id="ak"/><path fill="#333" d="M67 3c-93-2-31-127-26-193h32L48-50c-3 39 53 32 70 12 30-34 30-101 43-152h32L157 0h-30c1-10 6-24 4-33-14 20-29 37-64 36" id="al"/><path fill="#333" d="M58-38C53-5 46 26 28 46H7C19 32 27 18 32 0H17l7-38h34" id="am"/><path fill="#333" d="M67-158c22-48 132-52 116 29L158 0h-32l25-140c3-38-53-32-70-12C52-117 51-52 38 0H6l36-190h30" id="an"/><path fill="#333" d="M14 0l48-248h34L48 0H14" id="ao"/><path fill="#333" d="M133-28C103 26-5 8 13-77c13-62 24-115 90-117 29-1 46 15 56 35l19-102h32L160 0h-30zM45-64c-2 27 10 43 35 43 54-1 69-50 69-103 0-29-15-46-42-46-53-1-58 58-62 106" id="ap"/><g id="g"><use transform="matrix(0.04938271604938272,0,0,0.04938271604938272,0,0)" xlink:href="#aj"/><use transform="matrix(0.04938271604938272,0,0,0.04938271604938272,5.9259259259259265,0)" xlink:href="#ak"/><use transform="matrix(0.04938271604938272,0,0,0.04938271604938272,15.80246913580247,0)" xlink:href="#al"/><use transform="matrix(0.04938271604938272,0,0,0.04938271604938272,25.679012345679016,0)" xlink:href="#O"/><use transform="matrix(0.04938271604938272,0,0,0.04938271604938272,35.55555555555556,0)" xlink:href="#al"/><use transform="matrix(0.04938271604938272,0,0,0.04938271604938272,45.4320987654321,0)" xlink:href="#O"/><use transform="matrix(0.04938271604938272,0,0,0.04938271604938272,55.308641975308646,0)" xlink:href="#am"/><use transform="matrix(0.04938271604938272,0,0,0.04938271604938272,60.24691358024692,0)" xlink:href="#Q"/><use transform="matrix(0.04938271604938272,0,0,0.04938271604938272,65.18518518518519,0)" xlink:href="#N"/><use transform="matrix(0.04938271604938272,0,0,0.04938271604938272,71.06172839506173,0)" xlink:href="#W"/><use transform="matrix(0.04938271604938272,0,0,0.04938271604938272,80.93827160493828,0)" xlink:href="#an"/><use transform="matrix(0.04938271604938272,0,0,0.04938271604938272,90.81481481481482,0)" xlink:href="#P"/><use transform="matrix(0.04938271604938272,0,0,0.04938271604938272,99.70370370370371,0)" xlink:href="#W"/><use transform="matrix(0.04938271604938272,0,0,0.04938271604938272,109.58024691358025,0)" xlink:href="#T"/><use transform="matrix(0.04938271604938272,0,0,0.04938271604938272,118.46913580246914,0)" xlink:href="#Q"/><use transform="matrix(0.04938271604938272,0,0,0.04938271604938272,123.40740740740742,0)" xlink:href="#S"/><use transform="matrix(0.04938271604938272,0,0,0.04938271604938272,127.30864197530865,0)" xlink:href="#ae"/><use transform="matrix(0.04938271604938272,0,0,0.04938271604938272,137.18518518518522,0)" xlink:href="#an"/><use transform="matrix(0.04938271604938272,0,0,0.04938271604938272,147.06172839506178,0)" xlink:href="#ao"/><use transform="matrix(0.04938271604938272,0,0,0.04938271604938272,152.00000000000006,0)" xlink:href="#ap"/></g><path fill="#333" d="M65-194c6-26 0-49-32-44l4-23c79-12 59 72 46 129 1 20 12 27 32 28l-5 22C18-77 106 91-28 75l4-23C62 61-3-72 79-93c-41-8-21-66-14-101" id="aq"/><use transform="matrix(0.04938271604938272,0,0,0.04938271604938272,0,0)" xlink:href="#aq" id="h"/><g id="i"><use transform="matrix(0.04938271604938272,0,0,0.04938271604938272,0,0)" xlink:href="#N"/><use transform="matrix(0.04938271604938272,0,0,0.04938271604938272,5.8765432098765435,0)" xlink:href="#O"/><use transform="matrix(0.04938271604938272,0,0,0.04938271604938272,15.753086419753087,0)" xlink:href="#ak"/><use transform="matrix(0.04938271604938272,0,0,0.04938271604938272,25.629629629629633,0)" xlink:href="#al"/><use transform="matrix(0.04938271604938272,0,0,0.04938271604938272,35.50617283950618,0)" xlink:href="#O"/><use transform="matrix(0.04938271604938272,0,0,0.04938271604938272,45.38271604938272,0)" xlink:href="#P"/><use transform="matrix(0.04938271604938272,0,0,0.04938271604938272,54.27160493827161,0)" xlink:href="#Q"/></g><path fill="#333" d="M67-158c15-20 31-36 64-36 94 0 33 127 27 194h-32l25-140c3-38-53-32-70-12C52-117 51-51 37 0H6l51-261h31" id="ar"/><g id="j"><use transform="matrix(0.04938271604938272,0,0,0.04938271604938272,0,0)" xlink:href="#Q"/><use transform="matrix(0.04938271604938272,0,0,0.04938271604938272,4.938271604938272,0)" xlink:href="#ar"/><use transform="matrix(0.04938271604938272,0,0,0.04938271604938272,14.814814814814817,0)" xlink:href="#O"/></g><path fill="#333" d="M103-194c29 0 47 14 56 36 2-11 5-23 8-32h30L160-5C157 61 82 97 21 62 9 55 4 45 1 30l28-7c7 42 83 31 92-3 4-16 9-38 13-55-13 20-29 36-62 36-40 0-60-25-60-64 0-71 23-131 91-131zm4 24c-53 0-58 54-61 104-2 27 10 44 36 44 49 0 65-50 67-102 1-29-15-46-42-46" id="as"/><g id="k"><use transform="matrix(0.04938271604938272,0,0,0.04938271604938272,0,0)" xlink:href="#as"/><use transform="matrix(0.04938271604938272,0,0,0.04938271604938272,9.876543209876544,0)" xlink:href="#S"/><use transform="matrix(0.04938271604938272,0,0,0.04938271604938272,13.777777777777779,0)" xlink:href="#R"/><use transform="matrix(0.04938271604938272,0,0,0.04938271604938272,22.666666666666668,0)" xlink:href="#O"/><use transform="matrix(0.04938271604938272,0,0,0.04938271604938272,32.543209876543216,0)" xlink:href="#an"/></g><path fill="#333" d="M248-111c6-24 9-61-24-58-72 9-57 108-77 169h-31l26-142c3-37-50-30-64-10C52-115 50-51 37 0H6l36-190h30c-1 10-6 24-4 32 13-43 101-52 105 5 13-22 29-41 61-41 90 0 28 129 23 194h-31" id="at"/><g id="l"><use transform="matrix(0.04938271604938272,0,0,0.04938271604938272,0,0)" xlink:href="#at"/><use transform="matrix(0.04938271604938272,0,0,0.04938271604938272,14.765432098765434,0)" xlink:href="#O"/><use transform="matrix(0.04938271604938272,0,0,0.04938271604938272,24.641975308641978,0)" xlink:href="#P"/><use transform="matrix(0.04938271604938272,0,0,0.04938271604938272,33.53086419753087,0)" xlink:href="#P"/><use transform="matrix(0.04938271604938272,0,0,0.04938271604938272,42.41975308641976,0)" xlink:href="#W"/><use transform="matrix(0.04938271604938272,0,0,0.04938271604938272,52.2962962962963,0)" xlink:href="#as"/><use transform="matrix(0.04938271604938272,0,0,0.04938271604938272,62.17283950617284,0)" xlink:href="#O"/></g><g id="m"><use transform="matrix(0.04938271604938272,0,0,0.04938271604938272,0,0)" xlink:href="#N"/><use transform="matrix(0.04938271604938272,0,0,0.04938271604938272,5.8765432098765435,0)" xlink:href="#O"/><use transform="matrix(0.04938271604938272,0,0,0.04938271604938272,15.753086419753087,0)" xlink:href="#Q"/><use transform="matrix(0.04938271604938272,0,0,0.04938271604938272,20.69135802469136,0)" xlink:href="#N"/><use transform="matrix(0.04938271604938272,0,0,0.04938271604938272,26.567901234567902,0)" xlink:href="#S"/><use transform="matrix(0.04938271604938272,0,0,0.04938271604938272,30.46913580246914,0)" xlink:href="#O"/><use transform="matrix(0.04938271604938272,0,0,0.04938271604938272,40.345679012345684,0)" xlink:href="#R"/><use transform="matrix(0.04938271604938272,0,0,0.04938271604938272,49.23456790123457,0)" xlink:href="#O"/></g><g id="n"><use transform="matrix(0.04938271604938272,0,0,0.04938271604938272,0,0)" xlink:href="#N"/><use transform="matrix(0.04938271604938272,0,0,0.04938271604938272,5.8765432098765435,0)" xlink:href="#O"/><use transform="matrix(0.04938271604938272,0,0,0.04938271604938272,15.753086419753087,0)" xlink:href="#Q"/><use transform="matrix(0.04938271604938272,0,0,0.04938271604938272,20.69135802469136,0)" xlink:href="#al"/><use transform="matrix(0.04938271604938272,0,0,0.04938271604938272,30.567901234567906,0)" xlink:href="#N"/><use transform="matrix(0.04938271604938272,0,0,0.04938271604938272,36.44444444444445,0)" xlink:href="#an"/></g><g id="o"><use transform="matrix(0.04938271604938272,0,0,0.04938271604938272,0,0)" xlink:href="#Q"/><use transform="matrix(0.04938271604938272,0,0,0.04938271604938272,4.938271604938272,0)" xlink:href="#ar"/><use transform="matrix(0.04938271604938272,0,0,0.04938271604938272,14.814814814814817,0)" xlink:href="#O"/></g><g id="p"><use transform="matrix(0.04938271604938272,0,0,0.04938271604938272,0,0)" xlink:href="#at"/><use transform="matrix(0.04938271604938272,0,0,0.04938271604938272,14.765432098765434,0)" xlink:href="#O"/><use transform="matrix(0.04938271604938272,0,0,0.04938271604938272,24.641975308641978,0)" xlink:href="#P"/><use transform="matrix(0.04938271604938272,0,0,0.04938271604938272,33.53086419753087,0)" xlink:href="#P"/><use transform="matrix(0.04938271604938272,0,0,0.04938271604938272,42.41975308641976,0)" xlink:href="#W"/><use transform="matrix(0.04938271604938272,0,0,0.04938271604938272,52.2962962962963,0)" xlink:href="#as"/><use transform="matrix(0.04938271604938272,0,0,0.04938271604938272,62.17283950617284,0)" xlink:href="#O"/><use transform="matrix(0.04938271604938272,0,0,0.04938271604938272,72.0493827160494,0)" xlink:href="#P"/></g><g id="q"><use transform="matrix(0.04938271604938272,0,0,0.04938271604938272,0,0)" xlink:href="#N"/><use transform="matrix(0.04938271604938272,0,0,0.04938271604938272,5.8765432098765435,0)" xlink:href="#O"/><use transform="matrix(0.04938271604938272,0,0,0.04938271604938272,15.753086419753087,0)" xlink:href="#P"/><use transform="matrix(0.04938271604938272,0,0,0.04938271604938272,24.641975308641978,0)" xlink:href="#U"/><use transform="matrix(0.04938271604938272,0,0,0.04938271604938272,34.51851851851852,0)" xlink:href="#ae"/><use transform="matrix(0.04938271604938272,0,0,0.04938271604938272,44.39506172839506,0)" xlink:href="#an"/><use transform="matrix(0.04938271604938272,0,0,0.04938271604938272,54.27160493827161,0)" xlink:href="#P"/><use transform="matrix(0.04938271604938272,0,0,0.04938271604938272,63.1604938271605,0)" xlink:href="#O"/></g><path fill="#333" d="M188 0h-37l-8-164L71 0H34L18-190h31l8 164 75-164h34l8 164 74-164h31" id="au"/><g id="r"><use transform="matrix(0.04938271604938272,0,0,0.04938271604938272,0,0)" xlink:href="#au"/><use transform="matrix(0.04938271604938272,0,0,0.04938271604938272,12.790123456790125,0)" xlink:href="#S"/><use transform="matrix(0.04938271604938272,0,0,0.04938271604938272,16.69135802469136,0)" xlink:href="#Q"/><use transform="matrix(0.04938271604938272,0,0,0.04938271604938272,21.629629629629633,0)" xlink:href="#ar"/></g><g id="s"><use transform="matrix(0.04938271604938272,0,0,0.04938271604938272,0,0)" xlink:href="#Q"/><use transform="matrix(0.04938271604938272,0,0,0.04938271604938272,4.938271604938272,0)" xlink:href="#ar"/><use transform="matrix(0.04938271604938272,0,0,0.04938271604938272,14.814814814814817,0)" xlink:href="#O"/></g><g id="t"><use transform="matrix(0.04938271604938272,0,0,0.04938271604938272,0,0)" xlink:href="#an"/><use transform="matrix(0.04938271604938272,0,0,0.04938271604938272,9.876543209876544,0)" xlink:href="#O"/><use transform="matrix(0.04938271604938272,0,0,0.04938271604938272,19.75308641975309,0)" xlink:href="#au"/></g><g id="u"><use transform="matrix(0.04938271604938272,0,0,0.04938271604938272,0,0)" xlink:href="#S"/><use transform="matrix(0.04938271604938272,0,0,0.04938271604938272,3.901234567901235,0)" xlink:href="#ap"/></g><g id="v"><use transform="matrix(0.04938271604938272,0,0,0.04938271604938272,0,0)" xlink:href="#U"/><use transform="matrix(0.04938271604938272,0,0,0.04938271604938272,9.876543209876544,0)" xlink:href="#al"/><use transform="matrix(0.04938271604938272,0,0,0.04938271604938272,19.75308641975309,0)" xlink:href="#aa"/><use transform="matrix(0.04938271604938272,0,0,0.04938271604938272,29.629629629629633,0)" xlink:href="#V"/><use transform="matrix(0.04938271604938272,0,0,0.04938271604938272,33.53086419753087,0)" xlink:href="#S"/><use transform="matrix(0.04938271604938272,0,0,0.04938271604938272,37.4320987654321,0)" xlink:href="#P"/><use transform="matrix(0.04938271604938272,0,0,0.04938271604938272,46.32098765432099,0)" xlink:href="#ar"/></g><g id="w"><use transform="matrix(0.04938271604938272,0,0,0.04938271604938272,0,0)" xlink:href="#at"/><use transform="matrix(0.04938271604938272,0,0,0.04938271604938272,14.765432098765434,0)" xlink:href="#O"/><use transform="matrix(0.04938271604938272,0,0,0.04938271604938272,24.641975308641978,0)" xlink:href="#P"/><use transform="matrix(0.04938271604938272,0,0,0.04938271604938272,33.53086419753087,0)" xlink:href="#P"/><use transform="matrix(0.04938271604938272,0,0,0.04938271604938272,42.41975308641976,0)" xlink:href="#W"/><use transform="matrix(0.04938271604938272,0,0,0.04938271604938272,52.2962962962963,0)" xlink:href="#as"/><use transform="matrix(0.04938271604938272,0,0,0.04938271604938272,62.17283950617284,0)" xlink:href="#O"/><use transform="matrix(0.04938271604938272,0,0,0.04938271604938272,72.0493827160494,0)" xlink:href="#P"/></g><path fill="#3a414a" d="M114-163C36-179 61-72 57 0H25l-1-190h30c1 12-1 29 2 39 6-27 23-49 58-41v29" id="av"/><path fill="#3a414a" d="M100-194c63 0 86 42 84 106H49c0 40 14 67 53 68 26 1 43-12 49-29l28 8c-11 28-37 45-77 45C44 4 14-33 15-96c1-61 26-98 85-98zm52 81c6-60-76-77-97-28-3 7-6 17-6 28h103" id="aw"/><path fill="#3a414a" d="M59-47c-2 24 18 29 38 22v24C64 9 27 4 27-40v-127H5v-23h24l9-43h21v43h35v23H59v120" id="ax"/><path fill="#3a414a" d="M84 4C-5 8 30-112 23-190h32v120c0 31 7 50 39 49 72-2 45-101 50-169h31l1 190h-30c-1-10 1-25-2-33-11 22-28 36-60 37" id="ay"/><path fill="#3a414a" d="M117-194c89-4 53 116 60 194h-32v-121c0-31-8-49-39-48C34-167 62-67 57 0H25l-1-190h30c1 10-1 24 2 32 11-22 29-35 61-36" id="az"/><g id="x"><use transform="matrix(0.05,0,0,0.05,0,0)" xlink:href="#av"/><use transform="matrix(0.05,0,0,0.05,5.95,0)" xlink:href="#aw"/><use transform="matrix(0.05,0,0,0.05,15.949999999999998,0)" xlink:href="#ax"/><use transform="matrix(0.05,0,0,0.05,20.95,0)" xlink:href="#ay"/><use transform="matrix(0.05,0,0,0.05,30.950000000000003,0)" xlink:href="#av"/><use transform="matrix(0.05,0,0,0.05,36.9,0)" xlink:href="#az"/></g><path fill="#3a414a" d="M206 0h-36l-40-164L89 0H53L-1-190h32L70-26l43-164h34l41 164 42-164h31" id="aA"/><g id="y"><use transform="matrix(0.05,0,0,0.05,0,0)" xlink:href="#az"/><use transform="matrix(0.05,0,0,0.05,10,0)" xlink:href="#aw"/><use transform="matrix(0.05,0,0,0.05,20,0)" xlink:href="#aA"/></g><path fill="#3a414a" d="M24-231v-30h32v30H24zM24 0v-190h32V0H24" id="aB"/><path fill="#3a414a" d="M85-194c31 0 48 13 60 33l-1-100h32l1 261h-30c-2-10 0-23-3-31C134-8 116 4 85 4 32 4 16-35 15-94c0-66 23-100 70-100zm9 24c-40 0-46 34-46 75 0 40 6 74 45 74 42 0 51-32 51-76 0-42-9-74-50-73" id="aC"/><g id="z"><use transform="matrix(0.05,0,0,0.05,0,0)" xlink:href="#aB"/><use transform="matrix(0.05,0,0,0.05,3.95,0)" xlink:href="#aC"/></g><g id="A"><use transform="matrix(0.04938271604938272,0,0,0.04938271604938272,0,0)" xlink:href="#at"/><use transform="matrix(0.04938271604938272,0,0,0.04938271604938272,14.765432098765434,0)" xlink:href="#W"/><use transform="matrix(0.04938271604938272,0,0,0.04938271604938272,24.641975308641978,0)" xlink:href="#an"/><use transform="matrix(0.04938271604938272,0,0,0.04938271604938272,34.51851851851852,0)" xlink:href="#W"/><use transform="matrix(0.04938271604938272,0,0,0.04938271604938272,44.39506172839506,0)" xlink:href="#O"/><use transform="matrix(0.04938271604938272,0,0,0.04938271604938272,54.27160493827161,0)" xlink:href="#at"/><use transform="matrix(0.04938271604938272,0,0,0.04938271604938272,69.03703703703704,0)" xlink:href="#O"/><use transform="matrix(0.04938271604938272,0,0,0.04938271604938272,78.91358024691358,0)" xlink:href="#an"/><use transform="matrix(0.04938271604938272,0,0,0.04938271604938272,88.79012345679013,0)" xlink:href="#Q"/><path fill="#333" d="M-.9 1.23H99.56v1.3H-.9z"/></g><g id="B"><use transform="matrix(0.04938271604938272,0,0,0.04938271604938272,0,0)" xlink:href="#ad"/><use transform="matrix(0.04938271604938272,0,0,0.04938271604938272,11.851851851851853,0)" xlink:href="#af"/><use transform="matrix(0.04938271604938272,0,0,0.04938271604938272,23.703703703703706,0)" xlink:href="#ao"/><path fill="#333" d="M-.9 1.23h30.43v1.3H-.9z"/></g><path fill="#3a414a" d="M177-190C167-65 218 103 67 71c-23-6-38-20-44-43l32-5c15 47 100 32 89-28v-30C133-14 115 1 83 1 29 1 15-40 15-95c0-56 16-97 71-98 29-1 48 16 59 35 1-10 0-23 2-32h30zM94-22c36 0 50-32 50-73 0-42-14-75-50-75-39 0-46 34-46 75s6 73 46 73" id="aD"/><g id="C"><use transform="matrix(0.05,0,0,0.05,0,0)" xlink:href="#aD"/><use transform="matrix(0.05,0,0,0.05,10,0)" xlink:href="#aw"/><use transform="matrix(0.05,0,0,0.05,20,0)" xlink:href="#ax"/></g><path fill="#3a414a" d="M145-31C134-9 116 4 85 4 32 4 16-35 15-94c0-59 17-99 70-100 32-1 48 14 60 33 0-11-1-24 2-32h30l-1 268h-32zM93-21c41 0 51-33 51-76s-8-73-50-73c-40 0-46 35-46 75s5 74 45 74" id="aE"/><g id="D"><use transform="matrix(0.05,0,0,0.05,0,0)" xlink:href="#aE"/><use transform="matrix(0.05,0,0,0.05,10,0)" xlink:href="#ay"/><use transform="matrix(0.05,0,0,0.05,20,0)" xlink:href="#aw"/><use transform="matrix(0.05,0,0,0.05,30,0)" xlink:href="#ay"/><use transform="matrix(0.05,0,0,0.05,40,0)" xlink:href="#aw"/></g><path fill="#3a414a" d="M210-169c-67 3-38 105-44 169h-31v-121c0-29-5-50-35-48C34-165 62-65 56 0H25l-1-190h30c1 10-1 24 2 32 10-44 99-50 107 0 11-21 27-35 58-36 85-2 47 119 55 194h-31v-121c0-29-5-49-35-48" id="aF"/><path fill="#3a414a" d="M141-36C126-15 110 5 73 4 37 3 15-17 15-53c-1-64 63-63 125-63 3-35-9-54-41-54-24 1-41 7-42 31l-33-3c5-37 33-52 76-52 45 0 72 20 72 64v82c-1 20 7 32 28 27v20c-31 9-61-2-59-35zM48-53c0 20 12 33 32 33 41-3 63-29 60-74-43 2-92-5-92 41" id="aG"/><g id="E"><use transform="matrix(0.05,0,0,0.05,0,0)" xlink:href="#aF"/><use transform="matrix(0.05,0,0,0.05,14.950000000000001,0)" xlink:href="#aw"/><use transform="matrix(0.05,0,0,0.05,24.950000000000003,0)" xlink:href="#ax"/><use transform="matrix(0.05,0,0,0.05,29.950000000000003,0)" xlink:href="#aG"/><use transform="matrix(0.05,0,0,0.05,39.95,0)" xlink:href="#aC"/><use transform="matrix(0.05,0,0,0.05,49.95,0)" xlink:href="#aG"/><use transform="matrix(0.05,0,0,0.05,59.95,0)" xlink:href="#ax"/><use transform="matrix(0.05,0,0,0.05,64.95,0)" xlink:href="#aG"/></g><path fill="#3a414a" d="M62-168c30 0 50 19 50 48S92-70 62-70c-29 0-48-21-48-50s20-48 48-48" id="aH"/><use transform="matrix(0.05,0,0,0.05,0,0)" xlink:href="#aH" id="F"/><g id="G"><use transform="matrix(0.05,0,0,0.05,0,0)" xlink:href="#aE"/><use transform="matrix(0.05,0,0,0.05,10,0)" xlink:href="#ay"/><use transform="matrix(0.05,0,0,0.05,20,0)" xlink:href="#aw"/><use transform="matrix(0.05,0,0,0.05,30,0)" xlink:href="#ay"/><use transform="matrix(0.05,0,0,0.05,40,0)" xlink:href="#aw"/></g><path fill="#3a414a" d="M179-190L93 31C79 59 56 82 12 73V49c39 6 53-20 64-50L1-190h34L92-34l54-156h33" id="aI"/><path fill="#3a414a" d="M115-194c55 1 70 41 70 98S169 2 115 4C84 4 66-9 55-30l1 105H24l-1-265h31l2 30c10-21 28-34 59-34zm-8 174c40 0 45-34 45-75s-6-73-45-74c-42 0-51 32-51 76 0 43 10 73 51 73" id="aJ"/><g id="H"><use transform="matrix(0.05,0,0,0.05,0,0)" xlink:href="#ax"/><use transform="matrix(0.05,0,0,0.05,5,0)" xlink:href="#aI"/><use transform="matrix(0.05,0,0,0.05,14,0)" xlink:href="#aJ"/><use transform="matrix(0.05,0,0,0.05,24,0)" xlink:href="#aw"/></g><path fill="#3a414a" d="M135-143c-3-34-86-38-87 0 15 53 115 12 119 90S17 21 10-45l28-5c4 36 97 45 98 0-10-56-113-15-118-90-4-57 82-63 122-42 12 7 21 19 24 35" id="aK"/><g id="I"><use transform="matrix(0.05,0,0,0.05,0,0)" xlink:href="#aF"/><use transform="matrix(0.05,0,0,0.05,14.950000000000001,0)" xlink:href="#aw"/><use transform="matrix(0.05,0,0,0.05,24.950000000000003,0)" xlink:href="#aK"/><use transform="matrix(0.05,0,0,0.05,33.95,0)" xlink:href="#aK"/><use transform="matrix(0.05,0,0,0.05,42.95,0)" xlink:href="#aG"/><use transform="matrix(0.05,0,0,0.05,52.95,0)" xlink:href="#aD"/><use transform="matrix(0.05,0,0,0.05,62.95,0)" xlink:href="#aw"/></g><path fill="#3a414a" d="M96-169c-40 0-48 33-48 73s9 75 48 75c24 0 41-14 43-38l32 2c-6 37-31 61-74 61-59 0-76-41-82-99-10-93 101-131 147-64 4 7 5 14 7 22l-32 3c-4-21-16-35-41-35" id="aL"/><path fill="#3a414a" d="M100-194c62-1 85 37 85 99 1 63-27 99-86 99S16-35 15-95c0-66 28-99 85-99zM99-20c44 1 53-31 53-75 0-43-8-75-51-75s-53 32-53 75 10 74 51 75" id="aM"/><g id="J"><use transform="matrix(0.05,0,0,0.05,0,0)" xlink:href="#aL"/><use transform="matrix(0.05,0,0,0.05,9,0)" xlink:href="#aM"/><use transform="matrix(0.05,0,0,0.05,19,0)" xlink:href="#ay"/><use transform="matrix(0.05,0,0,0.05,29,0)" xlink:href="#az"/><use transform="matrix(0.05,0,0,0.05,39,0)" xlink:href="#ax"/></g><g id="K"><use transform="matrix(0.05,0,0,0.05,0,0)" xlink:href="#aF"/><use transform="matrix(0.05,0,0,0.05,14.950000000000001,0)" xlink:href="#aw"/><use transform="matrix(0.05,0,0,0.05,24.950000000000003,0)" xlink:href="#aK"/><use transform="matrix(0.05,0,0,0.05,33.95,0)" xlink:href="#aK"/><use transform="matrix(0.05,0,0,0.05,42.95,0)" xlink:href="#aG"/><use transform="matrix(0.05,0,0,0.05,52.95,0)" xlink:href="#aD"/><use transform="matrix(0.05,0,0,0.05,62.95,0)" xlink:href="#aw"/></g><path fill="#3a414a" d="M101-234c-31-9-42 10-38 44h38v23H63V0H32v-167H5v-23h27c-7-52 17-82 69-68v24" id="aN"/><path fill="#3a414a" d="M106-169C34-169 62-67 57 0H25v-261h32l-1 103c12-21 28-36 61-36 89 0 53 116 60 194h-32v-121c2-32-8-49-39-48" id="aO"/><g id="L"><use transform="matrix(0.05,0,0,0.05,0,0)" xlink:href="#aN"/><use transform="matrix(0.05,0,0,0.05,5,0)" xlink:href="#aw"/><use transform="matrix(0.05,0,0,0.05,15,0)" xlink:href="#ax"/><use transform="matrix(0.05,0,0,0.05,20,0)" xlink:href="#aL"/><use transform="matrix(0.05,0,0,0.05,29,0)" xlink:href="#aO"/></g><g id="M"><use transform="matrix(0.05,0,0,0.05,0,0)" xlink:href="#aB"/><use transform="matrix(0.05,0,0,0.05,3.95,0)" xlink:href="#az"/><use transform="matrix(0.05,0,0,0.05,13.949999999999998,0)" xlink:href="#aN"/><use transform="matrix(0.05,0,0,0.05,18.95,0)" xlink:href="#aM"/><use transform="matrix(0.05,0,0,0.05,28.950000000000003,0)" xlink:href="#av"/><use transform="matrix(0.05,0,0,0.05,34.9,0)" xlink:href="#aF"/><use transform="matrix(0.05,0,0,0.05,49.85,0)" xlink:href="#aG"/><use transform="matrix(0.05,0,0,0.05,59.85,0)" xlink:href="#ax"/><use transform="matrix(0.05,0,0,0.05,64.85,0)" xlink:href="#aB"/><use transform="matrix(0.05,0,0,0.05,68.8,0)" xlink:href="#aM"/><use transform="matrix(0.05,0,0,0.05,78.8,0)" xlink:href="#az"/></g></defs></g></svg>