<svg xmlns="http://www.w3.org/2000/svg" xmlns:xlink="http://www.w3.org/1999/xlink" xmlns:lucid="lucid" width="1403" height="1050"><g transform="translate(-283 -160)" lucid:page-tab-id="0_0"><path d="M0 0h2320v2914.3H0z" fill="#fff"/><path d="M698.7 342.5v10m0 10.02v20.02m0 10v20.03m0 10v20.03m0 10v20.03m0 10v20.04m0 10v20.03m0 10v20.03m0 10v20.03m0 10v20.03m0 10v20.02m0 10v20.03m0 10v20.03m0 10v20.03m0 10.02v20.02m0 10v20.03m0 10v20.04m0 10.02v20.02m0 10v20.03m0 10v20.03m0 10v20.03m0 10v20.03m0 10v20.03m0 10v20.02m0 10v20.03m0 10v20.03m0 10v20.04m0 10v10.02" stroke="#333" fill="none"/><path d="M699.2 342.5h-1v-.5h1z" stroke="#333" stroke-width=".05" fill="#333"/><path d="M698.7 1153.32v.52" stroke="#333" fill="none"/><path d="M679.76 417.73a8 8 0 0 1 8-8h24a8 8 0 0 1 8 8v693.55a8 8 0 0 1-8 8h-24a8 8 0 0 1-8-8z" stroke="#f2f2f2" fill="#ced4db"/><path d="M1132.98 342.5v9.76m0 9.76v19.53m0 9.76v19.54m0 9.76v19.52m0 9.77v19.5m0 9.77v19.53m0 9.76V528m0 9.75v19.52m0 9.76v19.53m0 9.76v19.53m0 9.76v19.53m0 9.77v19.52m0 9.76v19.53m0 9.77V733m0 9.76v19.52m0 9.76v19.53m0 9.76v19.53m0 9.76v19.52m0 9.77v19.53m0 9.76v19.52m0 9.76V938m0 9.77v19.52m0 9.75v19.53m0 9.76v19.53m0 9.76v19.52m0 9.77v19.52m0 9.76v19.53m0 9.76V1143m0 9.76v9.76" stroke="#333" fill="none"/><path d="M1133.48 342.5h-1v-.5h1z" stroke="#333" stroke-width=".05" fill="#333"/><path d="M1132.98 1162.53v.5" stroke="#333" fill="none"/><path d="M1112.98 477.4a8 8 0 0 1 8-8h24a8 8 0 0 1 8 8v633.88a8 8 0 0 1-8 8h-24a8 8 0 0 1-8-8z" stroke="#f2f2f2" fill="#ced4db"/><path d="M1493.82 342.5v9.75m0 9.75v19.5m0 9.76v19.5m0 9.75V440m0 9.76v19.5m0 9.76v19.5m0 9.75v19.5m0 9.75v19.5m0 9.76v19.5m0 9.75v19.5m0 9.76v19.5m0 9.74v19.5m0 9.75v19.5m0 9.75v19.5m0 9.75v19.5m0 9.75v19.5m0 9.76v19.5m0 9.76v19.5m0 9.76v19.5m0 9.75v19.5m0 9.75v19.5m0 9.76v19.5m0 9.75v19.5m0 9.75v19.5m0 9.76v19.5m0 9.75v19.5m0 9.75v19.5m0 9.75v19.5m0 9.75v9.75" stroke="#333" fill="none"/><path d="M1494.32 342.5h-1v-.5h1z" stroke="#333" stroke-width=".05" fill="#333"/><path d="M1493.82 1161.6v.5" stroke="#333" fill="none"/><path d="M1472.75 828a8 8 0 0 1 8-8h24a8 8 0 0 1 8 8v104a8 8 0 0 1-8 8h-24a8 8 0 0 1-8-8z" stroke="#f2f2f2" fill="#ced4db"/><path d="M603.65 228a8 8 0 0 1 8-8h174.08a8 8 0 0 1 8 8v106a8 8 0 0 1-8 8H611.64a8 8 0 0 1-8-8z" stroke="#000" stroke-opacity="0" fill="#ffaf28"/><use xlink:href="#a" transform="matrix(1,0,0,1,611.6496896262572,228) translate(42.141975308641975 56.55555555555555)"/><use xlink:href="#b" transform="matrix(1,0,0,1,611.6496896262572,228) translate(76.6604938271605 56.55555555555555)"/><path d="M1037.95 228a8 8 0 0 1 8-8h174.07a8 8 0 0 1 8 8v106a8 8 0 0 1-8 8h-174.07a8 8 0 0 1-8-8z" stroke="#000" stroke-opacity="0" fill="#ffcc78"/><use xlink:href="#c" transform="matrix(1,0,0,1,1045.9478277631645,228) translate(41.203703703703695 56.55555555555555)"/><path d="M1398.78 228a8 8 0 0 1 8-8h174.08a8 8 0 0 1 8 8v106a8 8 0 0 1-8 8h-174.08a8 8 0 0 1-8-8z" stroke="#000" stroke-opacity="0" fill="#ffe6be"/><use xlink:href="#d" transform="matrix(1,0,0,1,1406.7818260913843,228) translate(47.57407407407407 56.55555555555555)"/><path d="M403.4 277.42c0 10.9-8.84 19.75-19.75 19.75-10.9 0-19.75-8.85-19.75-19.75s8.84-19.75 19.75-19.75c10.9 0 19.75 8.84 19.75 19.75z" stroke="#333" fill="#fff"/><path d="M383.65 297.17v47.3a27.6 27.6 0 0 0 4.28 14.75l35.72 56.45m-40-63.2l-40 63.2m0-98.75h80" stroke="#333" fill="none"/><path d="M343.65 265.67a8 8 0 0 1 8-8h64a8 8 0 0 1 8 8v164a8 8 0 0 1-8 8h-64a8 8 0 0 1-8-8z" fill="none"/><use xlink:href="#e" transform="matrix(1,0,0,1,263.6496896262572,415.6655519423589) translate(99.28395061728395 14.555555555555555)"/><path d="M384.15 353.4l.46.04.45.1.42.18.4.24.34.3.3.34.24.4.18.4.1.45.04.46v9.95m0 9.94v19.88m0 9.94v19.88m0 9.94v19.9m0 9.93v19.88m0 9.94v19.88m0 9.94v19.88m0 9.95v19.88m0 9.94v19.9m0 9.93v19.88m0 9.94v19.9m0 9.93v19.88m0 9.95v19.88m0 9.94V754m0 9.93v19.88m0 9.95v19.9m0 9.93v19.88m0 9.94v19.9m0 9.93v19.88m0 9.96v19.88m0 9.94v19.9m0 9.93v19.9m0 9.93v19.9m0 9.93v19.88m0 9.95v19.87m0 9.94v19.9m0 9.94v19.88m0 9.94v9.94M384.16 353.4h-3.5M387.06 1161.6v.5M387.56 495.67h275.32M387.57 495.67h-.5" stroke="#333" fill="none"/><path d="M677.64 495.67l-14.26 4.63v-9.27z" stroke="#333" fill="#333"/><use xlink:href="#f" transform="matrix(1,0,0,1,446.8134292304366,499.66569915825096) translate(0.0049999999999954525 14.222222222222223)"/><use xlink:href="#g" transform="matrix(1,0,0,1,446.8134292304366,499.66569915825096) translate(41.4370987654321 14.222222222222223)"/><use xlink:href="#h" transform="matrix(1,0,0,1,446.8134292304366,499.66569915825096) translate(106.62228395061729 14.222222222222223)"/><use xlink:href="#i" transform="matrix(1,0,0,1,446.8134292304366,499.66569915825096) translate(151.95561728395063 14.222222222222223)"/><path d="M720.76 714H1096.1" stroke="#333" fill="none"/><path d="M720.77 714.5h-.5v-1h.5z" stroke="#333" stroke-width=".05" fill="#333"/><path d="M1110.87 714l-14.27 4.63v-9.26z" stroke="#333" fill="#333"/><use xlink:href="#j" transform="matrix(1,0,0,1,808.3483559500926,718.0001416321439) translate(0.0049999999999954525 14.222222222222223)"/><use xlink:href="#k" transform="matrix(1,0,0,1,808.3483559500926,718.0001416321439) translate(64.15314814814815 14.222222222222223)"/><use xlink:href="#l" transform="matrix(1,0,0,1,808.3483559500926,718.0001416321439) translate(86.77043209876544 14.222222222222223)"/><use xlink:href="#m" transform="matrix(1,0,0,1,808.3483559500926,718.0001416321439) translate(172.646975308642 14.222222222222223)"/><use xlink:href="#n" transform="matrix(1,0,0,1,808.3483559500926,718.0001416321439) translate(191.36302469135805 14.222222222222223)"/><path d="M1153.98 856.5h301.88" stroke="#333" fill="none"/><path d="M1154 857h-.52v-1h.52z" stroke="#333" stroke-width=".05" fill="#333"/><path d="M1470.63 856.5l-14.27 4.63v-9.27z" stroke="#333" fill="#333"/><use xlink:href="#o" transform="matrix(1,0,0,1,1195.9520910790825,860.4961036727148) translate(0.0049999999999954525 14.222222222222223)"/><use xlink:href="#k" transform="matrix(1,0,0,1,1195.9520910790825,860.4961036727148) translate(76.99265432098767 14.222222222222223)"/><use xlink:href="#p" transform="matrix(1,0,0,1,1195.9520910790825,860.4961036727148) translate(99.60993827160496 14.222222222222223)"/><use xlink:href="#m" transform="matrix(1,0,0,1,1195.9520910790825,860.4961036727148) translate(190.4247530864198 14.222222222222223)"/><use xlink:href="#q" transform="matrix(1,0,0,1,1195.9520910790825,860.4961036727148) translate(209.14080246913585 14.222222222222223)"/><path d="M1471.75 914.5h-301.88" stroke="#333" fill="none"/><path d="M1472.25 915h-.52v-1h.52z" stroke="#333" stroke-width=".05" fill="#333"/><path d="M1155.1 914.5l14.27-4.63v9.26z" stroke="#333" fill="#333"/><use xlink:href="#r" transform="matrix(1,0,0,1,1233.186132684447,918.5000026136042) translate(0.0049999999999954525 14.222222222222223)"/><use xlink:href="#k" transform="matrix(1,0,0,1,1233.186132684447,918.5000026136042) translate(51.26425925925926 14.222222222222223)"/><use xlink:href="#l" transform="matrix(1,0,0,1,1233.186132684447,918.5000026136042) translate(73.88154320987655 14.222222222222223)"/><use xlink:href="#m" transform="matrix(1,0,0,1,1233.186132684447,918.5000026136042) translate(159.7580864197531 14.222222222222223)"/><use xlink:href="#q" transform="matrix(1,0,0,1,1233.186132684447,918.5000026136042) translate(178.47413580246916 14.222222222222223)"/><path d="M1112 880H736.63" stroke="#333" fill="none"/><path d="M1112.5 880.5h-.53v-1h.52z" stroke="#333" stroke-width=".05" fill="#333"/><path d="M721.88 880l14.26-4.63v9.26z" stroke="#333" fill="#333"/><g><use xlink:href="#r" transform="matrix(1,0,0,1,854.0619833042005,883.9999999999995) translate(0.0049999999999954525 14.222222222222223)"/><use xlink:href="#s" transform="matrix(1,0,0,1,854.0619833042005,883.9999999999995) translate(51.26425925925926 14.222222222222223)"/><use xlink:href="#t" transform="matrix(1,0,0,1,854.0619833042005,883.9999999999995) translate(77.83216049382716 14.222222222222223)"/><use xlink:href="#u" transform="matrix(1,0,0,1,854.0619833042005,883.9999999999995) translate(97.58524691358025 14.222222222222223)"/></g><path d="M678.76 829.5H403.44" stroke="#333" fill="none"/><path d="M679.26 830h-.5v-1h.5z" stroke="#333" stroke-width=".05" fill="#333"/><path d="M388.68 829.5l14.26-4.63v9.26z" stroke="#333" fill="#333"/><g><use xlink:href="#v" transform="matrix(1,0,0,1,397.50481368707136,838.1352543733584) translate(0.0049999999999954525 14.222222222222223)"/><use xlink:href="#w" transform="matrix(1,0,0,1,397.50481368707136,838.1352543733584) translate(77.98030864197531 14.222222222222223)"/><use xlink:href="#x" transform="matrix(1,0,0,1,397.50481368707136,838.1352543733584) translate(114.42475308641977 14.222222222222223)"/><use xlink:href="#y" transform="matrix(1,0,0,1,397.50481368707136,838.1352543733584) translate(144.05438271604942 14.222222222222223)"/><use xlink:href="#t" transform="matrix(1,0,0,1,397.50481368707136,838.1352543733584) translate(170.62228395061732 14.222222222222223)"/><use xlink:href="#u" transform="matrix(1,0,0,1,397.50481368707136,838.1352543733584) translate(190.3753703703704 14.222222222222223)"/></g><path d="M800 728a8 8 0 0 1 8-8h224a8 8 0 0 1 8 8v44a8 8 0 0 1-8 8H808a8 8 0 0 1-8-8z" fill="none"/><g><use xlink:href="#z" transform="matrix(1,0,0,1,800,720) translate(7.174999999999997 33.6)"/><use xlink:href="#A" transform="matrix(1,0,0,1,800,720) translate(55.125 33.6)"/><use xlink:href="#B" transform="matrix(1,0,0,1,800,720) translate(129.925 33.6)"/><use xlink:href="#C" transform="matrix(1,0,0,1,800,720) translate(170.825 33.6)"/></g><path d="M1192.87 868a8 8 0 0 1 8-8h224a8 8 0 0 1 8 8v44a8 8 0 0 1-8 8h-224a8 8 0 0 1-8-8z" fill="none"/><g><use xlink:href="#z" transform="matrix(1,0,0,1,1192.865677723035,860) translate(2.174999999999997 33.6)"/><use xlink:href="#D" transform="matrix(1,0,0,1,1192.865677723035,860) translate(50.125 33.6)"/><use xlink:href="#B" transform="matrix(1,0,0,1,1192.865677723035,860) translate(134.925 33.6)"/><use xlink:href="#C" transform="matrix(1,0,0,1,1192.865677723035,860) translate(175.825 33.6)"/></g><path d="M1220 928a8 8 0 0 1 8-8h224a8 8 0 0 1 8 8v44a8 8 0 0 1-8 8h-224a8 8 0 0 1-8-8z" fill="none"/><g><use xlink:href="#z" transform="matrix(1,0,0,1,1220,920) translate(2.174999999999997 33.6)"/><use xlink:href="#D" transform="matrix(1,0,0,1,1220,920) translate(50.125 33.6)"/><use xlink:href="#B" transform="matrix(1,0,0,1,1220,920) translate(134.925 33.6)"/><use xlink:href="#C" transform="matrix(1,0,0,1,1220,920) translate(175.825 33.6)"/></g><defs><path fill="#333" d="M66-151c12-25 30-51 66-40l-6 26C45-176 58-65 38 0H6l36-190h30" id="E"/><path fill="#333" d="M111-194c62-3 86 47 72 106H45c-7 38 6 69 45 68 27-1 43-14 53-32l24 11C152-15 129 4 87 4 38 3 12-23 12-71c0-70 32-119 99-123zm44 81c14-66-71-72-95-28-4 8-8 17-11 28h106" id="F"/><path fill="#333" d="M55-144c13 50 104 24 104 88C159 21 15 23 1-39l26-10c6 40 102 42 102-4-13-50-104-23-104-87 0-71 143-71 148-8l-29 4c-5-35-85-37-89 0" id="G"/><path fill="#333" d="M51-54c-9 22 5 41 31 30L79-1C43 14 10-4 19-52l22-115H19l5-23h22l19-43h21l-9 43h35l-4 23H73" id="H"/><g id="a"><use transform="matrix(0.04938271604938272,0,0,0.04938271604938272,0,0)" xlink:href="#E"/><use transform="matrix(0.04938271604938272,0,0,0.04938271604938272,5.8765432098765435,0)" xlink:href="#F"/><use transform="matrix(0.04938271604938272,0,0,0.04938271604938272,15.753086419753087,0)" xlink:href="#G"/><use transform="matrix(0.04938271604938272,0,0,0.04938271604938272,24.641975308641978,0)" xlink:href="#H"/><path fill="#333" d="M-.9 1.23h36.3v1.3H-.9z"/></g><path fill="#333" d="M89 0H52L20-190h33L74-25l89-165h34" id="I"/><path fill="#333" d="M50-231l6-30h32l-6 30H50zM6 0l37-190h31L37 0H6" id="J"/><path fill="#333" d="M44-68c0 29 11 47 38 47 30 0 42-19 51-41l28 9C148-21 126 4 82 4 31 4 10-29 12-85c3-77 74-140 146-93 12 8 15 23 18 40l-31 5c-1-22-13-36-36-36-52 0-65 49-65 101" id="K"/><g id="b"><use transform="matrix(0.04938271604938272,0,0,0.04938271604938272,0,0)" xlink:href="#G"/><use transform="matrix(0.04938271604938272,0,0,0.04938271604938272,8.88888888888889,0)" xlink:href="#F"/><use transform="matrix(0.04938271604938272,0,0,0.04938271604938272,18.765432098765434,0)" xlink:href="#E"/><use transform="matrix(0.04938271604938272,0,0,0.04938271604938272,24.641975308641978,0)" xlink:href="#I"/><use transform="matrix(0.04938271604938272,0,0,0.04938271604938272,33.53086419753087,0)" xlink:href="#J"/><use transform="matrix(0.04938271604938272,0,0,0.04938271604938272,37.4320987654321,0)" xlink:href="#K"/><use transform="matrix(0.04938271604938272,0,0,0.04938271604938272,46.32098765432099,0)" xlink:href="#F"/><path fill="#333" d="M-.9 1.23h58v1.3h-58z"/></g><path fill="#333" d="M67-162c32-53 139-36 121 50C175-51 163 2 97 4 68 4 52-11 42-31 38 6 28 39 22 75H-9l50-265h29c-1 10 0 20-3 28zm89 36c0-26-10-43-35-43-54 0-67 50-69 103-1 29 14 45 42 46 53 0 62-58 62-106" id="L"/><path fill="#333" d="M6 0l50-261h32L37 0H6" id="M"/><path fill="#333" d="M165-48c-4 18 1 34 23 27l-3 20c-29 8-62 0-52-35h-2C116-14 99 4 63 4 30 4 8-16 8-49c0-68 71-67 138-67 10-26 0-56-31-54-26 1-42 9-47 31l-32-5c8-67 160-71 144 15-5 28-9 54-15 81zM42-50c3 52 80 24 89-6 7-12 7-24 11-38-47 1-103-4-100 44" id="N"/><path fill="#333" d="M198-190L69 30C53 58 25 83-20 72c4-11-1-27 19-22 33-1 43-29 59-52L20-190h32L79-34l84-156h35" id="O"/><path fill="#333" d="M18-82l6-28h88l-6 28H18" id="P"/><g id="c"><use transform="matrix(0.04938271604938272,0,0,0.04938271604938272,0,0)" xlink:href="#E"/><use transform="matrix(0.04938271604938272,0,0,0.04938271604938272,5.8765432098765435,0)" xlink:href="#F"/><use transform="matrix(0.04938271604938272,0,0,0.04938271604938272,15.753086419753087,0)" xlink:href="#L"/><use transform="matrix(0.04938271604938272,0,0,0.04938271604938272,25.629629629629633,0)" xlink:href="#M"/><use transform="matrix(0.04938271604938272,0,0,0.04938271604938272,29.530864197530867,0)" xlink:href="#N"/><use transform="matrix(0.04938271604938272,0,0,0.04938271604938272,39.40740740740741,0)" xlink:href="#O"/><use transform="matrix(0.04938271604938272,0,0,0.04938271604938272,48.296296296296305,0)" xlink:href="#P"/><use transform="matrix(0.04938271604938272,0,0,0.04938271604938272,54.17283950617284,0)" xlink:href="#M"/><use transform="matrix(0.04938271604938272,0,0,0.04938271604938272,58.074074074074076,0)" xlink:href="#N"/><use transform="matrix(0.04938271604938272,0,0,0.04938271604938272,67.95061728395063,0)" xlink:href="#O"/><use transform="matrix(0.04938271604938272,0,0,0.04938271604938272,76.83950617283952,0)" xlink:href="#F"/><use transform="matrix(0.04938271604938272,0,0,0.04938271604938272,86.71604938271606,0)" xlink:href="#E"/><path fill="#333" d="M-.9 1.23H93.5v1.3H-.9z"/></g><path fill="#333" d="M249-183c0 48-29 72-75 77L221 0h-36l-43-103H65L45 0H11l48-248c83 2 190-17 190 65zm-34 3c0-55-74-39-127-41l-18 92c63-1 145 13 145-51" id="Q"/><path fill="#333" d="M68-162c25-46 127-43 121 31C183-60 169 1 98 4 69 5 53-11 43-31L36 0H5l52-261h31zm88 36c2-27-9-43-34-43-55 0-70 51-70 103 0 29 15 45 43 46 52 0 58-58 61-106" id="R"/><path fill="#333" d="M222 0l43-216c-8 16-17 34-26 49L143 0h-22L81-216 41 0H11l48-248h42l38 208 116-208h45L252 0h-30" id="S"/><path fill="#333" d="M24-61C-1-165 59-251 163-251c67 1 105 36 105 101 0 88-46 140-124 152 2 33 24 47 60 39l-3 23c-50 15-89-11-89-61-46-3-79-26-88-64zm210-73c6-55-18-91-72-90-77 1-111 51-111 125 0 49 24 75 73 75 72 0 103-45 110-110" id="T"/><g id="d"><use transform="matrix(0.04938271604938272,0,0,0.04938271604938272,0,0)" xlink:href="#Q"/><use transform="matrix(0.04938271604938272,0,0,0.04938271604938272,12.790123456790125,0)" xlink:href="#N"/><use transform="matrix(0.04938271604938272,0,0,0.04938271604938272,22.66666666666667,0)" xlink:href="#R"/><use transform="matrix(0.04938271604938272,0,0,0.04938271604938272,32.543209876543216,0)" xlink:href="#R"/><use transform="matrix(0.04938271604938272,0,0,0.04938271604938272,42.41975308641976,0)" xlink:href="#J"/><use transform="matrix(0.04938271604938272,0,0,0.04938271604938272,46.320987654320994,0)" xlink:href="#H"/><use transform="matrix(0.04938271604938272,0,0,0.04938271604938272,51.25925925925927,0)" xlink:href="#S"/><use transform="matrix(0.04938271604938272,0,0,0.04938271604938272,66.0246913580247,0)" xlink:href="#T"/><path fill="#333" d="M-.9 1.23h81.64v1.3H-.9z"/></g><path fill="#333" d="M187 0l-14-72H61L19 0h-37l149-248h38L221 0h-34zm-19-99l-22-123L76-99h92" id="U"/><path fill="#333" d="M30-147c31-64 166-65 159 27C183-49 158 1 86 4 9 8 1-88 30-147zM88-20c53 0 68-48 68-100 0-31-11-51-44-50-52 1-68 46-68 97 0 32 13 53 44 53" id="V"/><g id="e"><use transform="matrix(0.04938271604938272,0,0,0.04938271604938272,0,0)" xlink:href="#U"/><use transform="matrix(0.04938271604938272,0,0,0.04938271604938272,11.851851851851853,0)" xlink:href="#K"/><use transform="matrix(0.04938271604938272,0,0,0.04938271604938272,20.74074074074074,0)" xlink:href="#H"/><use transform="matrix(0.04938271604938272,0,0,0.04938271604938272,25.679012345679016,0)" xlink:href="#V"/><use transform="matrix(0.04938271604938272,0,0,0.04938271604938272,35.55555555555556,0)" xlink:href="#E"/></g><path fill="#333" d="M52-101C46-14 166-7 216-51l9-45h-74l6-28h105l-18 87C217-12 181 4 130 4 60 4 18-31 18-101c0-106 78-167 188-146 30 6 48 27 59 54l-34 9c-10-26-31-41-67-40-75 1-107 50-112 123" id="W"/><path fill="#333" d="M11 0l48-248h184l-5 28H87l-15 79h140l-5 27H67L50-27h158l-5 27H11" id="X"/><path fill="#333" d="M151-220L108 0H75l42-220H32l6-28h203l-5 28h-85" id="Y"/><g id="f"><use transform="matrix(0.04938271604938272,0,0,0.04938271604938272,0,0)" xlink:href="#W"/><use transform="matrix(0.04938271604938272,0,0,0.04938271604938272,13.827160493827162,0)" xlink:href="#X"/><use transform="matrix(0.04938271604938272,0,0,0.04938271604938272,25.679012345679016,0)" xlink:href="#Y"/></g><path fill="#333" d="M54 8c-6 25-1 50 32 44l-5 23C4 86 23 3 35-54c0-20-11-27-31-28l4-22c93-3 3-173 138-157l-4 23c-85-8-22 124-103 145C80-84 62-28 54 8" id="Z"/><path fill="#333" d="M133-28C103 26-5 8 13-77c13-62 24-115 90-117 29-1 46 15 56 35 2-12 6-24 8-34h31L144 75h-31zM45-64c-2 27 10 43 35 43 54-1 69-50 69-103 0-29-15-46-42-46-53-1-58 58-62 106" id="aa"/><path fill="#333" d="M67 3c-93-2-31-127-26-193h32L48-50c-3 39 53 32 70 12 30-34 30-101 43-152h32L157 0h-30c1-10 6-24 4-33-14 20-29 37-64 36" id="ab"/><path fill="#333" d="M58-38C53-5 46 26 28 46H7C19 32 27 18 32 0H17l7-38h34" id="ac"/><g id="g"><use transform="matrix(0.04938271604938272,0,0,0.04938271604938272,0,0)" xlink:href="#Z"/><use transform="matrix(0.04938271604938272,0,0,0.04938271604938272,5.9259259259259265,0)" xlink:href="#aa"/><use transform="matrix(0.04938271604938272,0,0,0.04938271604938272,15.80246913580247,0)" xlink:href="#ab"/><use transform="matrix(0.04938271604938272,0,0,0.04938271604938272,25.679012345679016,0)" xlink:href="#F"/><use transform="matrix(0.04938271604938272,0,0,0.04938271604938272,35.55555555555556,0)" xlink:href="#ab"/><use transform="matrix(0.04938271604938272,0,0,0.04938271604938272,45.4320987654321,0)" xlink:href="#F"/><use transform="matrix(0.04938271604938272,0,0,0.04938271604938272,55.308641975308646,0)" xlink:href="#ac"/></g><path fill="#333" d="M76-167L44 0H12l33-167H18l4-23h27c3-47 25-81 82-69l-4 24c-35-8-44 15-46 45h37l-5 23H76" id="ad"/><path fill="#333" d="M248-111c6-24 9-61-24-58-72 9-57 108-77 169h-31l26-142c3-37-50-30-64-10C52-115 50-51 37 0H6l36-190h30c-1 10-6 24-4 32 13-43 101-52 105 5 13-22 29-41 61-41 90 0 28 129 23 194h-31" id="ae"/><g id="h"><use transform="matrix(0.04938271604938272,0,0,0.04938271604938272,0,0)" xlink:href="#ad"/><use transform="matrix(0.04938271604938272,0,0,0.04938271604938272,4.938271604938272,0)" xlink:href="#E"/><use transform="matrix(0.04938271604938272,0,0,0.04938271604938272,10.814814814814817,0)" xlink:href="#V"/><use transform="matrix(0.04938271604938272,0,0,0.04938271604938272,20.69135802469136,0)" xlink:href="#ae"/><use transform="matrix(0.04938271604938272,0,0,0.04938271604938272,35.4567901234568,0)" xlink:href="#ac"/></g><path fill="#333" d="M65-194c6-26 0-49-32-44l4-23c79-12 59 72 46 129 1 20 12 27 32 28l-5 22C18-77 106 91-28 75l4-23C62 61-3-72 79-93c-41-8-21-66-14-101" id="af"/><g id="i"><use transform="matrix(0.04938271604938272,0,0,0.04938271604938272,0,0)" xlink:href="#H"/><use transform="matrix(0.04938271604938272,0,0,0.04938271604938272,4.938271604938272,0)" xlink:href="#V"/><use transform="matrix(0.04938271604938272,0,0,0.04938271604938272,14.814814814814817,0)" xlink:href="#af"/></g><g id="j"><use transform="matrix(0.04938271604938272,0,0,0.04938271604938272,0,0)" xlink:href="#E"/><use transform="matrix(0.04938271604938272,0,0,0.04938271604938272,5.8765432098765435,0)" xlink:href="#F"/><use transform="matrix(0.04938271604938272,0,0,0.04938271604938272,15.753086419753087,0)" xlink:href="#aa"/><use transform="matrix(0.04938271604938272,0,0,0.04938271604938272,25.629629629629633,0)" xlink:href="#ab"/><use transform="matrix(0.04938271604938272,0,0,0.04938271604938272,35.50617283950618,0)" xlink:href="#F"/><use transform="matrix(0.04938271604938272,0,0,0.04938271604938272,45.38271604938272,0)" xlink:href="#G"/><use transform="matrix(0.04938271604938272,0,0,0.04938271604938272,54.27160493827161,0)" xlink:href="#H"/></g><g id="k"><use transform="matrix(0.04938271604938272,0,0,0.04938271604938272,0,0)" xlink:href="#N"/><use transform="matrix(0.04938271604938272,0,0,0.04938271604938272,9.876543209876544,0)" xlink:href="#M"/><use transform="matrix(0.04938271604938272,0,0,0.04938271604938272,13.777777777777779,0)" xlink:href="#M"/></g><path fill="#333" d="M103-194c29 0 47 14 56 36 2-11 5-23 8-32h30L160-5C157 61 82 97 21 62 9 55 4 45 1 30l28-7c7 42 83 31 92-3 4-16 9-38 13-55-13 20-29 36-62 36-40 0-60-25-60-64 0-71 23-131 91-131zm4 24c-53 0-58 54-61 104-2 27 10 44 36 44 49 0 65-50 67-102 1-29-15-46-42-46" id="ag"/><g id="l"><use transform="matrix(0.04938271604938272,0,0,0.04938271604938272,0,0)" xlink:href="#ae"/><use transform="matrix(0.04938271604938272,0,0,0.04938271604938272,14.765432098765434,0)" xlink:href="#F"/><use transform="matrix(0.04938271604938272,0,0,0.04938271604938272,24.641975308641978,0)" xlink:href="#G"/><use transform="matrix(0.04938271604938272,0,0,0.04938271604938272,33.53086419753087,0)" xlink:href="#G"/><use transform="matrix(0.04938271604938272,0,0,0.04938271604938272,42.41975308641976,0)" xlink:href="#N"/><use transform="matrix(0.04938271604938272,0,0,0.04938271604938272,52.2962962962963,0)" xlink:href="#ag"/><use transform="matrix(0.04938271604938272,0,0,0.04938271604938272,62.17283950617284,0)" xlink:href="#F"/><use transform="matrix(0.04938271604938272,0,0,0.04938271604938272,72.0493827160494,0)" xlink:href="#G"/></g><path fill="#333" d="M67-158c22-48 132-52 116 29L158 0h-32l25-140c3-38-53-32-70-12C52-117 51-52 38 0H6l36-190h30" id="ah"/><g id="m"><use transform="matrix(0.04938271604938272,0,0,0.04938271604938272,0,0)" xlink:href="#J"/><use transform="matrix(0.04938271604938272,0,0,0.04938271604938272,3.901234567901235,0)" xlink:href="#ah"/></g><path fill="#333" d="M67-158c15-20 31-36 64-36 94 0 33 127 27 194h-32l25-140c3-38-53-32-70-12C52-117 51-51 37 0H6l51-261h31" id="ai"/><g id="n"><use transform="matrix(0.04938271604938272,0,0,0.04938271604938272,0,0)" xlink:href="#H"/><use transform="matrix(0.04938271604938272,0,0,0.04938271604938272,4.938271604938272,0)" xlink:href="#ai"/><use transform="matrix(0.04938271604938272,0,0,0.04938271604938272,14.814814814814817,0)" xlink:href="#F"/></g><g id="o"><use transform="matrix(0.04938271604938272,0,0,0.04938271604938272,0,0)" xlink:href="#K"/><use transform="matrix(0.04938271604938272,0,0,0.04938271604938272,8.88888888888889,0)" xlink:href="#V"/><use transform="matrix(0.04938271604938272,0,0,0.04938271604938272,18.765432098765434,0)" xlink:href="#ah"/><use transform="matrix(0.04938271604938272,0,0,0.04938271604938272,28.641975308641978,0)" xlink:href="#G"/><use transform="matrix(0.04938271604938272,0,0,0.04938271604938272,37.53086419753087,0)" xlink:href="#ab"/><use transform="matrix(0.04938271604938272,0,0,0.04938271604938272,47.40740740740741,0)" xlink:href="#ae"/><use transform="matrix(0.04938271604938272,0,0,0.04938271604938272,62.17283950617284,0)" xlink:href="#F"/></g><g id="p"><use transform="matrix(0.04938271604938272,0,0,0.04938271604938272,0,0)" xlink:href="#ae"/><use transform="matrix(0.04938271604938272,0,0,0.04938271604938272,14.765432098765434,0)" xlink:href="#F"/><use transform="matrix(0.04938271604938272,0,0,0.04938271604938272,24.641975308641978,0)" xlink:href="#G"/><use transform="matrix(0.04938271604938272,0,0,0.04938271604938272,33.53086419753087,0)" xlink:href="#G"/><use transform="matrix(0.04938271604938272,0,0,0.04938271604938272,42.41975308641976,0)" xlink:href="#N"/><use transform="matrix(0.04938271604938272,0,0,0.04938271604938272,52.2962962962963,0)" xlink:href="#ag"/><use transform="matrix(0.04938271604938272,0,0,0.04938271604938272,62.17283950617284,0)" xlink:href="#F"/><use transform="matrix(0.04938271604938272,0,0,0.04938271604938272,72.0493827160494,0)" xlink:href="#G"/></g><g id="q"><use transform="matrix(0.04938271604938272,0,0,0.04938271604938272,0,0)" xlink:href="#H"/><use transform="matrix(0.04938271604938272,0,0,0.04938271604938272,4.938271604938272,0)" xlink:href="#ai"/><use transform="matrix(0.04938271604938272,0,0,0.04938271604938272,14.814814814814817,0)" xlink:href="#F"/></g><g id="r"><use transform="matrix(0.04938271604938272,0,0,0.04938271604938272,0,0)" xlink:href="#E"/><use transform="matrix(0.04938271604938272,0,0,0.04938271604938272,5.8765432098765435,0)" xlink:href="#F"/><use transform="matrix(0.04938271604938272,0,0,0.04938271604938272,15.753086419753087,0)" xlink:href="#H"/><use transform="matrix(0.04938271604938272,0,0,0.04938271604938272,20.69135802469136,0)" xlink:href="#ab"/><use transform="matrix(0.04938271604938272,0,0,0.04938271604938272,30.567901234567906,0)" xlink:href="#E"/><use transform="matrix(0.04938271604938272,0,0,0.04938271604938272,36.44444444444445,0)" xlink:href="#ah"/></g><g id="s"><use transform="matrix(0.04938271604938272,0,0,0.04938271604938272,0,0)" xlink:href="#M"/><use transform="matrix(0.04938271604938272,0,0,0.04938271604938272,3.901234567901235,0)" xlink:href="#J"/><use transform="matrix(0.04938271604938272,0,0,0.04938271604938272,7.80246913580247,0)" xlink:href="#G"/><use transform="matrix(0.04938271604938272,0,0,0.04938271604938272,16.69135802469136,0)" xlink:href="#H"/></g><g id="t"><use transform="matrix(0.04938271604938272,0,0,0.04938271604938272,0,0)" xlink:href="#V"/><use transform="matrix(0.04938271604938272,0,0,0.04938271604938272,9.876543209876544,0)" xlink:href="#ad"/></g><g id="u"><use transform="matrix(0.04938271604938272,0,0,0.04938271604938272,0,0)" xlink:href="#ae"/><use transform="matrix(0.04938271604938272,0,0,0.04938271604938272,14.765432098765434,0)" xlink:href="#F"/><use transform="matrix(0.04938271604938272,0,0,0.04938271604938272,24.641975308641978,0)" xlink:href="#G"/><use transform="matrix(0.04938271604938272,0,0,0.04938271604938272,33.53086419753087,0)" xlink:href="#G"/><use transform="matrix(0.04938271604938272,0,0,0.04938271604938272,42.41975308641976,0)" xlink:href="#N"/><use transform="matrix(0.04938271604938272,0,0,0.04938271604938272,52.2962962962963,0)" xlink:href="#ag"/><use transform="matrix(0.04938271604938272,0,0,0.04938271604938272,62.17283950617284,0)" xlink:href="#F"/><use transform="matrix(0.04938271604938272,0,0,0.04938271604938272,72.0493827160494,0)" xlink:href="#G"/></g><g id="v"><use transform="matrix(0.04938271604938272,0,0,0.04938271604938272,0,0)" xlink:href="#E"/><use transform="matrix(0.04938271604938272,0,0,0.04938271604938272,5.8765432098765435,0)" xlink:href="#F"/><use transform="matrix(0.04938271604938272,0,0,0.04938271604938272,15.753086419753087,0)" xlink:href="#G"/><use transform="matrix(0.04938271604938272,0,0,0.04938271604938272,24.641975308641978,0)" xlink:href="#L"/><use transform="matrix(0.04938271604938272,0,0,0.04938271604938272,34.51851851851852,0)" xlink:href="#V"/><use transform="matrix(0.04938271604938272,0,0,0.04938271604938272,44.39506172839506,0)" xlink:href="#ah"/><use transform="matrix(0.04938271604938272,0,0,0.04938271604938272,54.27160493827161,0)" xlink:href="#G"/><use transform="matrix(0.04938271604938272,0,0,0.04938271604938272,63.1604938271605,0)" xlink:href="#F"/></g><path fill="#333" d="M188 0h-37l-8-164L71 0H34L18-190h31l8 164 75-164h34l8 164 74-164h31" id="aj"/><g id="w"><use transform="matrix(0.04938271604938272,0,0,0.04938271604938272,0,0)" xlink:href="#aj"/><use transform="matrix(0.04938271604938272,0,0,0.04938271604938272,12.790123456790125,0)" xlink:href="#J"/><use transform="matrix(0.04938271604938272,0,0,0.04938271604938272,16.69135802469136,0)" xlink:href="#H"/><use transform="matrix(0.04938271604938272,0,0,0.04938271604938272,21.629629629629633,0)" xlink:href="#ai"/></g><g id="x"><use transform="matrix(0.04938271604938272,0,0,0.04938271604938272,0,0)" xlink:href="#H"/><use transform="matrix(0.04938271604938272,0,0,0.04938271604938272,4.938271604938272,0)" xlink:href="#ai"/><use transform="matrix(0.04938271604938272,0,0,0.04938271604938272,14.814814814814817,0)" xlink:href="#F"/></g><g id="y"><use transform="matrix(0.04938271604938272,0,0,0.04938271604938272,0,0)" xlink:href="#M"/><use transform="matrix(0.04938271604938272,0,0,0.04938271604938272,3.901234567901235,0)" xlink:href="#J"/><use transform="matrix(0.04938271604938272,0,0,0.04938271604938272,7.80246913580247,0)" xlink:href="#G"/><use transform="matrix(0.04938271604938272,0,0,0.04938271604938272,16.69135802469136,0)" xlink:href="#H"/></g><path fill="#3a414a" d="M177-190C167-65 218 103 67 71c-23-6-38-20-44-43l32-5c15 47 100 32 89-28v-30C133-14 115 1 83 1 29 1 15-40 15-95c0-56 16-97 71-98 29-1 48 16 59 35 1-10 0-23 2-32h30zM94-22c36 0 50-32 50-73 0-42-14-75-50-75-39 0-46 34-46 75s6 73 46 73" id="ak"/><path fill="#3a414a" d="M24-231v-30h32v30H24zM24 0v-190h32V0H24" id="al"/><path fill="#3a414a" d="M108 0H70L1-190h34L89-25l56-165h34" id="am"/><path fill="#3a414a" d="M100-194c63 0 86 42 84 106H49c0 40 14 67 53 68 26 1 43-12 49-29l28 8c-11 28-37 45-77 45C44 4 14-33 15-96c1-61 26-98 85-98zm52 81c6-60-76-77-97-28-3 7-6 17-6 28h103" id="an"/><path fill="#3a414a" d="M117-194c89-4 53 116 60 194h-32v-121c0-31-8-49-39-48C34-167 62-67 57 0H25l-1-190h30c1 10-1 24 2 32 11-22 29-35 61-36" id="ao"/><g id="z"><use transform="matrix(0.05,0,0,0.05,0,0)" xlink:href="#ak"/><use transform="matrix(0.05,0,0,0.05,10,0)" xlink:href="#al"/><use transform="matrix(0.05,0,0,0.05,13.949999999999998,0)" xlink:href="#am"/><use transform="matrix(0.05,0,0,0.05,22.95,0)" xlink:href="#an"/><use transform="matrix(0.05,0,0,0.05,32.95,0)" xlink:href="#ao"/></g><path fill="#3a414a" d="M59-47c-2 24 18 29 38 22v24C64 9 27 4 27-40v-127H5v-23h24l9-43h21v43h35v23H59v120" id="ap"/><path fill="#3a414a" d="M210-169c-67 3-38 105-44 169h-31v-121c0-29-5-50-35-48C34-165 62-65 56 0H25l-1-190h30c1 10-1 24 2 32 10-44 99-50 107 0 11-21 27-35 58-36 85-2 47 119 55 194h-31v-121c0-29-5-49-35-48" id="aq"/><path fill="#3a414a" d="M101-234c-31-9-42 10-38 44h38v23H63V0H32v-167H5v-23h27c-7-52 17-82 69-68v24" id="ar"/><path fill="#3a414a" d="M114-163C36-179 61-72 57 0H25l-1-190h30c1 12-1 29 2 39 6-27 23-49 58-41v29" id="as"/><path fill="#3a414a" d="M141-36C126-15 110 5 73 4 37 3 15-17 15-53c-1-64 63-63 125-63 3-35-9-54-41-54-24 1-41 7-42 31l-33-3c5-37 33-52 76-52 45 0 72 20 72 64v82c-1 20 7 32 28 27v20c-31 9-61-2-59-35zM48-53c0 20 12 33 32 33 41-3 63-29 60-74-43 2-92-5-92 41" id="at"/><g id="A"><use transform="matrix(0.05,0,0,0.05,0,0)" xlink:href="#ap"/><use transform="matrix(0.05,0,0,0.05,5,0)" xlink:href="#al"/><use transform="matrix(0.05,0,0,0.05,8.95,0)" xlink:href="#aq"/><use transform="matrix(0.05,0,0,0.05,23.9,0)" xlink:href="#an"/><use transform="matrix(0.05,0,0,0.05,33.9,0)" xlink:href="#ar"/><use transform="matrix(0.05,0,0,0.05,38.9,0)" xlink:href="#as"/><use transform="matrix(0.05,0,0,0.05,44.85,0)" xlink:href="#at"/><use transform="matrix(0.05,0,0,0.05,54.85,0)" xlink:href="#aq"/></g><path fill="#3a414a" d="M100-194c62-1 85 37 85 99 1 63-27 99-86 99S16-35 15-95c0-66 28-99 85-99zM99-20c44 1 53-31 53-75 0-43-8-75-51-75s-53 32-53 75 10 74 51 75" id="au"/><g id="B"><use transform="matrix(0.05,0,0,0.05,0,0)" xlink:href="#ar"/><use transform="matrix(0.05,0,0,0.05,5,0)" xlink:href="#as"/><use transform="matrix(0.05,0,0,0.05,10.95,0)" xlink:href="#au"/><use transform="matrix(0.05,0,0,0.05,20.95,0)" xlink:href="#aq"/></g><path fill="#3a414a" d="M39-94c74 12-11 154 75 146v23c-44 4-70-10-70-52C44-23 55-84 6-82v-22c81 4-7-162 84-157h24v23c-82-15-2 131-75 144" id="av"/><path fill="#3a414a" d="M145-31C134-9 116 4 85 4 32 4 16-35 15-94c0-59 17-99 70-100 32-1 48 14 60 33 0-11-1-24 2-32h30l-1 268h-32zM93-21c41 0 51-33 51-76s-8-73-50-73c-40 0-46 35-46 75s5 74 45 74" id="aw"/><path fill="#3a414a" d="M84 4C-5 8 30-112 23-190h32v120c0 31 7 50 39 49 72-2 45-101 50-169h31l1 190h-30c-1-10 1-25-2-33-11 22-28 36-60 37" id="ax"/><path fill="#3a414a" d="M76-40C78 24 84 88 6 75V52C86 64 9-79 80-94c-40-6-34-59-34-106 1-29-11-41-40-38v-23c44-4 70 10 70 52 0 47-12 108 38 105v22c-26 1-39 14-38 42" id="ay"/><g id="C"><use transform="matrix(0.05,0,0,0.05,0,0)" xlink:href="#av"/><use transform="matrix(0.05,0,0,0.05,6,0)" xlink:href="#aw"/><use transform="matrix(0.05,0,0,0.05,16,0)" xlink:href="#ax"/><use transform="matrix(0.05,0,0,0.05,26,0)" xlink:href="#an"/><use transform="matrix(0.05,0,0,0.05,36,0)" xlink:href="#ax"/><use transform="matrix(0.05,0,0,0.05,46,0)" xlink:href="#an"/><use transform="matrix(0.05,0,0,0.05,56,0)" xlink:href="#ay"/></g><g id="D"><use transform="matrix(0.05,0,0,0.05,0,0)" xlink:href="#ap"/><use transform="matrix(0.05,0,0,0.05,5,0)" xlink:href="#al"/><use transform="matrix(0.05,0,0,0.05,8.95,0)" xlink:href="#aq"/><use transform="matrix(0.05,0,0,0.05,23.9,0)" xlink:href="#an"/><use transform="matrix(0.05,0,0,0.05,33.9,0)" xlink:href="#ar"/><use transform="matrix(0.05,0,0,0.05,38.9,0)" xlink:href="#as"/><use transform="matrix(0.05,0,0,0.05,44.85,0)" xlink:href="#at"/><use transform="matrix(0.05,0,0,0.05,54.85,0)" xlink:href="#aq"/><use transform="matrix(0.05,0,0,0.05,69.8,0)" xlink:href="#an"/></g></defs></g></svg>